STARTFONT 2.1
FONT -FontForge-Rajdhani-Book-R-Normal--24-240-72-72-P-147-ISO10646-1
SIZE 24 72 72
FONTBOUNDINGBOX 58 29 -10 -8
COMMENT "Generated by fontforge, http://fontforge.sourceforge.net"
COMMENT "Copyright (c) 2014 Indian Type Foundry (info@indiantypefoundry.com)"
STARTPROPERTIES 40
FOUNDRY "FontForge"
FAMILY_NAME "Rajdhani"
WEIGHT_NAME "Book"
SLANT "R"
SETWIDTH_NAME "Normal"
ADD_STYLE_NAME ""
PIXEL_SIZE 24
POINT_SIZE 240
RESOLUTION_X 72
RESOLUTION_Y 72
SPACING "P"
AVERAGE_WIDTH 147
CHARSET_REGISTRY "ISO10646"
CHARSET_ENCODING "1"
FONTNAME_REGISTRY ""
CHARSET_COLLECTIONS "ISO8859-2 ISO8859-9 ISO8859-4 ISO10646-1"
FONT_NAME "Rajdhani-Regular"
FACE_NAME "Rajdhani Regular"
COPYRIGHT "Copyright (c) 2014 Indian Type Foundry (info@indiantypefoundry.com)"
FONT_VERSION "1.201;PS 1.0;hotconv 1.0.78;makeotf.lib2.5.61930; ttfautohint (v1.1) -l 7 -r 28 -G 50 -x 13 -D latn -f deva -w G"
FONT_ASCENT 19
FONT_DESCENT 5
UNDERLINE_POSITION -2
UNDERLINE_THICKNESS 2
X_HEIGHT 11
CAP_HEIGHT 14
DEFAULT_CHAR 3
RAW_ASCENT 800
RAW_DESCENT 200
NORM_SPACE 6
RELATIVE_WEIGHT 40
RELATIVE_SETWIDTH 50
SUPERSCRIPT_X 0
SUPERSCRIPT_Y 8
SUPERSCRIPT_SIZE 14
SUBSCRIPT_X 0
SUBSCRIPT_Y 1
SUBSCRIPT_SIZE 14
AVG_LOWERCASE_WIDTH 108
AVG_UPPERCASE_WIDTH 125
ENDPROPERTIES
CHARS 1043
STARTCHAR NULL.dup1
ENCODING 0
SWIDTH 0 0
DWIDTH 0 0
BBX 1 1 0 0
BITMAP
00
ENDCHAR
STARTCHAR CR
ENCODING 13
SWIDTH 0 0
DWIDTH 0 0
BBX 1 1 0 0
BITMAP
00
ENDCHAR
STARTCHAR space
ENCODING 32
SWIDTH 267 0
DWIDTH 6 0
BBX 1 1 0 0
BITMAP
00
ENDCHAR
STARTCHAR exclam
ENCODING 33
SWIDTH 237 0
DWIDTH 6 0
BBX 2 15 2 0
BITMAP
C0
C0
C0
C0
C0
80
80
80
80
80
00
00
80
80
80
ENDCHAR
STARTCHAR quotedbl
ENCODING 34
SWIDTH 330 0
DWIDTH 8 0
BBX 4 5 2 10
BITMAP
90
90
90
90
90
ENDCHAR
STARTCHAR numbersign
ENCODING 35
SWIDTH 677 0
DWIDTH 16 0
BBX 14 15 1 0
BITMAP
0218
0210
0410
0410
3FFC
0C20
0820
0860
0840
1040
FFF0
1080
2080
2080
2100
ENDCHAR
STARTCHAR dollar
ENCODING 36
SWIDTH 504 0
DWIDTH 12 0
BBX 8 20 2 -2
BITMAP
08
08
08
7E
C3
81
81
80
80
80
7E
03
01
01
81
81
C3
7E
08
08
ENDCHAR
STARTCHAR percent
ENCODING 37
SWIDTH 717 0
DWIDTH 17 0
BBX 15 15 1 0
BITMAP
7820
C420
8440
8440
8480
8480
7C80
0100
013C
0242
0242
0442
0442
0842
083C
ENDCHAR
STARTCHAR ampersand
ENCODING 38
SWIDTH 597 0
DWIDTH 14 0
BBX 11 15 2 0
BITMAP
1E00
2300
4100
4180
4100
6000
2000
7000
DFE0
8C00
8600
8300
8180
C1C0
7E60
ENDCHAR
STARTCHAR quotesingle
ENCODING 39
SWIDTH 186 0
DWIDTH 4 0
BBX 1 5 2 10
BITMAP
80
80
80
80
80
ENDCHAR
STARTCHAR parenleft
ENCODING 40
SWIDTH 283 0
DWIDTH 7 0
BBX 4 18 1 -3
BITMAP
30
40
C0
80
80
80
80
80
80
80
80
80
80
80
80
C0
40
30
ENDCHAR
STARTCHAR parenright
ENCODING 41
SWIDTH 283 0
DWIDTH 7 0
BBX 4 18 1 -3
BITMAP
E0
30
10
10
10
10
10
10
10
10
10
10
10
10
10
10
30
E0
ENDCHAR
STARTCHAR asterisk
ENCODING 42
SWIDTH 406 0
DWIDTH 10 0
BBX 6 6 2 9
BITMAP
20
20
EC
30
58
48
ENDCHAR
STARTCHAR plus
ENCODING 43
SWIDTH 523 0
DWIDTH 13 0
BBX 9 9 2 3
BITMAP
0800
0800
0800
0800
FF80
0800
0800
0800
0800
ENDCHAR
STARTCHAR comma
ENCODING 44
SWIDTH 191 0
DWIDTH 5 0
BBX 1 6 2 -3
BITMAP
80
80
80
80
80
80
ENDCHAR
STARTCHAR hyphen
ENCODING 45
SWIDTH 312 0
DWIDTH 7 0
BBX 6 1 1 7
BITMAP
FC
ENDCHAR
STARTCHAR period
ENCODING 46
SWIDTH 191 0
DWIDTH 5 0
BBX 1 3 2 0
BITMAP
80
80
80
ENDCHAR
STARTCHAR slash
ENCODING 47
SWIDTH 396 0
DWIDTH 10 0
BBX 7 15 1 0
BITMAP
02
06
04
04
0C
08
18
10
10
30
20
20
60
40
C0
ENDCHAR
STARTCHAR zero
ENCODING 48
SWIDTH 514 0
DWIDTH 12 0
BBX 9 15 2 0
BITMAP
7E00
C100
8180
8080
8080
8080
8080
8080
8080
8080
8080
8080
8180
C100
7E00
ENDCHAR
STARTCHAR one
ENCODING 49
SWIDTH 317 0
DWIDTH 8 0
BBX 5 15 1 0
BITMAP
18
78
98
18
18
18
18
18
18
18
18
18
18
18
18
ENDCHAR
STARTCHAR two
ENCODING 50
SWIDTH 478 0
DWIDTH 11 0
BBX 9 15 1 0
BITMAP
3F00
4180
C080
C080
8080
0080
0100
0600
0C00
1000
6000
4000
C000
C000
FF80
ENDCHAR
STARTCHAR three
ENCODING 51
SWIDTH 496 0
DWIDTH 12 0
BBX 8 15 2 0
BITMAP
7E
C3
81
81
01
01
01
1E
03
01
81
81
81
83
7E
ENDCHAR
STARTCHAR four
ENCODING 52
SWIDTH 520 0
DWIDTH 12 0
BBX 11 15 1 0
BITMAP
0380
0380
0780
0580
0980
1980
1180
3180
2180
4180
C180
FFE0
0180
0180
0180
ENDCHAR
STARTCHAR five
ENCODING 53
SWIDTH 482 0
DWIDTH 12 0
BBX 8 15 2 0
BITMAP
FF
80
80
80
80
FE
C3
01
01
01
81
81
81
C3
7E
ENDCHAR
STARTCHAR six
ENCODING 54
SWIDTH 497 0
DWIDTH 12 0
BBX 9 15 1 0
BITMAP
3F80
4000
C000
C000
C000
C000
FF00
C180
C080
C080
C080
C080
C080
4180
3F00
ENDCHAR
STARTCHAR seven
ENCODING 55
SWIDTH 380 0
DWIDTH 9 0
BBX 9 15 0 0
BITMAP
FF80
0100
0100
0300
0200
0200
0600
0400
0C00
0800
0800
1800
1000
1000
2000
ENDCHAR
STARTCHAR eight
ENCODING 56
SWIDTH 519 0
DWIDTH 12 0
BBX 9 15 2 0
BITMAP
7E00
C100
8080
8080
8080
8080
8100
7E00
C100
8080
8080
8080
8080
C100
7E00
ENDCHAR
STARTCHAR nine
ENCODING 57
SWIDTH 497 0
DWIDTH 12 0
BBX 9 15 1 0
BITMAP
3F00
4180
C080
C080
C080
C080
C080
4080
3F80
0080
0080
0080
0080
0180
7F00
ENDCHAR
STARTCHAR colon
ENCODING 58
SWIDTH 191 0
DWIDTH 5 0
BBX 1 12 2 0
BITMAP
80
80
80
00
00
00
00
00
00
80
80
80
ENDCHAR
STARTCHAR semicolon
ENCODING 59
SWIDTH 191 0
DWIDTH 5 0
BBX 1 14 2 -2
BITMAP
80
80
80
00
00
00
00
00
80
80
80
80
80
80
ENDCHAR
STARTCHAR less
ENCODING 60
SWIDTH 513 0
DWIDTH 12 0
BBX 9 8 2 4
BITMAP
0080
0380
1C00
E000
8000
7000
1C00
0380
ENDCHAR
STARTCHAR equal
ENCODING 61
SWIDTH 531 0
DWIDTH 13 0
BBX 9 5 2 5
BITMAP
FF80
0000
0000
0000
FF80
ENDCHAR
STARTCHAR greater
ENCODING 62
SWIDTH 531 0
DWIDTH 13 0
BBX 9 8 2 4
BITMAP
8000
E000
1800
0700
0080
0700
3800
C000
ENDCHAR
STARTCHAR question
ENCODING 63
SWIDTH 473 0
DWIDTH 11 0
BBX 8 15 2 0
BITMAP
7C
C2
83
83
83
02
04
08
18
10
00
00
18
18
18
ENDCHAR
STARTCHAR at
ENCODING 64
SWIDTH 753 0
DWIDTH 18 0
BBX 14 16 2 -1
BITMAP
0FF0
3008
4004
C004
87C4
8C44
8844
9844
9844
9844
9844
884C
C7F8
4000
3000
1FE0
ENDCHAR
STARTCHAR A
ENCODING 65
SWIDTH 533 0
DWIDTH 13 0
BBX 11 15 1 0
BITMAP
0C00
0E00
0A00
1A00
1300
1100
3100
2180
2080
6080
7FC0
4040
C040
8060
8020
ENDCHAR
STARTCHAR B
ENCODING 66
SWIDTH 546 0
DWIDTH 13 0
BBX 9 15 2 0
BITMAP
FF00
8180
8080
8080
8080
8080
8180
FE00
8180
8080
8080
8080
8080
8180
FF00
ENDCHAR
STARTCHAR C
ENCODING 67
SWIDTH 542 0
DWIDTH 13 0
BBX 10 15 2 0
BITMAP
7F00
C180
8080
80C0
80C0
8000
8000
8000
8000
8000
80C0
80C0
8080
C180
7F00
ENDCHAR
STARTCHAR D
ENCODING 68
SWIDTH 557 0
DWIDTH 13 0
BBX 10 15 2 0
BITMAP
FF00
8080
8080
80C0
80C0
80C0
80C0
80C0
80C0
80C0
80C0
80C0
8080
8080
FF00
ENDCHAR
STARTCHAR E
ENCODING 69
SWIDTH 481 0
DWIDTH 12 0
BBX 8 15 2 0
BITMAP
FF
80
80
80
80
80
80
FE
80
80
80
80
80
80
FF
ENDCHAR
STARTCHAR F
ENCODING 70
SWIDTH 459 0
DWIDTH 11 0
BBX 8 15 2 0
BITMAP
FF
80
80
80
80
80
80
FE
80
80
80
80
80
80
80
ENDCHAR
STARTCHAR G
ENCODING 71
SWIDTH 539 0
DWIDTH 13 0
BBX 9 15 2 0
BITMAP
7F00
C180
8080
8080
8080
8000
8000
8780
8080
8080
8080
8080
8080
C180
7F00
ENDCHAR
STARTCHAR H
ENCODING 72
SWIDTH 570 0
DWIDTH 14 0
BBX 10 15 2 0
BITMAP
80C0
80C0
80C0
80C0
80C0
80C0
80C0
FFC0
80C0
80C0
80C0
80C0
80C0
80C0
80C0
ENDCHAR
STARTCHAR I
ENCODING 73
SWIDTH 230 0
DWIDTH 6 0
BBX 1 15 2 0
BITMAP
80
80
80
80
80
80
80
80
80
80
80
80
80
80
80
ENDCHAR
STARTCHAR J
ENCODING 74
SWIDTH 499 0
DWIDTH 12 0
BBX 9 15 1 0
BITMAP
0080
0080
0080
0080
0080
0080
0080
0080
0080
8080
8080
8080
8080
C180
7F00
ENDCHAR
STARTCHAR K
ENCODING 75
SWIDTH 530 0
DWIDTH 13 0
BBX 10 15 2 0
BITMAP
8080
8100
8300
8600
8400
8800
9800
B800
AC00
C400
8200
8300
8180
8080
8040
ENDCHAR
STARTCHAR L
ENCODING 76
SWIDTH 451 0
DWIDTH 11 0
BBX 8 15 2 0
BITMAP
80
80
80
80
80
80
80
80
80
80
80
80
80
80
FF
ENDCHAR
STARTCHAR M
ENCODING 77
SWIDTH 696 0
DWIDTH 17 0
BBX 13 15 2 0
BITMAP
C018
C038
A038
A078
B058
9058
9898
8898
8918
8518
8718
8218
8018
8018
8018
ENDCHAR
STARTCHAR N
ENCODING 78
SWIDTH 579 0
DWIDTH 14 0
BBX 10 15 2 0
BITMAP
8040
C040
E040
A040
B040
9040
8840
8C40
8440
8240
8240
8140
81C0
80C0
8040
ENDCHAR
STARTCHAR O
ENCODING 79
SWIDTH 553 0
DWIDTH 13 0
BBX 9 15 2 0
BITMAP
7F00
C180
8080
8080
8080
8080
8080
8080
8080
8080
8080
8080
8080
C180
7F00
ENDCHAR
STARTCHAR P
ENCODING 80
SWIDTH 524 0
DWIDTH 13 0
BBX 9 15 2 0
BITMAP
FF00
8180
8080
8080
8080
8080
8080
8180
FF00
8000
8000
8000
8000
8000
8000
ENDCHAR
STARTCHAR Q
ENCODING 81
SWIDTH 556 0
DWIDTH 13 0
BBX 10 18 2 -3
BITMAP
7F00
C180
8080
80C0
80C0
80C0
80C0
80C0
80C0
80C0
80C0
80C0
8080
C180
7F00
0600
0200
0100
ENDCHAR
STARTCHAR R
ENCODING 82
SWIDTH 534 0
DWIDTH 13 0
BBX 9 15 2 0
BITMAP
FF00
8180
8080
8080
8080
8080
8080
8180
FF00
8600
8200
8300
8100
8180
8080
ENDCHAR
STARTCHAR S
ENCODING 83
SWIDTH 562 0
DWIDTH 13 0
BBX 10 15 2 0
BITMAP
7F00
C180
8080
80C0
8000
8000
6000
1E00
0380
0080
00C0
80C0
8080
C180
7F00
ENDCHAR
STARTCHAR T
ENCODING 84
SWIDTH 420 0
DWIDTH 10 0
BBX 10 15 0 0
BITMAP
FFC0
0C00
0C00
0C00
0C00
0C00
0C00
0C00
0C00
0C00
0C00
0C00
0C00
0C00
0C00
ENDCHAR
STARTCHAR U
ENCODING 85
SWIDTH 552 0
DWIDTH 13 0
BBX 9 15 2 0
BITMAP
8080
8080
8080
8080
8080
8080
8080
8080
8080
8080
8080
8080
8080
C180
7F00
ENDCHAR
STARTCHAR V
ENCODING 86
SWIDTH 500 0
DWIDTH 12 0
BBX 10 15 1 0
BITMAP
8040
8040
C0C0
4080
4080
6180
2100
2100
2100
1200
1200
1200
1E00
0C00
0C00
ENDCHAR
STARTCHAR W
ENCODING 87
SWIDTH 794 0
DWIDTH 19 0
BBX 17 15 1 0
BITMAP
808080
81C080
C14180
C14180
414100
422100
422100
622300
263200
241200
241200
341200
1C0E00
180C00
180C00
ENDCHAR
STARTCHAR X
ENCODING 88
SWIDTH 504 0
DWIDTH 12 0
BBX 10 15 1 0
BITMAP
C040
4080
6180
2100
1200
1A00
0C00
0C00
1E00
1200
3300
2100
4080
40C0
8040
ENDCHAR
STARTCHAR Y
ENCODING 89
SWIDTH 493 0
DWIDTH 12 0
BBX 10 15 1 0
BITMAP
8040
C0C0
4080
6180
2100
3300
1200
1C00
0C00
0C00
0C00
0C00
0C00
0C00
0C00
ENDCHAR
STARTCHAR Z
ENCODING 90
SWIDTH 482 0
DWIDTH 12 0
BBX 10 15 1 0
BITMAP
FF80
0080
0180
0300
0200
0600
0400
0800
1800
1000
3000
6000
4000
C000
FFC0
ENDCHAR
STARTCHAR bracketleft
ENCODING 91
SWIDTH 287 0
DWIDTH 7 0
BBX 3 18 2 -3
BITMAP
E0
80
80
80
80
80
80
80
80
80
80
80
80
80
80
80
80
E0
ENDCHAR
STARTCHAR backslash
ENCODING 92
SWIDTH 396 0
DWIDTH 10 0
BBX 7 15 1 0
BITMAP
C0
40
60
20
20
30
10
10
18
08
08
04
04
06
02
ENDCHAR
STARTCHAR bracketright
ENCODING 93
SWIDTH 287 0
DWIDTH 7 0
BBX 4 18 1 -3
BITMAP
F0
10
10
10
10
10
10
10
10
10
10
10
10
10
10
10
10
F0
ENDCHAR
STARTCHAR asciicircum
ENCODING 94
SWIDTH 465 0
DWIDTH 11 0
BBX 9 6 1 9
BITMAP
1C00
1400
3200
2200
6100
C180
ENDCHAR
STARTCHAR underscore
ENCODING 95
SWIDTH 372 0
DWIDTH 9 0
BBX 9 1 0 -2
BITMAP
FF80
ENDCHAR
STARTCHAR grave
ENCODING 96
SWIDTH 269 0
DWIDTH 6 0
BBX 3 3 2 14
BITMAP
80
40
20
ENDCHAR
STARTCHAR a
ENCODING 97
SWIDTH 502 0
DWIDTH 12 0
BBX 8 12 2 0
BITMAP
7F
C1
81
81
81
81
81
81
81
81
C3
7D
ENDCHAR
STARTCHAR b
ENCODING 98
SWIDTH 504 0
DWIDTH 12 0
BBX 9 17 2 0
BITMAP
8000
8000
8000
8000
8000
BE00
C300
8100
8180
8180
8180
8180
8180
8180
8100
8100
FE00
ENDCHAR
STARTCHAR c
ENCODING 99
SWIDTH 394 0
DWIDTH 9 0
BBX 7 12 2 0
BITMAP
7E
C0
80
80
80
80
80
80
80
80
C0
7E
ENDCHAR
STARTCHAR d
ENCODING 100
SWIDTH 504 0
DWIDTH 12 0
BBX 8 17 2 0
BITMAP
01
01
01
01
01
7D
C3
81
81
81
81
81
81
81
81
C3
7D
ENDCHAR
STARTCHAR e
ENCODING 101
SWIDTH 492 0
DWIDTH 12 0
BBX 8 12 2 0
BITMAP
7E
C3
81
81
81
81
FF
80
80
80
80
7F
ENDCHAR
STARTCHAR f
ENCODING 102
SWIDTH 303 0
DWIDTH 7 0
BBX 6 17 1 0
BITMAP
1C
30
20
20
20
FC
20
20
20
20
20
20
20
20
20
20
20
ENDCHAR
STARTCHAR g
ENCODING 103
SWIDTH 506 0
DWIDTH 12 0
BBX 8 15 2 -3
BITMAP
7F
C1
81
81
81
81
81
81
81
83
7F
01
01
03
FE
ENDCHAR
STARTCHAR h
ENCODING 104
SWIDTH 507 0
DWIDTH 12 0
BBX 8 17 2 0
BITMAP
80
80
80
80
80
BE
C3
81
81
81
81
81
81
81
81
81
81
ENDCHAR
STARTCHAR i
ENCODING 105
SWIDTH 210 0
DWIDTH 5 0
BBX 1 17 2 0
BITMAP
80
80
80
00
00
80
80
80
80
80
80
80
80
80
80
80
80
ENDCHAR
STARTCHAR j
ENCODING 106
SWIDTH 210 0
DWIDTH 5 0
BBX 4 20 -1 -3
BITMAP
10
10
10
00
00
10
10
10
10
10
10
10
10
10
10
10
10
10
30
E0
ENDCHAR
STARTCHAR k
ENCODING 107
SWIDTH 431 0
DWIDTH 10 0
BBX 8 17 2 0
BITMAP
80
80
80
80
80
83
86
84
88
98
90
90
88
8C
84
82
83
ENDCHAR
STARTCHAR l
ENCODING 108
SWIDTH 210 0
DWIDTH 5 0
BBX 1 17 2 0
BITMAP
80
80
80
80
80
80
80
80
80
80
80
80
80
80
80
80
80
ENDCHAR
STARTCHAR m
ENCODING 109
SWIDTH 769 0
DWIDTH 18 0
BBX 15 12 2 0
BITMAP
BC78
C284
8106
8102
8102
8102
8102
8102
8102
8102
8102
8102
ENDCHAR
STARTCHAR n
ENCODING 110
SWIDTH 507 0
DWIDTH 12 0
BBX 8 12 2 0
BITMAP
BE
C3
81
81
81
81
81
81
81
81
81
81
ENDCHAR
STARTCHAR o
ENCODING 111
SWIDTH 496 0
DWIDTH 12 0
BBX 8 12 2 0
BITMAP
7E
C3
81
81
81
81
81
81
81
81
C3
7E
ENDCHAR
STARTCHAR p
ENCODING 112
SWIDTH 504 0
DWIDTH 12 0
BBX 9 15 2 -3
BITMAP
BE00
C300
8100
8180
8180
8180
8180
8180
8180
8100
C300
BE00
8000
8000
8000
ENDCHAR
STARTCHAR q
ENCODING 113
SWIDTH 502 0
DWIDTH 12 0
BBX 8 15 2 -3
BITMAP
7F
C1
81
81
81
81
81
81
81
81
C3
7D
01
01
01
ENDCHAR
STARTCHAR r
ENCODING 114
SWIDTH 313 0
DWIDTH 8 0
BBX 5 12 2 0
BITMAP
B8
C0
80
80
80
80
80
80
80
80
80
80
ENDCHAR
STARTCHAR s
ENCODING 115
SWIDTH 431 0
DWIDTH 10 0
BBX 8 12 1 0
BITMAP
7E
C0
80
C0
60
38
06
03
01
01
03
FE
ENDCHAR
STARTCHAR t
ENCODING 116
SWIDTH 347 0
DWIDTH 8 0
BBX 6 15 1 0
BITMAP
20
20
20
FC
20
20
20
20
20
20
20
20
20
30
1C
ENDCHAR
STARTCHAR u
ENCODING 117
SWIDTH 507 0
DWIDTH 12 0
BBX 8 12 2 0
BITMAP
81
81
81
81
81
81
81
81
81
81
C3
7D
ENDCHAR
STARTCHAR v
ENCODING 118
SWIDTH 416 0
DWIDTH 10 0
BBX 10 12 0 0
BITMAP
C0C0
4080
4080
6100
2100
2100
3300
1200
1200
1E00
0C00
0C00
ENDCHAR
STARTCHAR w
ENCODING 119
SWIDTH 683 0
DWIDTH 16 0
BBX 16 12 0 0
BITMAP
C181
4183
4182
6142
2246
2244
3264
1224
1428
1428
1C18
0C18
ENDCHAR
STARTCHAR x
ENCODING 120
SWIDTH 413 0
DWIDTH 10 0
BBX 8 12 1 0
BITMAP
83
42
46
24
3C
18
18
2C
24
42
C3
81
ENDCHAR
STARTCHAR y
ENCODING 121
SWIDTH 459 0
DWIDTH 11 0
BBX 9 15 1 -3
BITMAP
8080
8080
4180
4100
4100
2200
2200
3600
1400
1400
1C00
0800
0800
1000
E000
ENDCHAR
STARTCHAR z
ENCODING 122
SWIDTH 405 0
DWIDTH 10 0
BBX 8 12 1 0
BITMAP
FF
02
06
04
0C
18
10
30
60
40
C0
FF
ENDCHAR
STARTCHAR braceleft
ENCODING 123
SWIDTH 298 0
DWIDTH 7 0
BBX 5 18 1 -3
BITMAP
18
20
20
20
20
20
20
60
C0
40
20
20
20
20
20
20
20
18
ENDCHAR
STARTCHAR bar
ENCODING 124
SWIDTH 207 0
DWIDTH 5 0
BBX 1 15 2 0
BITMAP
80
80
80
80
80
80
80
80
80
80
80
80
80
80
80
ENDCHAR
STARTCHAR braceright
ENCODING 125
SWIDTH 298 0
DWIDTH 7 0
BBX 5 18 1 -3
BITMAP
C0
60
20
20
20
20
20
20
18
30
20
20
20
20
20
20
60
C0
ENDCHAR
STARTCHAR asciitilde
ENCODING 126
SWIDTH 523 0
DWIDTH 13 0
BBX 9 1 2 7
BITMAP
FF80
ENDCHAR
STARTCHAR uni00A0
ENCODING 160
SWIDTH 267 0
DWIDTH 6 0
BBX 1 1 0 0
BITMAP
00
ENDCHAR
STARTCHAR exclamdown
ENCODING 161
SWIDTH 237 0
DWIDTH 6 0
BBX 2 15 2 0
BITMAP
80
80
80
00
00
80
80
80
80
80
C0
C0
C0
C0
C0
ENDCHAR
STARTCHAR cent
ENCODING 162
SWIDTH 414 0
DWIDTH 10 0
BBX 7 17 2 -2
BITMAP
08
08
08
7E
C0
80
80
80
80
80
80
80
80
C0
7E
08
08
ENDCHAR
STARTCHAR sterling
ENCODING 163
SWIDTH 528 0
DWIDTH 13 0
BBX 10 15 1 0
BITMAP
1F80
30C0
2040
2040
2000
2000
2000
FE00
2000
2000
2000
2000
2000
6000
FFC0
ENDCHAR
STARTCHAR yen
ENCODING 165
SWIDTH 499 0
DWIDTH 12 0
BBX 10 15 1 0
BITMAP
8040
C0C0
4080
6180
2100
3300
1200
FFC0
0C00
0C00
FFC0
0C00
0C00
0C00
0C00
ENDCHAR
STARTCHAR brokenbar
ENCODING 166
SWIDTH 201 0
DWIDTH 5 0
BBX 1 15 2 0
BITMAP
80
80
80
80
80
80
00
00
00
80
80
80
80
80
80
ENDCHAR
STARTCHAR section
ENCODING 167
SWIDTH 454 0
DWIDTH 11 0
BBX 8 15 1 0
BITMAP
3F
40
C0
C0
C0
FE
C3
C1
41
3F
03
01
01
01
7E
ENDCHAR
STARTCHAR dieresis
ENCODING 168
SWIDTH 345 0
DWIDTH 8 0
BBX 5 3 2 14
BITMAP
88
88
88
ENDCHAR
STARTCHAR copyright
ENCODING 169
SWIDTH 723 0
DWIDTH 17 0
BBX 14 15 2 0
BITMAP
7FF0
C008
8004
8F84
88C4
9044
9004
9004
9004
9044
8844
8784
8004
C008
7FF0
ENDCHAR
STARTCHAR guillemotleft
ENCODING 171
SWIDTH 431 0
DWIDTH 10 0
BBX 7 8 2 2
BITMAP
12
24
48
90
90
48
24
12
ENDCHAR
STARTCHAR registered
ENCODING 174
SWIDTH 439 0
DWIDTH 11 0
BBX 7 8 2 9
BITMAP
7C
82
BA
AA
BA
AA
82
FC
ENDCHAR
STARTCHAR macron
ENCODING 175
SWIDTH 358 0
DWIDTH 9 0
BBX 5 1 2 14
BITMAP
F8
ENDCHAR
STARTCHAR degree
ENCODING 176
SWIDTH 298 0
DWIDTH 7 0
BBX 3 5 2 12
BITMAP
E0
A0
A0
A0
E0
ENDCHAR
STARTCHAR plusminus
ENCODING 177
SWIDTH 523 0
DWIDTH 13 0
BBX 9 9 2 3
BITMAP
0800
0800
0800
FF80
0800
0800
0800
0000
FF80
ENDCHAR
STARTCHAR acute
ENCODING 180
SWIDTH 269 0
DWIDTH 6 0
BBX 3 3 2 14
BITMAP
60
C0
80
ENDCHAR
STARTCHAR paragraph
ENCODING 182
SWIDTH 513 0
DWIDTH 12 0
BBX 9 15 1 0
BITMAP
7F80
F080
F080
F080
F080
F080
7080
1080
1080
1080
1080
1080
1080
1080
1080
ENDCHAR
STARTCHAR periodcentered
ENCODING 183
SWIDTH 207 0
DWIDTH 5 0
BBX 1 3 2 6
BITMAP
80
80
80
ENDCHAR
STARTCHAR cedilla
ENCODING 184
SWIDTH 257 0
DWIDTH 6 0
BBX 3 5 2 -4
BITMAP
40
80
C0
20
C0
ENDCHAR
STARTCHAR guillemotright
ENCODING 187
SWIDTH 431 0
DWIDTH 10 0
BBX 7 8 2 2
BITMAP
90
98
4C
22
26
4C
98
90
ENDCHAR
STARTCHAR questiondown
ENCODING 191
SWIDTH 473 0
DWIDTH 11 0
BBX 8 15 2 0
BITMAP
10
10
10
00
00
10
10
30
60
C0
81
83
83
C2
7C
ENDCHAR
STARTCHAR Agrave
ENCODING 192
SWIDTH 532 0
DWIDTH 13 0
BBX 11 20 1 0
BITMAP
3000
1800
0800
0400
0000
0C00
0E00
0A00
1A00
1300
1100
3100
2180
2080
6080
7FC0
4040
C040
8060
8020
ENDCHAR
STARTCHAR Aacute
ENCODING 193
SWIDTH 532 0
DWIDTH 13 0
BBX 11 20 1 0
BITMAP
0100
0300
0200
0400
0000
0C00
0E00
0A00
1A00
1300
1100
3100
2180
2080
6080
7FC0
4040
C040
8060
8020
ENDCHAR
STARTCHAR Acircumflex
ENCODING 194
SWIDTH 532 0
DWIDTH 13 0
BBX 11 20 1 0
BITMAP
0400
0A00
0A00
1100
0000
0C00
0E00
0A00
1A00
1300
1100
3100
2180
2080
6080
7FC0
4040
C040
8060
8020
ENDCHAR
STARTCHAR Atilde
ENCODING 195
SWIDTH 532 0
DWIDTH 13 0
BBX 11 20 1 0
BITMAP
1300
1500
1500
1900
0000
0C00
0E00
0A00
1A00
1300
1100
3100
2180
2080
6080
7FC0
4040
C040
8060
8020
ENDCHAR
STARTCHAR Adieresis
ENCODING 196
SWIDTH 532 0
DWIDTH 13 0
BBX 11 20 1 0
BITMAP
1100
1100
1100
0000
0000
0C00
0E00
0A00
1A00
1300
1100
3100
2180
2080
6080
7FC0
4040
C040
8060
8020
ENDCHAR
STARTCHAR Aring
ENCODING 197
SWIDTH 532 0
DWIDTH 13 0
BBX 11 21 1 0
BITMAP
0E00
1200
1200
1200
0E00
0000
0C00
0E00
0A00
1A00
1300
1100
3100
2180
2080
6080
7FC0
4040
C040
8060
8020
ENDCHAR
STARTCHAR AE
ENCODING 198
SWIDTH 773 0
DWIDTH 19 0
BBX 17 15 0 0
BITMAP
00FF80
01C000
014000
034000
024000
064000
044000
0C7F00
084000
104000
3FC000
204000
604000
404000
C07F80
ENDCHAR
STARTCHAR Ccedilla
ENCODING 199
SWIDTH 542 0
DWIDTH 13 0
BBX 10 19 2 -4
BITMAP
7F00
C180
8080
80C0
80C0
8000
8000
8000
8000
8000
80C0
80C0
8080
C180
7F00
0800
1C00
0200
0C00
ENDCHAR
STARTCHAR Egrave
ENCODING 200
SWIDTH 481 0
DWIDTH 12 0
BBX 8 20 2 0
BITMAP
60
30
10
08
00
FF
80
80
80
80
80
80
FE
80
80
80
80
80
80
FF
ENDCHAR
STARTCHAR Eacute
ENCODING 201
SWIDTH 481 0
DWIDTH 12 0
BBX 8 20 2 0
BITMAP
06
0C
08
10
00
FF
80
80
80
80
80
80
FE
80
80
80
80
80
80
FF
ENDCHAR
STARTCHAR Ecircumflex
ENCODING 202
SWIDTH 481 0
DWIDTH 12 0
BBX 8 20 2 0
BITMAP
10
18
24
24
00
FF
80
80
80
80
80
80
FE
80
80
80
80
80
80
FF
ENDCHAR
STARTCHAR Edieresis
ENCODING 203
SWIDTH 481 0
DWIDTH 12 0
BBX 8 20 2 0
BITMAP
66
66
66
00
00
FF
80
80
80
80
80
80
FE
80
80
80
80
80
80
FF
ENDCHAR
STARTCHAR Igrave
ENCODING 204
SWIDTH 230 0
DWIDTH 6 0
BBX 3 20 0 0
BITMAP
80
40
60
20
00
20
20
20
20
20
20
20
20
20
20
20
20
20
20
20
ENDCHAR
STARTCHAR Iacute
ENCODING 205
SWIDTH 231 0
DWIDTH 6 0
BBX 4 20 2 0
BITMAP
30
60
40
80
00
80
80
80
80
80
80
80
80
80
80
80
80
80
80
80
ENDCHAR
STARTCHAR Icircumflex
ENCODING 206
SWIDTH 229 0
DWIDTH 6 0
BBX 5 20 0 0
BITMAP
20
30
48
88
00
20
20
20
20
20
20
20
20
20
20
20
20
20
20
20
ENDCHAR
STARTCHAR Idieresis
ENCODING 207
SWIDTH 230 0
DWIDTH 6 0
BBX 5 20 0 0
BITMAP
88
88
88
00
00
20
20
20
20
20
20
20
20
20
20
20
20
20
20
20
ENDCHAR
STARTCHAR Eth
ENCODING 208
SWIDTH 514 0
DWIDTH 12 0
BBX 11 15 1 0
BITMAP
7F80
4040
4060
4060
4060
4060
4060
FC60
4060
4060
4060
4060
4060
4040
7F80
ENDCHAR
STARTCHAR Ntilde
ENCODING 209
SWIDTH 579 0
DWIDTH 14 0
BBX 10 20 2 0
BITMAP
2600
2500
2900
1900
0000
8040
C040
E040
A040
B040
9040
8840
8C40
8440
8240
8240
8140
81C0
80C0
8040
ENDCHAR
STARTCHAR Ograve
ENCODING 210
SWIDTH 553 0
DWIDTH 13 0
BBX 9 20 2 0
BITMAP
2000
1000
1800
0800
0000
7F00
C180
8080
8080
8080
8080
8080
8080
8080
8080
8080
8080
8080
C180
7F00
ENDCHAR
STARTCHAR Oacute
ENCODING 211
SWIDTH 553 0
DWIDTH 13 0
BBX 9 20 2 0
BITMAP
0200
0600
0400
0800
0000
7F00
C180
8080
8080
8080
8080
8080
8080
8080
8080
8080
8080
8080
C180
7F00
ENDCHAR
STARTCHAR Ocircumflex
ENCODING 212
SWIDTH 553 0
DWIDTH 13 0
BBX 9 20 2 0
BITMAP
0800
1400
1400
2200
0000
7F00
C180
8080
8080
8080
8080
8080
8080
8080
8080
8080
8080
8080
C180
7F00
ENDCHAR
STARTCHAR Otilde
ENCODING 213
SWIDTH 553 0
DWIDTH 13 0
BBX 9 20 2 0
BITMAP
2600
2A00
2A00
3A00
0000
7F00
C180
8080
8080
8080
8080
8080
8080
8080
8080
8080
8080
8080
C180
7F00
ENDCHAR
STARTCHAR Odieresis
ENCODING 214
SWIDTH 553 0
DWIDTH 13 0
BBX 9 20 2 0
BITMAP
2200
2200
2200
0000
0000
7F00
C180
8080
8080
8080
8080
8080
8080
8080
8080
8080
8080
8080
C180
7F00
ENDCHAR
STARTCHAR multiply
ENCODING 215
SWIDTH 493 0
DWIDTH 12 0
BBX 8 7 2 4
BITMAP
C3
66
3C
18
3C
66
C3
ENDCHAR
STARTCHAR Oslash
ENCODING 216
SWIDTH 559 0
DWIDTH 13 0
BBX 11 15 1 0
BITMAP
3FA0
6060
4040
40E0
41E0
4160
4260
4460
4C60
4860
5060
6060
6040
6040
BF80
ENDCHAR
STARTCHAR Ugrave
ENCODING 217
SWIDTH 552 0
DWIDTH 13 0
BBX 9 20 2 0
BITMAP
2000
1000
0800
0800
0000
8080
8080
8080
8080
8080
8080
8080
8080
8080
8080
8080
8080
8080
C180
7F00
ENDCHAR
STARTCHAR Uacute
ENCODING 218
SWIDTH 552 0
DWIDTH 13 0
BBX 9 20 2 0
BITMAP
0200
0600
0400
0800
0000
8080
8080
8080
8080
8080
8080
8080
8080
8080
8080
8080
8080
8080
C180
7F00
ENDCHAR
STARTCHAR Ucircumflex
ENCODING 219
SWIDTH 552 0
DWIDTH 13 0
BBX 9 20 2 0
BITMAP
0800
1400
1400
2200
0000
8080
8080
8080
8080
8080
8080
8080
8080
8080
8080
8080
8080
8080
C180
7F00
ENDCHAR
STARTCHAR Udieresis
ENCODING 220
SWIDTH 552 0
DWIDTH 13 0
BBX 9 20 2 0
BITMAP
2200
2200
2200
0000
0000
8080
8080
8080
8080
8080
8080
8080
8080
8080
8080
8080
8080
8080
C180
7F00
ENDCHAR
STARTCHAR Yacute
ENCODING 221
SWIDTH 493 0
DWIDTH 12 0
BBX 10 20 1 0
BITMAP
0300
0600
0400
0800
0000
8040
C0C0
4080
6180
2100
3300
1200
1C00
0C00
0C00
0C00
0C00
0C00
0C00
0C00
ENDCHAR
STARTCHAR Thorn
ENCODING 222
SWIDTH 501 0
DWIDTH 12 0
BBX 7 15 3 0
BITMAP
80
80
80
FC
86
82
82
82
82
82
86
FC
80
80
80
ENDCHAR
STARTCHAR germandbls
ENCODING 223
SWIDTH 540 0
DWIDTH 13 0
BBX 9 15 2 0
BITMAP
7F00
C180
8080
8080
8080
8080
8180
8E00
8180
8080
8080
8080
8080
8180
9F00
ENDCHAR
STARTCHAR agrave
ENCODING 224
SWIDTH 502 0
DWIDTH 12 0
BBX 8 17 2 0
BITMAP
30
10
08
00
00
7F
C1
81
81
81
81
81
81
81
81
C3
7D
ENDCHAR
STARTCHAR aacute
ENCODING 225
SWIDTH 502 0
DWIDTH 12 0
BBX 8 17 2 0
BITMAP
06
04
08
00
00
7F
C1
81
81
81
81
81
81
81
81
C3
7D
ENDCHAR
STARTCHAR acircumflex
ENCODING 226
SWIDTH 502 0
DWIDTH 12 0
BBX 8 17 2 0
BITMAP
18
14
24
02
00
7F
C1
81
81
81
81
81
81
81
81
C3
7D
ENDCHAR
STARTCHAR atilde
ENCODING 227
SWIDTH 504 0
DWIDTH 12 0
BBX 8 17 2 0
BITMAP
26
2A
2A
32
00
7F
C1
81
81
81
81
81
81
81
81
C3
7D
ENDCHAR
STARTCHAR adieresis
ENCODING 228
SWIDTH 502 0
DWIDTH 12 0
BBX 8 17 2 0
BITMAP
22
22
22
00
00
7F
C1
81
81
81
81
81
81
81
81
C3
7D
ENDCHAR
STARTCHAR aring
ENCODING 229
SWIDTH 502 0
DWIDTH 12 0
BBX 8 17 2 0
BITMAP
1C
24
24
3C
00
7F
C1
81
81
81
81
81
81
81
81
C3
7D
ENDCHAR
STARTCHAR ae
ENCODING 230
SWIDTH 795 0
DWIDTH 19 0
BBX 16 12 2 0
BITMAP
7E7C
0382
0102
0103
0103
7F03
81FF
8100
8100
8100
8380
7EFF
ENDCHAR
STARTCHAR ccedilla
ENCODING 231
SWIDTH 394 0
DWIDTH 9 0
BBX 7 16 2 -4
BITMAP
7E
C0
80
80
80
80
80
80
80
80
C0
7E
10
18
04
18
ENDCHAR
STARTCHAR egrave
ENCODING 232
SWIDTH 492 0
DWIDTH 12 0
BBX 8 17 2 0
BITMAP
60
30
10
08
00
7E
C3
81
81
81
81
FF
80
80
80
80
7F
ENDCHAR
STARTCHAR eacute
ENCODING 233
SWIDTH 492 0
DWIDTH 12 0
BBX 8 17 2 0
BITMAP
04
08
18
00
00
7E
C3
81
81
81
81
FF
80
80
80
80
7F
ENDCHAR
STARTCHAR ecircumflex
ENCODING 234
SWIDTH 492 0
DWIDTH 12 0
BBX 8 17 2 0
BITMAP
18
18
24
00
00
7E
C3
81
81
81
81
FF
80
80
80
80
7F
ENDCHAR
STARTCHAR edieresis
ENCODING 235
SWIDTH 492 0
DWIDTH 12 0
BBX 8 17 2 0
BITMAP
66
66
66
00
00
7E
C3
81
81
81
81
FF
80
80
80
80
7F
ENDCHAR
STARTCHAR igrave
ENCODING 236
SWIDTH 210 0
DWIDTH 5 0
BBX 3 17 0 0
BITMAP
80
40
60
00
00
20
20
20
20
20
20
20
20
20
20
20
20
ENDCHAR
STARTCHAR iacute
ENCODING 237
SWIDTH 208 0
DWIDTH 5 0
BBX 3 17 2 0
BITMAP
20
40
C0
00
00
80
80
80
80
80
80
80
80
80
80
80
80
ENDCHAR
STARTCHAR icircumflex
ENCODING 238
SWIDTH 210 0
DWIDTH 5 0
BBX 5 17 0 0
BITMAP
20
50
D8
00
00
20
20
20
20
20
20
20
20
20
20
20
20
ENDCHAR
STARTCHAR idieresis
ENCODING 239
SWIDTH 210 0
DWIDTH 5 0
BBX 5 17 0 0
BITMAP
88
88
88
00
00
20
20
20
20
20
20
20
20
20
20
20
20
ENDCHAR
STARTCHAR eth
ENCODING 240
SWIDTH 488 0
DWIDTH 12 0
BBX 8 17 2 0
BITMAP
42
26
18
18
24
46
03
7D
C3
81
81
81
81
81
81
C3
7E
ENDCHAR
STARTCHAR ntilde
ENCODING 241
SWIDTH 507 0
DWIDTH 12 0
BBX 8 17 2 0
BITMAP
4C
4A
32
00
00
BE
C3
81
81
81
81
81
81
81
81
81
81
ENDCHAR
STARTCHAR ograve
ENCODING 242
SWIDTH 496 0
DWIDTH 12 0
BBX 8 17 2 0
BITMAP
60
30
10
00
00
7E
C3
81
81
81
81
81
81
81
81
C3
7E
ENDCHAR
STARTCHAR oacute
ENCODING 243
SWIDTH 496 0
DWIDTH 12 0
BBX 8 17 2 0
BITMAP
06
0C
08
10
00
7E
C3
81
81
81
81
81
81
81
81
C3
7E
ENDCHAR
STARTCHAR ocircumflex
ENCODING 244
SWIDTH 496 0
DWIDTH 12 0
BBX 8 17 2 0
BITMAP
18
18
24
00
00
7E
C3
81
81
81
81
81
81
81
81
C3
7E
ENDCHAR
STARTCHAR otilde
ENCODING 245
SWIDTH 496 0
DWIDTH 12 0
BBX 8 17 2 0
BITMAP
4C
52
32
00
00
7E
C3
81
81
81
81
81
81
81
81
C3
7E
ENDCHAR
STARTCHAR odieresis
ENCODING 246
SWIDTH 496 0
DWIDTH 12 0
BBX 8 17 2 0
BITMAP
66
66
66
00
00
7E
C3
81
81
81
81
81
81
81
81
C3
7E
ENDCHAR
STARTCHAR divide
ENCODING 247
SWIDTH 510 0
DWIDTH 12 0
BBX 8 9 2 3
BITMAP
08
08
00
00
FF
00
00
08
08
ENDCHAR
STARTCHAR oslash
ENCODING 248
SWIDTH 521 0
DWIDTH 13 0
BBX 11 12 1 0
BITMAP
3F00
60E0
40C0
41C0
43C0
44C0
48C0
50C0
60C0
40C0
E080
BF00
ENDCHAR
STARTCHAR ugrave
ENCODING 249
SWIDTH 507 0
DWIDTH 12 0
BBX 8 17 2 0
BITMAP
60
30
10
08
00
81
81
81
81
81
81
81
81
81
81
C3
7D
ENDCHAR
STARTCHAR uacute
ENCODING 250
SWIDTH 507 0
DWIDTH 12 0
BBX 8 17 2 0
BITMAP
06
0C
08
00
00
81
81
81
81
81
81
81
81
81
81
C3
7D
ENDCHAR
STARTCHAR ucircumflex
ENCODING 251
SWIDTH 507 0
DWIDTH 12 0
BBX 8 17 2 0
BITMAP
18
18
24
00
00
81
81
81
81
81
81
81
81
81
81
C3
7D
ENDCHAR
STARTCHAR udieresis
ENCODING 252
SWIDTH 507 0
DWIDTH 12 0
BBX 8 17 2 0
BITMAP
66
66
66
00
00
81
81
81
81
81
81
81
81
81
81
C3
7D
ENDCHAR
STARTCHAR yacute
ENCODING 253
SWIDTH 459 0
DWIDTH 11 0
BBX 9 20 1 -3
BITMAP
0200
0400
0C00
0000
0000
8080
8080
4180
4100
4100
2200
2200
3600
1400
1400
1C00
0800
0800
1000
E000
ENDCHAR
STARTCHAR thorn
ENCODING 254
SWIDTH 508 0
DWIDTH 12 0
BBX 9 20 2 -3
BITMAP
8000
8000
8000
8000
8000
BE00
C100
8180
8180
8180
8180
8180
8180
8180
8180
C100
BE00
8000
8000
8000
ENDCHAR
STARTCHAR ydieresis
ENCODING 255
SWIDTH 459 0
DWIDTH 11 0
BBX 9 20 1 -3
BITMAP
2200
2200
2200
0000
0000
8080
8080
4180
4100
4100
2200
2200
3600
1400
1400
1C00
0800
0800
1000
E000
ENDCHAR
STARTCHAR Amacron
ENCODING 256
SWIDTH 532 0
DWIDTH 13 0
BBX 11 19 1 0
BITMAP
1F00
0000
0000
0000
0C00
0E00
0A00
1A00
1300
1100
3100
2180
2080
6080
7FC0
4040
C040
8060
8020
ENDCHAR
STARTCHAR amacron
ENCODING 257
SWIDTH 502 0
DWIDTH 12 0
BBX 8 15 2 0
BITMAP
3E
00
00
7F
C1
81
81
81
81
81
81
81
81
C3
7D
ENDCHAR
STARTCHAR Abreve
ENCODING 258
SWIDTH 532 0
DWIDTH 13 0
BBX 11 20 1 0
BITMAP
1100
1100
0E00
0000
0000
0C00
0E00
0A00
1A00
1300
1100
3100
2180
2080
6080
7FC0
4040
C040
8060
8020
ENDCHAR
STARTCHAR abreve
ENCODING 259
SWIDTH 502 0
DWIDTH 12 0
BBX 8 17 2 0
BITMAP
22
22
22
1C
00
7F
C1
81
81
81
81
81
81
81
81
C3
7D
ENDCHAR
STARTCHAR Aogonek
ENCODING 260
SWIDTH 532 0
DWIDTH 13 0
BBX 11 17 1 -2
BITMAP
0C00
0E00
0A00
1A00
1300
1100
3100
2180
2080
6080
7FC0
4040
C040
8060
8020
0040
00E0
ENDCHAR
STARTCHAR aogonek
ENCODING 261
SWIDTH 502 0
DWIDTH 12 0
BBX 8 15 2 -3
BITMAP
7F
C1
81
81
81
81
81
81
81
81
C3
7D
02
02
07
ENDCHAR
STARTCHAR Cacute
ENCODING 262
SWIDTH 542 0
DWIDTH 13 0
BBX 10 20 2 0
BITMAP
0200
0600
0400
0800
0000
7F00
C180
8080
80C0
80C0
8000
8000
8000
8000
8000
80C0
80C0
8080
C180
7F00
ENDCHAR
STARTCHAR cacute
ENCODING 263
SWIDTH 394 0
DWIDTH 9 0
BBX 7 17 2 0
BITMAP
0C
08
10
00
00
7E
C0
80
80
80
80
80
80
80
80
C0
7E
ENDCHAR
STARTCHAR Cdotaccent
ENCODING 266
SWIDTH 542 0
DWIDTH 13 0
BBX 10 20 2 0
BITMAP
0800
0800
0800
0000
0000
7F00
C180
8080
80C0
80C0
8000
8000
8000
8000
8000
80C0
80C0
8080
C180
7F00
ENDCHAR
STARTCHAR cdotaccent
ENCODING 267
SWIDTH 394 0
DWIDTH 9 0
BBX 7 17 2 0
BITMAP
10
10
10
00
00
7E
C0
80
80
80
80
80
80
80
80
C0
7E
ENDCHAR
STARTCHAR Ccaron
ENCODING 268
SWIDTH 542 0
DWIDTH 13 0
BBX 10 20 2 0
BITMAP
2200
1600
1400
0800
0000
7F00
C180
8080
80C0
80C0
8000
8000
8000
8000
8000
80C0
80C0
8080
C180
7F00
ENDCHAR
STARTCHAR ccaron
ENCODING 269
SWIDTH 394 0
DWIDTH 9 0
BBX 7 17 2 0
BITMAP
64
28
18
00
00
7E
C0
80
80
80
80
80
80
80
80
C0
7E
ENDCHAR
STARTCHAR Dcaron
ENCODING 270
SWIDTH 557 0
DWIDTH 13 0
BBX 10 20 2 0
BITMAP
2200
1400
1400
0800
0000
FF00
8080
8080
80C0
80C0
80C0
80C0
80C0
80C0
80C0
80C0
80C0
8080
8080
FF00
ENDCHAR
STARTCHAR dcaron
ENCODING 271
SWIDTH 534 0
DWIDTH 13 0
BBX 11 17 2 0
BITMAP
0120
0120
0120
0120
0120
7D40
C300
8100
8100
8100
8100
8100
8100
8100
8100
C300
7D00
ENDCHAR
STARTCHAR Dcroat
ENCODING 272
SWIDTH 514 0
DWIDTH 12 0
BBX 11 15 1 0
BITMAP
7F80
4040
4060
4060
4060
4060
FC60
4060
4060
4060
4060
4060
4060
4040
7F80
ENDCHAR
STARTCHAR dcroat
ENCODING 273
SWIDTH 539 0
DWIDTH 13 0
BBX 10 17 2 0
BITMAP
0100
0100
0100
1FC0
0100
0100
7D00
C300
8100
8100
8100
8100
8100
8100
8100
C300
7D00
ENDCHAR
STARTCHAR Emacron
ENCODING 274
SWIDTH 481 0
DWIDTH 12 0
BBX 8 19 2 0
BITMAP
7E
00
00
00
FF
80
80
80
80
80
80
FE
80
80
80
80
80
80
FF
ENDCHAR
STARTCHAR emacron
ENCODING 275
SWIDTH 492 0
DWIDTH 12 0
BBX 8 15 2 0
BITMAP
7E
00
00
7E
C3
81
81
81
81
FF
80
80
80
80
7F
ENDCHAR
STARTCHAR Ebreve
ENCODING 276
SWIDTH 481 0
DWIDTH 12 0
BBX 8 20 2 0
BITMAP
44
24
3C
00
00
FF
80
80
80
80
80
80
FE
80
80
80
80
80
80
FF
ENDCHAR
STARTCHAR ebreve
ENCODING 277
SWIDTH 492 0
DWIDTH 12 0
BBX 8 17 2 0
BITMAP
44
44
24
38
00
7E
C3
81
81
81
81
FF
80
80
80
80
7F
ENDCHAR
STARTCHAR Edotaccent
ENCODING 278
SWIDTH 496 0
DWIDTH 12 0
BBX 8 20 2 0
BITMAP
18
18
18
00
00
FF
80
80
80
80
80
80
FE
80
80
80
80
80
80
FF
ENDCHAR
STARTCHAR edotaccent
ENCODING 279
SWIDTH 492 0
DWIDTH 12 0
BBX 8 17 2 0
BITMAP
18
18
18
00
00
7E
C3
81
81
81
81
FF
80
80
80
80
7F
ENDCHAR
STARTCHAR Eogonek
ENCODING 280
SWIDTH 481 0
DWIDTH 12 0
BBX 8 17 2 -2
BITMAP
FF
80
80
80
80
80
80
FE
80
80
80
80
80
80
FF
04
0E
ENDCHAR
STARTCHAR eogonek
ENCODING 281
SWIDTH 492 0
DWIDTH 12 0
BBX 8 15 2 -3
BITMAP
7E
C3
81
81
81
81
FF
80
80
80
80
7F
04
04
0E
ENDCHAR
STARTCHAR Ecaron
ENCODING 282
SWIDTH 481 0
DWIDTH 12 0
BBX 8 20 2 0
BITMAP
24
24
18
08
00
FF
80
80
80
80
80
80
FE
80
80
80
80
80
80
FF
ENDCHAR
STARTCHAR ecaron
ENCODING 283
SWIDTH 492 0
DWIDTH 12 0
BBX 8 17 2 0
BITMAP
24
24
18
00
00
7E
C3
81
81
81
81
FF
80
80
80
80
7F
ENDCHAR
STARTCHAR Gcircumflex
ENCODING 284
SWIDTH 539 0
DWIDTH 13 0
BBX 9 20 2 0
BITMAP
0800
1400
1400
2200
0000
7F00
C180
8080
8080
8080
8000
8000
8780
8080
8080
8080
8080
8080
C180
7F00
ENDCHAR
STARTCHAR gcircumflex
ENCODING 285
SWIDTH 506 0
DWIDTH 12 0
BBX 8 20 2 -3
BITMAP
08
14
24
02
00
7F
C1
81
81
81
81
81
81
81
83
7F
01
01
03
FE
ENDCHAR
STARTCHAR Gbreve
ENCODING 286
SWIDTH 539 0
DWIDTH 13 0
BBX 9 20 2 0
BITMAP
2200
2200
1C00
0000
0000
7F00
C180
8080
8080
8080
8000
8000
8780
8080
8080
8080
8080
8080
C180
7F00
ENDCHAR
STARTCHAR gbreve
ENCODING 287
SWIDTH 506 0
DWIDTH 12 0
BBX 8 20 2 -3
BITMAP
22
22
1C
00
00
7F
C1
81
81
81
81
81
81
81
83
7F
01
01
03
FE
ENDCHAR
STARTCHAR Gdotaccent
ENCODING 288
SWIDTH 539 0
DWIDTH 13 0
BBX 9 20 2 0
BITMAP
0800
0800
0800
0000
0000
7F00
C180
8080
8080
8080
8000
8000
8780
8080
8080
8080
8080
8080
C180
7F00
ENDCHAR
STARTCHAR gdotaccent
ENCODING 289
SWIDTH 506 0
DWIDTH 12 0
BBX 8 20 2 -3
BITMAP
08
08
08
00
00
7F
C1
81
81
81
81
81
81
81
83
7F
01
01
03
FE
ENDCHAR
STARTCHAR uni0122
ENCODING 290
SWIDTH 539 0
DWIDTH 13 0
BBX 9 21 2 -6
BITMAP
7F00
C180
8080
8080
8080
8000
8000
8780
8080
8080
8080
8080
8080
C180
7F00
0000
0C00
0C00
0800
0800
0800
ENDCHAR
STARTCHAR uni0123
ENCODING 291
SWIDTH 506 0
DWIDTH 12 0
BBX 8 22 2 -3
BITMAP
08
08
08
08
08
00
00
7F
C1
81
81
81
81
81
81
81
83
7F
01
01
03
FE
ENDCHAR
STARTCHAR hcircumflex
ENCODING 293
SWIDTH 507 0
DWIDTH 12 0
BBX 8 18 2 0
BITMAP
0C
94
A2
80
80
80
BE
C3
81
81
81
81
81
81
81
81
81
81
ENDCHAR
STARTCHAR Hbar
ENCODING 294
SWIDTH 523 0
DWIDTH 13 0
BBX 12 15 1 0
BITMAP
4020
4020
4020
FFF0
4020
4020
4020
7FE0
4020
4020
4020
4020
4020
4020
4020
ENDCHAR
STARTCHAR hbar
ENCODING 295
SWIDTH 544 0
DWIDTH 13 0
BBX 10 17 1 0
BITMAP
2000
2000
2000
FE00
2000
2000
2F80
30C0
2040
2040
2040
2040
2040
2040
2040
2040
2040
ENDCHAR
STARTCHAR Itilde
ENCODING 296
SWIDTH 230 0
DWIDTH 6 0
BBX 5 20 0 0
BITMAP
98
A8
A8
E8
00
20
20
20
20
20
20
20
20
20
20
20
20
20
20
20
ENDCHAR
STARTCHAR itilde
ENCODING 297
SWIDTH 210 0
DWIDTH 5 0
BBX 5 17 0 0
BITMAP
98
A8
E8
00
00
20
20
20
20
20
20
20
20
20
20
20
20
ENDCHAR
STARTCHAR Imacron
ENCODING 298
SWIDTH 230 0
DWIDTH 6 0
BBX 5 19 0 0
BITMAP
F8
00
00
00
20
20
20
20
20
20
20
20
20
20
20
20
20
20
20
ENDCHAR
STARTCHAR imacron
ENCODING 299
SWIDTH 208 0
DWIDTH 5 0
BBX 5 15 0 0
BITMAP
F8
00
00
20
20
20
20
20
20
20
20
20
20
20
20
ENDCHAR
STARTCHAR Ibreve
ENCODING 300
SWIDTH 231 0
DWIDTH 6 0
BBX 5 20 0 0
BITMAP
88
88
70
00
00
20
20
20
20
20
20
20
20
20
20
20
20
20
20
20
ENDCHAR
STARTCHAR ibreve
ENCODING 301
SWIDTH 211 0
DWIDTH 5 0
BBX 5 17 0 0
BITMAP
88
88
88
70
00
20
20
20
20
20
20
20
20
20
20
20
20
ENDCHAR
STARTCHAR Iogonek
ENCODING 302
SWIDTH 230 0
DWIDTH 6 0
BBX 2 17 1 -2
BITMAP
40
40
40
40
40
40
40
40
40
40
40
40
40
40
40
80
C0
ENDCHAR
STARTCHAR iogonek
ENCODING 303
SWIDTH 210 0
DWIDTH 5 0
BBX 2 20 1 -3
BITMAP
40
40
40
00
00
40
40
40
40
40
40
40
40
40
40
40
40
80
80
C0
ENDCHAR
STARTCHAR Idotaccent
ENCODING 304
SWIDTH 230 0
DWIDTH 6 0
BBX 1 19 2 0
BITMAP
80
80
80
00
80
80
80
80
80
80
80
80
80
80
80
80
80
80
80
ENDCHAR
STARTCHAR dotlessi
ENCODING 305
SWIDTH 212 0
DWIDTH 5 0
BBX 1 12 2 0
BITMAP
80
80
80
80
80
80
80
80
80
80
80
80
ENDCHAR
STARTCHAR IJ
ENCODING 306
SWIDTH 721 0
DWIDTH 17 0
BBX 13 15 2 0
BITMAP
8008
8008
8008
8008
8008
8008
8008
8008
8008
8808
8C08
8C08
8C08
8418
83F0
ENDCHAR
STARTCHAR ij
ENCODING 307
SWIDTH 419 0
DWIDTH 10 0
BBX 6 20 2 -3
BITMAP
84
84
84
00
00
84
84
84
84
84
84
84
84
84
84
84
84
04
0C
38
ENDCHAR
STARTCHAR Jcircumflex
ENCODING 308
SWIDTH 494 0
DWIDTH 12 0
BBX 11 20 1 0
BITMAP
0080
0140
0140
0220
0000
0080
0080
0080
0080
0080
0080
0080
0080
0080
8080
8080
8080
8080
C180
7F00
ENDCHAR
STARTCHAR jcircumflex
ENCODING 309
SWIDTH 209 0
DWIDTH 5 0
BBX 6 20 -1 -3
BITMAP
10
28
6C
00
00
10
10
10
10
10
10
10
10
10
10
10
10
10
30
E0
ENDCHAR
STARTCHAR uni0136
ENCODING 310
SWIDTH 530 0
DWIDTH 13 0
BBX 10 20 2 -5
BITMAP
8080
8100
8300
8600
8400
8800
9800
B800
AC00
C400
8200
8300
8180
8080
8040
0400
0C00
0C00
0800
0800
ENDCHAR
STARTCHAR uni0137
ENCODING 311
SWIDTH 431 0
DWIDTH 10 0
BBX 8 23 2 -6
BITMAP
80
80
80
80
80
83
86
84
88
98
90
90
88
8C
84
82
83
00
10
10
10
10
10
ENDCHAR
STARTCHAR Lacute
ENCODING 313
SWIDTH 451 0
DWIDTH 11 0
BBX 8 20 2 0
BITMAP
20
60
40
80
00
80
80
80
80
80
80
80
80
80
80
80
80
80
80
FF
ENDCHAR
STARTCHAR lacute
ENCODING 314
SWIDTH 207 0
DWIDTH 5 0
BBX 3 21 2 0
BITMAP
20
60
40
80
80
80
80
80
80
80
80
80
80
80
80
80
80
80
80
80
80
ENDCHAR
STARTCHAR uni013B
ENCODING 315
SWIDTH 451 0
DWIDTH 11 0
BBX 8 21 2 -6
BITMAP
80
80
80
80
80
80
80
80
80
80
80
80
80
80
FF
00
18
18
18
10
10
ENDCHAR
STARTCHAR uni013C
ENCODING 316
SWIDTH 211 0
DWIDTH 5 0
BBX 1 23 2 -6
BITMAP
80
80
80
80
80
80
80
80
80
80
80
80
80
80
80
80
80
00
80
80
80
80
80
ENDCHAR
STARTCHAR Lcaron
ENCODING 317
SWIDTH 451 0
DWIDTH 11 0
BBX 8 15 2 0
BITMAP
86
86
86
84
84
84
80
80
80
80
80
80
80
80
FF
ENDCHAR
STARTCHAR lcaron
ENCODING 318
SWIDTH 274 0
DWIDTH 7 0
BBX 4 17 2 0
BITMAP
90
90
90
90
90
90
80
80
80
80
80
80
80
80
80
80
80
ENDCHAR
STARTCHAR Ldot
ENCODING 319
SWIDTH 500 0
DWIDTH 12 0
BBX 8 15 2 0
BITMAP
80
80
80
80
80
80
84
84
84
80
80
80
80
80
FF
ENDCHAR
STARTCHAR ldot
ENCODING 320
SWIDTH 314 0
DWIDTH 8 0
BBX 5 17 2 0
BITMAP
80
80
80
80
80
80
80
80
98
98
98
80
80
80
80
80
80
ENDCHAR
STARTCHAR Lslash
ENCODING 321
SWIDTH 504 0
DWIDTH 12 0
BBX 10 15 0 0
BITMAP
2000
2000
2000
2400
3C00
3000
E000
2000
2000
2000
2000
2000
2000
2000
3FC0
ENDCHAR
STARTCHAR lslash
ENCODING 322
SWIDTH 296 0
DWIDTH 7 0
BBX 5 17 1 0
BITMAP
20
20
20
20
20
28
30
E0
A0
20
20
20
20
20
20
20
20
ENDCHAR
STARTCHAR Nacute
ENCODING 323
SWIDTH 579 0
DWIDTH 14 0
BBX 10 20 2 0
BITMAP
0100
0200
0400
0400
0000
8040
C040
E040
A040
B040
9040
8840
8C40
8440
8240
8240
8140
81C0
80C0
8040
ENDCHAR
STARTCHAR nacute
ENCODING 324
SWIDTH 507 0
DWIDTH 12 0
BBX 8 17 2 0
BITMAP
06
04
08
00
00
BE
C3
81
81
81
81
81
81
81
81
81
81
ENDCHAR
STARTCHAR uni0145
ENCODING 325
SWIDTH 579 0
DWIDTH 14 0
BBX 10 21 2 -6
BITMAP
8040
C040
E040
A040
B040
9040
8840
8C40
8440
8240
8240
8140
81C0
80C0
8040
0000
0C00
0C00
0800
0800
0800
ENDCHAR
STARTCHAR uni0146
ENCODING 326
SWIDTH 505 0
DWIDTH 12 0
BBX 8 18 2 -6
BITMAP
BE
C3
81
81
81
81
81
81
81
81
81
81
00
08
08
08
10
10
ENDCHAR
STARTCHAR Ncaron
ENCODING 327
SWIDTH 579 0
DWIDTH 14 0
BBX 10 20 2 0
BITMAP
1200
1200
0C00
0800
0000
8040
C040
E040
A040
B040
9040
8840
8C40
8440
8240
8240
8140
81C0
80C0
8040
ENDCHAR
STARTCHAR ncaron
ENCODING 328
SWIDTH 507 0
DWIDTH 12 0
BBX 8 17 2 0
BITMAP
24
14
18
00
00
BE
C3
81
81
81
81
81
81
81
81
81
81
ENDCHAR
STARTCHAR Eng
ENCODING 330
SWIDTH 519 0
DWIDTH 12 0
BBX 10 18 2 -3
BITMAP
8040
C040
E040
A040
9040
9040
8840
8C40
8440
8240
8240
8140
81C0
80C0
8040
0040
0080
0380
ENDCHAR
STARTCHAR eng
ENCODING 331
SWIDTH 507 0
DWIDTH 12 0
BBX 8 15 2 -3
BITMAP
BE
C3
81
81
81
81
81
81
81
81
81
81
01
03
0E
ENDCHAR
STARTCHAR Omacron
ENCODING 332
SWIDTH 553 0
DWIDTH 13 0
BBX 9 19 2 0
BITMAP
3E00
0000
0000
0000
7F00
C180
8080
8080
8080
8080
8080
8080
8080
8080
8080
8080
8080
C180
7F00
ENDCHAR
STARTCHAR omacron
ENCODING 333
SWIDTH 496 0
DWIDTH 12 0
BBX 8 15 2 0
BITMAP
7E
00
00
7E
C3
81
81
81
81
81
81
81
81
C3
7E
ENDCHAR
STARTCHAR Obreve
ENCODING 334
SWIDTH 553 0
DWIDTH 13 0
BBX 9 20 2 0
BITMAP
2200
2200
1C00
0000
0000
7F00
C180
8080
8080
8080
8080
8080
8080
8080
8080
8080
8080
8080
C180
7F00
ENDCHAR
STARTCHAR obreve
ENCODING 335
SWIDTH 496 0
DWIDTH 12 0
BBX 8 17 2 0
BITMAP
44
24
24
18
00
7E
C3
81
81
81
81
81
81
81
81
C3
7E
ENDCHAR
STARTCHAR Ohungarumlaut
ENCODING 336
SWIDTH 553 0
DWIDTH 13 0
BBX 9 20 2 0
BITMAP
0D80
1B00
1200
0000
0000
7F00
C180
8080
8080
8080
8080
8080
8080
8080
8080
8080
8080
8080
C180
7F00
ENDCHAR
STARTCHAR ohungarumlaut
ENCODING 337
SWIDTH 496 0
DWIDTH 12 0
BBX 8 17 2 0
BITMAP
1B
12
24
00
00
7E
C3
81
81
81
81
81
81
81
81
C3
7E
ENDCHAR
STARTCHAR OE
ENCODING 338
SWIDTH 775 0
DWIDTH 19 0
BBX 15 15 2 0
BITMAP
7FFE
C100
8100
8100
8100
8100
8100
81FC
8100
8100
8100
8100
8100
C100
7FFE
ENDCHAR
STARTCHAR oe
ENCODING 339
SWIDTH 812 0
DWIDTH 19 0
BBX 16 12 2 0
BITMAP
7E7C
C382
8181
8101
8101
8101
81FF
8100
8100
8100
C380
7E7F
ENDCHAR
STARTCHAR Racute
ENCODING 340
SWIDTH 534 0
DWIDTH 13 0
BBX 9 20 2 0
BITMAP
0600
0400
0800
1000
0000
FF00
8180
8080
8080
8080
8080
8080
8180
FF00
8600
8200
8300
8100
8180
8080
ENDCHAR
STARTCHAR racute
ENCODING 341
SWIDTH 313 0
DWIDTH 8 0
BBX 5 17 2 0
BITMAP
10
20
60
00
00
B8
C0
80
80
80
80
80
80
80
80
80
80
ENDCHAR
STARTCHAR uni0156
ENCODING 342
SWIDTH 534 0
DWIDTH 13 0
BBX 9 21 2 -6
BITMAP
FF00
8180
8080
8080
8080
8080
8080
8180
FF00
8600
8200
8300
8100
8180
8080
0000
0800
0800
0800
0800
0800
ENDCHAR
STARTCHAR uni0157
ENCODING 343
SWIDTH 313 0
DWIDTH 8 0
BBX 5 18 2 -6
BITMAP
B8
C0
80
80
80
80
80
80
80
80
80
80
00
80
80
80
80
80
ENDCHAR
STARTCHAR Rcaron
ENCODING 344
SWIDTH 534 0
DWIDTH 13 0
BBX 9 20 2 0
BITMAP
2400
2400
1800
0800
0000
FF00
8180
8080
8080
8080
8080
8080
8180
FF00
8600
8200
8300
8100
8180
8080
ENDCHAR
STARTCHAR rcaron
ENCODING 345
SWIDTH 313 0
DWIDTH 8 0
BBX 5 17 2 0
BITMAP
98
50
60
00
00
B8
C0
80
80
80
80
80
80
80
80
80
80
ENDCHAR
STARTCHAR Sacute
ENCODING 346
SWIDTH 562 0
DWIDTH 13 0
BBX 10 20 2 0
BITMAP
0200
0600
0400
0800
0000
7F00
C180
8080
80C0
8000
8000
6000
1E00
0380
0080
00C0
80C0
8080
C180
7F00
ENDCHAR
STARTCHAR sacute
ENCODING 347
SWIDTH 427 0
DWIDTH 10 0
BBX 8 17 1 0
BITMAP
04
08
18
00
00
7E
C0
80
C0
60
38
06
03
01
01
03
FE
ENDCHAR
STARTCHAR Scircumflex
ENCODING 348
SWIDTH 562 0
DWIDTH 13 0
BBX 10 20 2 0
BITMAP
0800
0C00
1200
2200
0000
7F00
C180
8080
80C0
8000
8000
6000
1E00
0380
0080
00C0
80C0
8080
C180
7F00
ENDCHAR
STARTCHAR scircumflex
ENCODING 349
SWIDTH 427 0
DWIDTH 10 0
BBX 8 17 1 0
BITMAP
18
18
24
00
00
7E
C0
80
C0
60
38
06
03
01
01
03
FE
ENDCHAR
STARTCHAR uni015E
ENCODING 350
SWIDTH 562 0
DWIDTH 13 0
BBX 10 19 2 -4
BITMAP
7F00
C180
8080
80C0
8000
8000
6000
1E00
0380
0080
00C0
80C0
8080
C180
7F00
0800
0C00
0200
0C00
ENDCHAR
STARTCHAR uni015F
ENCODING 351
SWIDTH 427 0
DWIDTH 10 0
BBX 8 16 1 -4
BITMAP
7E
C0
80
C0
40
38
06
03
01
01
03
FE
08
1C
04
1C
ENDCHAR
STARTCHAR Scaron
ENCODING 352
SWIDTH 562 0
DWIDTH 13 0
BBX 10 20 2 0
BITMAP
2200
1600
1400
0800
0000
7F00
C180
8080
80C0
8000
8000
6000
1E00
0380
0080
00C0
80C0
8080
C180
7F00
ENDCHAR
STARTCHAR scaron
ENCODING 353
SWIDTH 427 0
DWIDTH 10 0
BBX 8 17 1 0
BITMAP
24
24
18
00
00
7E
C0
80
C0
60
38
06
03
01
01
03
FE
ENDCHAR
STARTCHAR uni0162
ENCODING 354
SWIDTH 420 0
DWIDTH 10 0
BBX 10 20 0 -5
BITMAP
FFC0
0C00
0C00
0C00
0C00
0C00
0C00
0C00
0C00
0C00
0C00
0C00
0C00
0C00
0C00
0400
0C00
0C00
0800
0800
ENDCHAR
STARTCHAR uni0163
ENCODING 355
SWIDTH 347 0
DWIDTH 8 0
BBX 6 20 1 -5
BITMAP
20
20
20
FC
20
20
20
20
20
20
20
20
20
30
1C
10
18
18
10
10
ENDCHAR
STARTCHAR Tcaron
ENCODING 356
SWIDTH 420 0
DWIDTH 10 0
BBX 10 20 0 0
BITMAP
1200
1200
0C00
0400
0000
FFC0
0C00
0C00
0C00
0C00
0C00
0C00
0C00
0C00
0C00
0C00
0C00
0C00
0C00
0C00
ENDCHAR
STARTCHAR tcaron
ENCODING 357
SWIDTH 396 0
DWIDTH 10 0
BBX 8 15 1 0
BITMAP
01
21
21
FD
21
21
20
20
20
20
20
20
20
30
1C
ENDCHAR
STARTCHAR Tbar
ENCODING 358
SWIDTH 501 0
DWIDTH 12 0
BBX 9 15 1 0
BITMAP
FF80
0800
0800
0800
0800
0800
7F00
0800
0800
0800
0800
0800
0800
0800
0800
ENDCHAR
STARTCHAR tbar
ENCODING 359
SWIDTH 350 0
DWIDTH 8 0
BBX 6 15 1 0
BITMAP
20
20
20
FC
20
20
20
20
FC
20
20
20
20
30
1C
ENDCHAR
STARTCHAR Utilde
ENCODING 360
SWIDTH 552 0
DWIDTH 13 0
BBX 9 20 2 0
BITMAP
2600
2A00
2A00
3A00
0000
8080
8080
8080
8080
8080
8080
8080
8080
8080
8080
8080
8080
8080
C180
7F00
ENDCHAR
STARTCHAR utilde
ENCODING 361
SWIDTH 507 0
DWIDTH 12 0
BBX 8 17 2 0
BITMAP
4C
4A
32
00
00
81
81
81
81
81
81
81
81
81
81
C3
7D
ENDCHAR
STARTCHAR Umacron
ENCODING 362
SWIDTH 552 0
DWIDTH 13 0
BBX 9 19 2 0
BITMAP
3E00
0000
0000
0000
8080
8080
8080
8080
8080
8080
8080
8080
8080
8080
8080
8080
8080
C180
7F00
ENDCHAR
STARTCHAR umacron
ENCODING 363
SWIDTH 507 0
DWIDTH 12 0
BBX 8 15 2 0
BITMAP
7E
00
00
81
81
81
81
81
81
81
81
81
81
C3
7D
ENDCHAR
STARTCHAR Ubreve
ENCODING 364
SWIDTH 552 0
DWIDTH 13 0
BBX 9 20 2 0
BITMAP
2200
2200
1C00
0000
0000
8080
8080
8080
8080
8080
8080
8080
8080
8080
8080
8080
8080
8080
C180
7F00
ENDCHAR
STARTCHAR ubreve
ENCODING 365
SWIDTH 507 0
DWIDTH 12 0
BBX 8 17 2 0
BITMAP
24
24
24
18
00
81
81
81
81
81
81
81
81
81
81
C3
7D
ENDCHAR
STARTCHAR Uring
ENCODING 366
SWIDTH 552 0
DWIDTH 13 0
BBX 9 21 2 0
BITMAP
1C00
1200
1200
1200
1C00
0000
8080
8080
8080
8080
8080
8080
8080
8080
8080
8080
8080
8080
8080
C180
7F00
ENDCHAR
STARTCHAR uring
ENCODING 367
SWIDTH 507 0
DWIDTH 12 0
BBX 8 17 2 0
BITMAP
38
24
24
38
00
81
81
81
81
81
81
81
81
81
81
C3
7D
ENDCHAR
STARTCHAR Uhungarumlaut
ENCODING 368
SWIDTH 552 0
DWIDTH 13 0
BBX 9 20 2 0
BITMAP
0900
1200
1200
0000
0000
8080
8080
8080
8080
8080
8080
8080
8080
8080
8080
8080
8080
8080
C180
7F00
ENDCHAR
STARTCHAR uhungarumlaut
ENCODING 369
SWIDTH 507 0
DWIDTH 12 0
BBX 8 17 2 0
BITMAP
1B
12
24
00
00
81
81
81
81
81
81
81
81
81
81
C3
7D
ENDCHAR
STARTCHAR Uogonek
ENCODING 370
SWIDTH 552 0
DWIDTH 13 0
BBX 9 17 2 -2
BITMAP
8080
8080
8080
8080
8080
8080
8080
8080
8080
8080
8080
8080
8080
C180
7F00
0800
1C00
ENDCHAR
STARTCHAR uogonek
ENCODING 371
SWIDTH 503 0
DWIDTH 12 0
BBX 8 15 2 -3
BITMAP
81
81
81
81
81
81
81
81
81
81
C3
7D
02
02
03
ENDCHAR
STARTCHAR Wcircumflex
ENCODING 372
SWIDTH 795 0
DWIDTH 19 0
BBX 17 20 1 0
BITMAP
008000
014000
014000
022000
000000
808080
81C080
C14180
C14180
414100
422100
422100
622300
263200
241200
241200
341200
1C0E00
180C00
180C00
ENDCHAR
STARTCHAR wcircumflex
ENCODING 373
SWIDTH 682 0
DWIDTH 16 0
BBX 16 17 0 0
BITMAP
0180
0140
0240
0000
0000
C181
4183
4182
6142
2246
2244
3264
1224
1428
1428
1C18
0C18
ENDCHAR
STARTCHAR Ycircumflex
ENCODING 374
SWIDTH 493 0
DWIDTH 12 0
BBX 10 20 1 0
BITMAP
0800
0C00
1200
1200
0000
8040
C0C0
4080
6180
2100
3300
1200
1C00
0C00
0C00
0C00
0C00
0C00
0C00
0C00
ENDCHAR
STARTCHAR ycircumflex
ENCODING 375
SWIDTH 459 0
DWIDTH 11 0
BBX 9 20 1 -3
BITMAP
0C00
1400
1200
2000
0000
8080
8080
4180
4100
4100
2200
2200
3600
1400
1400
1C00
0800
0800
1000
E000
ENDCHAR
STARTCHAR Ydieresis
ENCODING 376
SWIDTH 493 0
DWIDTH 12 0
BBX 10 20 1 0
BITMAP
3200
3200
3200
0000
0000
8040
C0C0
4080
6180
2100
3300
1200
1C00
0C00
0C00
0C00
0C00
0C00
0C00
0C00
ENDCHAR
STARTCHAR Zacute
ENCODING 377
SWIDTH 482 0
DWIDTH 12 0
BBX 10 20 1 0
BITMAP
0100
0200
0400
0400
0000
FF80
0080
0180
0300
0200
0600
0400
0800
1800
1000
3000
6000
4000
C000
FFC0
ENDCHAR
STARTCHAR zacute
ENCODING 378
SWIDTH 405 0
DWIDTH 10 0
BBX 8 17 1 0
BITMAP
06
04
08
00
00
FF
02
06
04
0C
18
10
30
60
40
C0
FF
ENDCHAR
STARTCHAR Zdotaccent
ENCODING 379
SWIDTH 482 0
DWIDTH 12 0
BBX 10 20 1 0
BITMAP
0400
0400
0400
0000
0000
FF80
0080
0180
0300
0200
0600
0400
0800
1800
1000
3000
6000
4000
C000
FFC0
ENDCHAR
STARTCHAR zdotaccent
ENCODING 380
SWIDTH 405 0
DWIDTH 10 0
BBX 8 17 1 0
BITMAP
08
08
08
00
00
FF
02
06
04
0C
18
10
30
60
40
C0
FF
ENDCHAR
STARTCHAR Zcaron
ENCODING 381
SWIDTH 482 0
DWIDTH 12 0
BBX 10 20 1 0
BITMAP
1100
1200
0C00
0400
0000
FF80
0080
0180
0300
0200
0600
0400
0800
1800
1000
3000
6000
4000
C000
FFC0
ENDCHAR
STARTCHAR zcaron
ENCODING 382
SWIDTH 405 0
DWIDTH 10 0
BBX 8 17 1 0
BITMAP
26
14
18
00
00
FF
02
06
04
0C
18
10
30
60
40
C0
FF
ENDCHAR
STARTCHAR florin
ENCODING 402
SWIDTH 494 0
DWIDTH 12 0
BBX 11 20 0 -3
BITMAP
00E0
0180
0100
0100
0300
0200
0200
1FC0
0200
0600
0400
0400
0400
0400
0C00
0800
0800
0800
1000
E000
ENDCHAR
STARTCHAR AEacute
ENCODING 508
SWIDTH 773 0
DWIDTH 19 0
BBX 17 20 0 0
BITMAP
000800
001000
002000
002000
000000
00FF80
01C000
014000
034000
024000
064000
044000
0C7F00
084000
104000
3FC000
204000
604000
404000
C07F80
ENDCHAR
STARTCHAR aeacute
ENCODING 509
SWIDTH 795 0
DWIDTH 19 0
BBX 16 17 2 0
BITMAP
0060
00C0
0080
0100
0000
7E7C
0382
0102
0103
0103
7F03
81FF
8100
8100
8100
8380
7EFF
ENDCHAR
STARTCHAR Oslashacute
ENCODING 510
SWIDTH 558 0
DWIDTH 13 0
BBX 11 20 1 0
BITMAP
0100
0300
0200
0400
0000
3FA0
6060
4040
40E0
41E0
4160
4260
4460
4C60
4860
5060
6060
6040
6040
BF80
ENDCHAR
STARTCHAR oslashacute
ENCODING 511
SWIDTH 521 0
DWIDTH 13 0
BBX 11 17 1 0
BITMAP
0300
0200
0400
0000
0000
3F00
60E0
40C0
41C0
43C0
44C0
48C0
50C0
60C0
40C0
E080
BF00
ENDCHAR
STARTCHAR uni0218
ENCODING 536
SWIDTH 562 0
DWIDTH 13 0
BBX 10 21 2 -6
BITMAP
7F00
C180
8080
80C0
8000
8000
6000
1E00
0380
0080
00C0
80C0
8080
C180
7F00
0000
0C00
0C00
0800
0800
0800
ENDCHAR
STARTCHAR uni0219
ENCODING 537
SWIDTH 427 0
DWIDTH 10 0
BBX 8 17 1 -5
BITMAP
7E
C0
80
C0
60
38
06
03
01
01
03
FE
08
08
08
08
08
ENDCHAR
STARTCHAR circumflex
ENCODING 710
SWIDTH 326 0
DWIDTH 8 0
BBX 4 3 2 14
BITMAP
60
A0
90
ENDCHAR
STARTCHAR caron
ENCODING 711
SWIDTH 326 0
DWIDTH 8 0
BBX 4 3 2 14
BITMAP
90
A0
60
ENDCHAR
STARTCHAR uni02C9
ENCODING 713
SWIDTH 358 0
DWIDTH 9 0
BBX 5 1 2 14
BITMAP
F8
ENDCHAR
STARTCHAR breve
ENCODING 728
SWIDTH 332 0
DWIDTH 8 0
BBX 4 3 2 14
BITMAP
90
90
60
ENDCHAR
STARTCHAR dotaccent
ENCODING 729
SWIDTH 183 0
DWIDTH 4 0
BBX 1 3 2 14
BITMAP
80
80
80
ENDCHAR
STARTCHAR ring
ENCODING 730
SWIDTH 297 0
DWIDTH 7 0
BBX 4 4 1 13
BITMAP
70
90
90
F0
ENDCHAR
STARTCHAR ogonek
ENCODING 731
SWIDTH 243 0
DWIDTH 6 0
BBX 2 3 2 -3
BITMAP
40
80
C0
ENDCHAR
STARTCHAR tilde
ENCODING 732
SWIDTH 369 0
DWIDTH 9 0
BBX 5 3 2 14
BITMAP
B0
A8
C8
ENDCHAR
STARTCHAR hungarumlaut
ENCODING 733
SWIDTH 377 0
DWIDTH 9 0
BBX 5 3 2 14
BITMAP
48
D0
90
ENDCHAR
STARTCHAR Mu
ENCODING 924
SWIDTH 527 0
DWIDTH 13 0
BBX 9 15 2 -3
BITMAP
8180
8180
8180
8180
8180
8180
8180
8180
8180
8180
C180
FF80
8000
8000
8000
ENDCHAR
STARTCHAR Pi
ENCODING 928
SWIDTH 605 0
DWIDTH 15 0
BBX 13 16 1 -1
BITMAP
FFF8
1040
1040
1040
1040
1040
1040
1040
1040
1040
1040
1040
1040
1040
1040
1040
ENDCHAR
STARTCHAR Sigma
ENCODING 931
SWIDTH 481 0
DWIDTH 12 0
BBX 9 15 1 0
BITMAP
FF80
4000
6000
2000
1000
1800
0800
0400
0C00
1800
1000
3000
6000
4000
FF80
ENDCHAR
STARTCHAR uni0901
ENCODING 2305
SWIDTH 0 0
DWIDTH 0 0
BBX 8 4 -7 17
BITMAP
08
C1
41
7E
ENDCHAR
STARTCHAR uni0902
ENCODING 2306
SWIDTH 0 0
DWIDTH 0 0
BBX 2 1 -4 18
BITMAP
C0
ENDCHAR
STARTCHAR uni0903
ENCODING 2307
SWIDTH 247 0
DWIDTH 6 0
BBX 2 8 2 2
BITMAP
C0
00
00
00
00
00
00
C0
ENDCHAR
STARTCHAR uni0905
ENCODING 2309
SWIDTH 598 0
DWIDTH 14 0
BBX 14 15 1 0
BITMAP
783C
0420
0620
0620
0620
0420
7820
0C20
07E0
0620
0620
0620
0420
F820
0020
ENDCHAR
STARTCHAR uni0906
ENCODING 2310
SWIDTH 828 0
DWIDTH 20 0
BBX 19 15 1 0
BITMAP
783FE0
042080
042080
062080
042080
042080
782080
0C2080
07E080
062080
062080
042080
042080
F82080
002080
ENDCHAR
STARTCHAR uni0907
ENCODING 2311
SWIDTH 478 0
DWIDTH 11 0
BBX 12 16 0 -1
BITMAP
FFF0
0080
0080
0080
1F80
2000
2000
2000
3F80
00C0
0040
2040
2040
20C0
3F80
2000
ENDCHAR
STARTCHAR uni0908
ENCODING 2312
SWIDTH 478 0
DWIDTH 11 0
BBX 12 22 0 -1
BITMAP
01E0
0300
0200
0200
0200
0200
FFF0
0080
0080
0080
1F80
2000
2000
2000
3F80
00C0
0040
2040
2040
20C0
3F80
2000
ENDCHAR
STARTCHAR uni0909
ENCODING 2313
SWIDTH 471 0
DWIDTH 11 0
BBX 12 15 0 0
BITMAP
FFF0
0080
0080
00C0
00C0
0080
0080
0F00
0080
00C0
4040
4040
40C0
2080
3F00
ENDCHAR
STARTCHAR uni090A
ENCODING 2314
SWIDTH 661 0
DWIDTH 16 0
BBX 16 15 0 0
BITMAP
FFFF
0080
0080
00C0
00C0
0080
0080
0FFC
0086
00C2
4042
4042
40C2
2086
3F1C
ENDCHAR
STARTCHAR uni090B
ENCODING 2315
SWIDTH 753 0
DWIDTH 18 0
BBX 18 15 0 0
BITMAP
FFFFC0
00C000
00C000
00C000
00C000
1FC300
30CD00
20D900
20E100
20C700
01C800
03C800
04C800
18C800
30C780
ENDCHAR
STARTCHAR uni090C
ENCODING 2316
SWIDTH 676 0
DWIDTH 16 0
BBX 17 20 0 -5
BITMAP
FFFF80
000400
000400
000400
1E7400
338C00
218400
210400
210400
210400
200400
200400
200400
1E0400
001C00
003000
002000
002000
002180
001F00
ENDCHAR
STARTCHAR uni090D
ENCODING 2317
SWIDTH 521 0
DWIDTH 13 0
BBX 13 20 0 1
BITMAP
1040
1040
1040
0F80
0000
0000
FFF8
2020
2020
2020
2020
2020
2060
23C0
2000
2000
2000
2000
1000
0FC0
ENDCHAR
STARTCHAR uni090E
ENCODING 2318
SWIDTH 522 0
DWIDTH 13 0
BBX 13 20 0 1
BITMAP
0400
0400
0600
0180
0060
0020
FFF8
2020
2020
2020
2020
2020
2060
23C0
2000
2000
2000
2000
1000
0FC0
ENDCHAR
STARTCHAR uni090F
ENCODING 2319
SWIDTH 526 0
DWIDTH 13 0
BBX 13 14 0 1
BITMAP
FFF8
2020
2020
2020
2020
2020
2060
23C0
2000
2000
2000
2000
1000
0FC0
ENDCHAR
STARTCHAR uni0910
ENCODING 2320
SWIDTH 526 0
DWIDTH 13 0
BBX 13 20 0 1
BITMAP
0200
0100
0180
0080
0040
0060
FFF8
2020
2020
2020
2020
2020
2060
23C0
2000
2000
2000
2000
1000
0FC0
ENDCHAR
STARTCHAR uni0911
ENCODING 2321
SWIDTH 829 0
DWIDTH 20 0
BBX 19 20 1 0
BITMAP
002080
002080
001F00
000000
000000
783FE0
042080
062080
062080
062080
042080
782080
0C2080
07E080
062080
062080
062080
042080
F82080
002080
ENDCHAR
STARTCHAR uni0912
ENCODING 2322
SWIDTH 828 0
DWIDTH 20 0
BBX 19 21 1 0
BITMAP
003000
001000
001800
000600
000300
000080
783FE0
042080
062080
062080
062080
042080
782080
0C2080
07E080
062080
062080
062080
042080
F82080
002080
ENDCHAR
STARTCHAR uni0913
ENCODING 2323
SWIDTH 829 0
DWIDTH 20 0
BBX 19 21 1 0
BITMAP
001800
000C00
000400
000200
000300
000100
783FE0
042080
062080
062080
062080
042080
782080
0C2080
07E080
062080
062080
062080
042080
F82080
002080
ENDCHAR
STARTCHAR uni0914
ENCODING 2324
SWIDTH 829 0
DWIDTH 20 0
BBX 19 21 1 0
BITMAP
001880
000880
000480
000680
000280
000180
783FE0
042080
062080
062080
062080
042080
782080
0C2080
07E080
062080
062080
062080
042080
F82080
002080
ENDCHAR
STARTCHAR uni0915
ENCODING 2325
SWIDTH 725 0
DWIDTH 17 0
BBX 18 15 0 0
BITMAP
FFFFC0
008000
008000
1CBC00
30C200
208100
608100
608100
608100
608100
208100
218200
1F9E00
008000
008000
ENDCHAR
STARTCHAR uni0916
ENCODING 2326
SWIDTH 696 0
DWIDTH 17 0
BBX 17 15 0 0
BITMAP
FFFF80
040600
040600
040600
047600
04C600
048600
788600
408600
208600
308600
107E00
080600
0C0600
060600
ENDCHAR
STARTCHAR uni0917
ENCODING 2327
SWIDTH 494 0
DWIDTH 12 0
BBX 12 15 0 0
BITMAP
FFF0
10C0
10C0
10C0
10C0
10C0
10C0
10C0
10C0
E0C0
00C0
00C0
00C0
00C0
00C0
ENDCHAR
STARTCHAR uni0918
ENCODING 2328
SWIDTH 559 0
DWIDTH 13 0
BBX 14 15 0 0
BITMAP
FFFC
2020
2020
2020
2020
2020
1E20
3020
2020
2020
2020
2060
1FE0
0020
0020
ENDCHAR
STARTCHAR uni0919
ENCODING 2329
SWIDTH 505 0
DWIDTH 12 0
BBX 12 15 0 0
BITMAP
FFF0
0080
0080
0080
1F80
2000
2020
2000
1F80
00C0
0040
2040
2040
20C0
1F80
ENDCHAR
STARTCHAR uni091A
ENCODING 2330
SWIDTH 563 0
DWIDTH 14 0
BBX 14 15 0 0
BITMAP
FFFC
0020
0020
0020
0020
7F20
1820
1020
1020
1020
1060
0FE0
0020
0020
0020
ENDCHAR
STARTCHAR uni091B
ENCODING 2331
SWIDTH 581 0
DWIDTH 14 0
BBX 14 14 0 1
BITMAP
FFFC
3030
2030
2030
20E0
2030
2010
1C10
3010
2010
2010
2010
2030
1FE0
ENDCHAR
STARTCHAR uni091C
ENCODING 2332
SWIDTH 547 0
DWIDTH 13 0
BBX 13 15 0 0
BITMAP
FFF8
0020
0020
0020
0020
3FE0
0420
0620
0220
0220
0620
0420
7C20
0020
0020
ENDCHAR
STARTCHAR uni091D
ENCODING 2333
SWIDTH 664 0
DWIDTH 16 0
BBX 16 15 0 0
BITMAP
FFFF
0104
0104
1F04
2004
2004
2004
2004
1FFC
0084
2084
2084
2084
3F04
2004
ENDCHAR
STARTCHAR uni091E
ENCODING 2334
SWIDTH 592 0
DWIDTH 14 0
BBX 15 15 0 0
BITMAP
FFFE
0010
0010
0010
7C10
0610
0210
0210
03F0
0210
0210
0610
7C10
0010
0010
ENDCHAR
STARTCHAR uni091F
ENCODING 2335
SWIDTH 485 0
DWIDTH 12 0
BBX 12 14 0 1
BITMAP
FFF0
0080
0080
0080
1F80
3000
2000
2000
2000
2040
2040
2040
2040
1F80
ENDCHAR
STARTCHAR uni0920
ENCODING 2336
SWIDTH 512 0
DWIDTH 12 0
BBX 13 14 0 1
BITMAP
FFF8
0080
0080
0080
1F00
30C0
2040
2040
2040
2040
2040
2040
2040
1F80
ENDCHAR
STARTCHAR uni0921
ENCODING 2337
SWIDTH 475 0
DWIDTH 11 0
BBX 12 15 0 0
BITMAP
FFF0
0080
0080
0080
1F80
2000
2000
2000
2000
1F80
00C0
0040
2040
20C0
1F80
ENDCHAR
STARTCHAR uni0922
ENCODING 2338
SWIDTH 485 0
DWIDTH 12 0
BBX 12 14 0 1
BITMAP
FFF0
0080
0080
0080
1F80
3000
2000
2000
21C0
2240
2240
2040
2040
1FC0
ENDCHAR
STARTCHAR uni0923
ENCODING 2339
SWIDTH 681 0
DWIDTH 16 0
BBX 17 15 0 0
BITMAP
FFFF80
208400
208400
208400
208400
208400
208400
208400
208400
318400
1F0400
000400
000400
000400
000400
ENDCHAR
STARTCHAR uni0924
ENCODING 2340
SWIDTH 496 0
DWIDTH 12 0
BBX 12 15 0 0
BITMAP
FFF0
0040
0040
0040
0040
1FC0
3040
2040
2040
2040
2040
2040
2040
2040
1C40
ENDCHAR
STARTCHAR uni0925
ENCODING 2341
SWIDTH 593 0
DWIDTH 14 0
BBX 14 15 1 0
BITMAP
3C3C
6620
4220
4220
0220
0620
FC20
C020
C020
4020
4060
3FA0
0020
0020
0020
ENDCHAR
STARTCHAR uni0926
ENCODING 2342
SWIDTH 489 0
DWIDTH 12 0
BBX 12 15 0 0
BITMAP
FFF0
00C0
00C0
00C0
1FC0
3000
2000
2000
2000
2040
2040
20C0
1FC0
0040
0040
ENDCHAR
STARTCHAR uni0927
ENCODING 2343
SWIDTH 560 0
DWIDTH 13 0
BBX 14 15 0 0
BITMAP
FCFC
2020
2020
2020
2020
2020
1E20
3020
2020
2020
2020
2060
1FE0
0020
0020
ENDCHAR
STARTCHAR uni0928
ENCODING 2344
SWIDTH 473 0
DWIDTH 11 0
BBX 12 15 0 0
BITMAP
FFF0
0080
0080
0080
0080
0080
3F80
6080
4080
4080
2080
0080
0080
0080
0080
ENDCHAR
STARTCHAR uni0928093C
ENCODING 2345
SWIDTH 473 0
DWIDTH 11 0
BBX 12 15 0 0
BITMAP
FFF0
0080
0080
0080
0080
0080
3F80
6080
4080
6080
0080
0080
0080
0080
0880
ENDCHAR
STARTCHAR uni092A
ENCODING 2346
SWIDTH 503 0
DWIDTH 12 0
BBX 12 15 0 0
BITMAP
FFF0
2040
2040
2040
2040
2040
2040
2040
2040
30C0
1F40
0040
0040
0040
0040
ENDCHAR
STARTCHAR uni092B
ENCODING 2347
SWIDTH 739 0
DWIDTH 18 0
BBX 18 15 0 0
BITMAP
FFFFC0
20C000
20C000
20FE00
20E300
20C100
20C100
20C100
30C100
1FC100
00C100
00C300
00DE00
00C000
00C000
ENDCHAR
STARTCHAR uni092C
ENCODING 2348
SWIDTH 491 0
DWIDTH 12 0
BBX 12 15 0 0
BITMAP
FFF0
00C0
00C0
1EC0
30C0
30C0
28C0
24C0
22C0
21C0
20C0
20C0
1FC0
00C0
00C0
ENDCHAR
STARTCHAR uni092D
ENCODING 2349
SWIDTH 491 0
DWIDTH 12 0
BBX 12 15 0 0
BITMAP
C3F0
60C0
20C0
20C0
20C0
20C0
20C0
3FC0
20C0
20C0
20C0
00C0
00C0
00C0
00C0
ENDCHAR
STARTCHAR uni092E
ENCODING 2350
SWIDTH 490 0
DWIDTH 12 0
BBX 12 15 0 0
BITMAP
FFF0
20C0
20C0
20C0
20C0
20C0
20C0
3FC0
20C0
20C0
20C0
00C0
00C0
00C0
00C0
ENDCHAR
STARTCHAR uni092F
ENCODING 2351
SWIDTH 564 0
DWIDTH 14 0
BBX 14 15 0 0
BITMAP
FFFC
0420
0420
0420
0420
3820
2020
2020
2020
2020
3060
1FE0
0020
0020
0020
ENDCHAR
STARTCHAR uni0930
ENCODING 2352
SWIDTH 337 0
DWIDTH 8 0
BBX 8 15 0 0
BITMAP
FF
04
04
04
04
04
04
78
40
20
30
10
08
0C
06
ENDCHAR
STARTCHAR uni0930093C
ENCODING 2353
SWIDTH 347 0
DWIDTH 8 0
BBX 9 16 0 -1
BITMAP
FF80
0400
0400
0400
0400
0400
0400
7800
6000
2000
1000
1800
0800
0C00
0400
C200
ENDCHAR
STARTCHAR uni0932
ENCODING 2354
SWIDTH 676 0
DWIDTH 16 0
BBX 17 15 0 0
BITMAP
FFFF80
000400
000400
000400
1E7400
338C00
218400
210400
210400
210400
200400
200400
200400
1E0400
000400
ENDCHAR
STARTCHAR uni0933
ENCODING 2355
SWIDTH 672 0
DWIDTH 16 0
BBX 16 14 0 1
BITMAP
FFFF
0030
0030
0030
1E78
318C
2184
2184
2184
2184
2184
2184
2184
1E78
ENDCHAR
STARTCHAR uni0933093C
ENCODING 2356
SWIDTH 672 0
DWIDTH 16 0
BBX 16 16 0 -1
BITMAP
FFFF
0030
0030
0030
1E78
318C
2184
2184
2184
2184
2184
2184
2184
1E78
0000
0C00
ENDCHAR
STARTCHAR uni0935
ENCODING 2357
SWIDTH 484 0
DWIDTH 12 0
BBX 12 15 0 0
BITMAP
FFF0
0080
0080
1E80
3080
2080
2080
2080
2080
2080
2080
2080
1F80
0080
0080
ENDCHAR
STARTCHAR uni0936
ENCODING 2358
SWIDTH 614 0
DWIDTH 15 0
BBX 14 15 1 0
BITMAP
3C3C
4630
4230
4230
0230
0230
0630
FC30
C030
4030
2030
3030
1030
0830
0C30
ENDCHAR
STARTCHAR uni0937
ENCODING 2359
SWIDTH 505 0
DWIDTH 12 0
BBX 12 15 0 0
BITMAP
FFF0
2040
3040
2840
2440
2240
2140
21C0
20C0
30C0
1F40
0040
0040
0040
0040
ENDCHAR
STARTCHAR uni0938
ENCODING 2360
SWIDTH 575 0
DWIDTH 14 0
BBX 14 15 0 0
BITMAP
FFFC
0C30
0C30
0C30
0C30
0C30
0830
7FF0
4030
2030
3030
1030
1830
0830
0430
ENDCHAR
STARTCHAR uni0939
ENCODING 2361
SWIDTH 481 0
DWIDTH 12 0
BBX 12 16 0 -1
BITMAP
FFF0
0080
0080
0080
1F80
3000
2000
2000
1F80
3080
2040
2040
2000
2000
3000
1FC0
ENDCHAR
STARTCHAR uni093C
ENCODING 2364
SWIDTH 0 0
DWIDTH 0 0
BBX 1 1 -4 -2
BITMAP
80
ENDCHAR
STARTCHAR uni093D
ENCODING 2365
SWIDTH 529 0
DWIDTH 13 0
BBX 9 15 2 0
BITMAP
3F00
6000
4000
4000
6000
3000
1800
0E00
0300
0180
0180
0180
8180
6100
3F00
ENDCHAR
STARTCHAR uni093E
ENCODING 2366
SWIDTH 231 0
DWIDTH 6 0
BBX 6 15 0 0
BITMAP
FC
20
20
20
20
20
20
20
20
20
20
20
20
20
20
ENDCHAR
STARTCHAR uni093F
ENCODING 2367
SWIDTH 231 0
DWIDTH 6 0
BBX 15 21 0 0
BITMAP
1FFC
3006
2002
2002
2000
2000
FC00
2000
2000
2000
2000
2000
2000
2000
2000
2000
2000
2000
2000
2000
2000
ENDCHAR
STARTCHAR uni0940
ENCODING 2368
SWIDTH 231 0
DWIDTH 6 0
BBX 9 21 -3 0
BITMAP
7800
8400
8400
8400
0400
0400
1F80
0400
0400
0400
0400
0400
0400
0400
0400
0400
0400
0400
0400
0400
0400
ENDCHAR
STARTCHAR uni0941
ENCODING 2369
SWIDTH 0 0
DWIDTH 0 0
BBX 9 6 -8 -6
BITMAP
0700
8180
8080
4080
6100
3F00
ENDCHAR
STARTCHAR uni0942
ENCODING 2370
SWIDTH 0 0
DWIDTH 0 0
BBX 9 6 -6 -6
BITMAP
7800
C600
8200
8100
8100
7180
ENDCHAR
STARTCHAR uni0943
ENCODING 2371
SWIDTH 0 0
DWIDTH 0 0
BBX 8 6 -7 -6
BITMAP
78
40
C0
40
43
3C
ENDCHAR
STARTCHAR uni0945
ENCODING 2373
SWIDTH 0 0
DWIDTH 0 0
BBX 7 3 -6 17
BITMAP
82
82
FC
ENDCHAR
STARTCHAR uni0946
ENCODING 2374
SWIDTH 0 0
DWIDTH 0 0
BBX 6 7 -8 14
BITMAP
80
80
C0
30
18
04
0C
ENDCHAR
STARTCHAR uni0947
ENCODING 2375
SWIDTH 0 0
DWIDTH 0 0
BBX 5 7 -7 14
BITMAP
80
C0
40
20
30
10
08
ENDCHAR
STARTCHAR uni0948
ENCODING 2376
SWIDTH 0 0
DWIDTH 0 0
BBX 6 7 -8 14
BITMAP
C4
64
24
34
14
0C
04
ENDCHAR
STARTCHAR uni0949
ENCODING 2377
SWIDTH 231 0
DWIDTH 6 0
BBX 7 20 -1 0
BITMAP
82
82
7E
00
00
7E
10
10
10
10
10
10
10
10
10
10
10
10
10
10
ENDCHAR
STARTCHAR uni094A
ENCODING 2378
SWIDTH 231 0
DWIDTH 6 0
BBX 9 21 -3 0
BITMAP
8000
8000
6000
3000
0C00
0400
1F80
0400
0400
0400
0400
0400
0400
0400
0400
0400
0400
0400
0400
0400
0400
ENDCHAR
STARTCHAR uni094B
ENCODING 2379
SWIDTH 231 0
DWIDTH 6 0
BBX 8 21 -2 0
BITMAP
C0
40
20
30
10
08
3F
08
08
08
08
08
08
08
08
08
08
08
08
08
08
ENDCHAR
STARTCHAR uni094C
ENCODING 2380
SWIDTH 231 0
DWIDTH 6 0
BBX 8 21 -2 0
BITMAP
88
48
68
28
18
08
3F
08
08
08
08
08
08
08
08
08
08
08
08
08
08
ENDCHAR
STARTCHAR uni094D
ENCODING 2381
SWIDTH 0 0
DWIDTH 0 0
BBX 3 4 -3 -5
BITMAP
80
C0
40
20
ENDCHAR
STARTCHAR uni0950
ENCODING 2384
SWIDTH 847 0
DWIDTH 20 0
BBX 17 18 1 1
BITMAP
001800
000000
000000
000080
3E1F00
030000
010000
010000
011F00
030180
1E0080
020080
01F080
011080
C11080
C11080
431080
3E0F80
ENDCHAR
STARTCHAR uni0951
ENCODING 2385
SWIDTH 0 0
DWIDTH 0 0
BBX 1 4 -3 17
BITMAP
80
80
80
80
ENDCHAR
STARTCHAR uni0952
ENCODING 2386
SWIDTH 0 0
DWIDTH 0 0
BBX 8 1 -10 -2
BITMAP
FF
ENDCHAR
STARTCHAR uni0953
ENCODING 2387
SWIDTH 0 0
DWIDTH 0 0
BBX 4 4 -6 17
BITMAP
80
40
60
30
ENDCHAR
STARTCHAR uni0954
ENCODING 2388
SWIDTH 0 0
DWIDTH 0 0
BBX 3 4 -3 17
BITMAP
20
60
40
80
ENDCHAR
STARTCHAR uni0915093C
ENCODING 2392
SWIDTH 725 0
DWIDTH 17 0
BBX 18 16 0 -1
BITMAP
FFFFC0
008000
008000
1CBC00
30C200
208100
608100
608100
608100
608100
208100
218200
1F9E00
008000
008000
180000
ENDCHAR
STARTCHAR uni0916093C
ENCODING 2393
SWIDTH 696 0
DWIDTH 17 0
BBX 17 16 0 -1
BITMAP
FFFF80
040600
040600
040600
047600
04C600
048600
788600
408600
208600
308600
107E00
080600
0C0600
060600
400000
ENDCHAR
STARTCHAR uni0917093C
ENCODING 2394
SWIDTH 494 0
DWIDTH 12 0
BBX 12 16 0 -1
BITMAP
FFF0
10C0
10C0
10C0
10C0
10C0
10C0
10C0
10C0
E0C0
00C0
00C0
00C0
00C0
00C0
3000
ENDCHAR
STARTCHAR uni091C093C
ENCODING 2395
SWIDTH 547 0
DWIDTH 13 0
BBX 13 16 0 -1
BITMAP
FFF8
0020
0020
0020
0020
3FE0
0420
0620
0220
0220
0620
0420
7C20
0020
0020
2000
ENDCHAR
STARTCHAR uni0921093C
ENCODING 2396
SWIDTH 475 0
DWIDTH 11 0
BBX 12 18 0 -3
BITMAP
FFF0
0080
0080
0080
1F80
2000
2000
2000
2000
1F80
00C0
0040
2040
20C0
1F80
0000
0000
0400
ENDCHAR
STARTCHAR uni0922093C
ENCODING 2397
SWIDTH 485 0
DWIDTH 12 0
BBX 12 17 0 -2
BITMAP
FFF0
0080
0080
0080
1F80
3000
2000
2000
21C0
2240
2240
2040
2040
1FC0
0000
0000
0600
ENDCHAR
STARTCHAR uni092B093C
ENCODING 2398
SWIDTH 739 0
DWIDTH 18 0
BBX 18 16 0 -1
BITMAP
FFFFC0
20C000
20C000
20FE00
20E300
20C100
20C100
20C100
30C100
1FC100
00C100
00C300
00DE00
00C000
00C000
180000
ENDCHAR
STARTCHAR uni092F093C
ENCODING 2399
SWIDTH 564 0
DWIDTH 14 0
BBX 14 16 0 -1
BITMAP
FFFC
0420
0420
0420
0420
3820
2020
2020
2020
2020
3060
1FE0
0020
0020
0020
3000
ENDCHAR
STARTCHAR uni0960
ENCODING 2400
SWIDTH 753 0
DWIDTH 18 0
BBX 18 18 0 -3
BITMAP
FFFFC0
00C000
00C000
00C000
00C000
1FC300
20CD00
20D900
20E700
00C800
01C800
06C800
0CC780
18CC00
20C800
000800
000800
000780
ENDCHAR
STARTCHAR uni0961
ENCODING 2401
SWIDTH 676 0
DWIDTH 16 0
BBX 17 21 0 -6
BITMAP
FFFF80
000400
000400
000400
000400
1E7400
318C00
218400
210400
210400
200400
201C00
202000
202000
1E2000
002000
001C00
002000
002000
002000
001E00
ENDCHAR
STARTCHAR uni0964
ENCODING 2404
SWIDTH 286 0
DWIDTH 7 0
BBX 2 15 3 0
BITMAP
C0
C0
C0
C0
C0
C0
C0
C0
C0
C0
C0
C0
C0
C0
C0
ENDCHAR
STARTCHAR uni0965
ENCODING 2405
SWIDTH 518 0
DWIDTH 12 0
BBX 7 15 3 0
BITMAP
C2
C2
C2
C2
C2
C2
C2
C2
C2
C2
C2
C2
C2
C2
C2
ENDCHAR
STARTCHAR uni0966
ENCODING 2406
SWIDTH 519 0
DWIDTH 12 0
BBX 9 15 2 0
BITMAP
7E00
C100
8180
8080
8080
8080
8080
8080
8080
8080
8080
8080
8180
8100
7F00
ENDCHAR
STARTCHAR uni0967
ENCODING 2407
SWIDTH 288 0
DWIDTH 7 0
BBX 5 15 0 0
BITMAP
18
38
C8
08
08
08
08
08
08
08
08
08
08
08
08
ENDCHAR
STARTCHAR uni0968
ENCODING 2408
SWIDTH 453 0
DWIDTH 11 0
BBX 9 15 1 0
BITMAP
3E00
4100
C080
8080
8080
0180
0100
0600
0C00
1000
6000
4000
C000
C000
FF80
ENDCHAR
STARTCHAR uni0969
ENCODING 2409
SWIDTH 489 0
DWIDTH 12 0
BBX 9 15 1 0
BITMAP
3F00
4180
C080
8080
0080
0080
0180
0E00
0180
0080
0080
8080
C080
4180
7F00
ENDCHAR
STARTCHAR uni096A
ENCODING 2410
SWIDTH 453 0
DWIDTH 11 0
BBX 11 15 0 0
BITMAP
0180
0280
0280
0480
0C80
0880
1080
1080
2080
6080
4080
FFE0
0080
0080
0080
ENDCHAR
STARTCHAR uni096B
ENCODING 2411
SWIDTH 480 0
DWIDTH 12 0
BBX 8 15 2 0
BITMAP
FF
80
80
80
80
80
FE
83
01
01
01
81
81
83
7E
ENDCHAR
STARTCHAR uni096C
ENCODING 2412
SWIDTH 495 0
DWIDTH 12 0
BBX 9 15 2 0
BITMAP
7F00
C000
8000
8000
8000
8000
BE00
C100
8180
8180
8180
8180
8180
8100
7E00
ENDCHAR
STARTCHAR uni096D
ENCODING 2413
SWIDTH 380 0
DWIDTH 9 0
BBX 9 16 0 -1
BITMAP
FF80
0180
0100
0300
0200
0200
0600
0400
0400
0C00
0800
1800
1000
1000
3000
2000
ENDCHAR
STARTCHAR uni096E
ENCODING 2414
SWIDTH 523 0
DWIDTH 13 0
BBX 9 15 2 0
BITMAP
7E00
C100
8080
8080
8080
8080
8100
7E00
C100
8080
8080
8080
8080
8180
7F00
ENDCHAR
STARTCHAR uni096F
ENCODING 2415
SWIDTH 493 0
DWIDTH 12 0
BBX 9 15 1 0
BITMAP
3F00
4180
8080
8080
8080
8080
8080
4080
7F80
0080
0080
0080
0080
0180
7F00
ENDCHAR
STARTCHAR uni0970
ENCODING 2416
SWIDTH 391 0
DWIDTH 9 0
BBX 7 8 1 4
BITMAP
7C
C6
82
82
82
82
C2
7C
ENDCHAR
STARTCHAR uni0972
ENCODING 2418
SWIDTH 598 0
DWIDTH 14 0
BBX 14 20 1 0
BITMAP
0104
0104
00F8
0000
0000
783C
0420
0620
0620
0620
0420
7820
0C20
07E0
0620
0620
0620
0420
F820
0020
ENDCHAR
STARTCHAR Wgrave
ENCODING 7808
SWIDTH 795 0
DWIDTH 19 0
BBX 17 20 1 0
BITMAP
020000
030000
010000
008000
000000
808080
81C080
C14180
C14180
414100
422100
422100
622300
263200
241200
241200
341200
1C0E00
180C00
180C00
ENDCHAR
STARTCHAR wgrave
ENCODING 7809
SWIDTH 682 0
DWIDTH 16 0
BBX 16 17 0 0
BITMAP
0600
0300
0100
0080
0000
C181
4183
4182
6142
2246
2244
3264
1224
1428
1428
1C18
0C18
ENDCHAR
STARTCHAR Wacute
ENCODING 7810
SWIDTH 795 0
DWIDTH 19 0
BBX 17 20 1 0
BITMAP
002000
006000
004000
008000
000000
808080
81C080
C14180
C14180
414100
422100
422100
622300
263200
241200
241200
341200
1C0E00
180C00
180C00
ENDCHAR
STARTCHAR wacute
ENCODING 7811
SWIDTH 682 0
DWIDTH 16 0
BBX 16 17 0 0
BITMAP
0060
0040
0080
0000
0000
C181
4183
4182
6142
2246
2244
3264
1224
1428
1428
1C18
0C18
ENDCHAR
STARTCHAR Wdieresis
ENCODING 7812
SWIDTH 795 0
DWIDTH 19 0
BBX 17 20 1 0
BITMAP
022000
022000
022000
000000
000000
808080
81C080
C14180
C14180
414100
422100
422100
622300
263200
241200
241200
341200
1C0E00
180C00
180C00
ENDCHAR
STARTCHAR wdieresis
ENCODING 7813
SWIDTH 682 0
DWIDTH 16 0
BBX 16 17 0 0
BITMAP
0220
0220
0220
0000
0000
C181
4183
4182
6142
2246
2244
3264
1224
1428
1428
1C18
0C18
ENDCHAR
STARTCHAR uni1E9E
ENCODING 7838
SWIDTH 542 0
DWIDTH 13 0
BBX 10 15 2 0
BITMAP
7F80
C080
8100
8100
8200
8600
8700
8080
80C0
80C0
80C0
80C0
80C0
8080
8F00
ENDCHAR
STARTCHAR Ygrave
ENCODING 7922
SWIDTH 493 0
DWIDTH 12 0
BBX 10 20 1 0
BITMAP
2000
1000
0800
0400
0000
8040
C0C0
4080
6180
2100
3300
1200
1C00
0C00
0C00
0C00
0C00
0C00
0C00
0C00
ENDCHAR
STARTCHAR ygrave
ENCODING 7923
SWIDTH 459 0
DWIDTH 11 0
BBX 9 20 1 -3
BITMAP
3000
1800
0800
0000
0000
8080
8080
4180
4100
4100
2200
2200
3600
1400
1400
1C00
0800
0800
1000
E000
ENDCHAR
STARTCHAR uni200B
ENCODING 8203
SWIDTH 0 0
DWIDTH 0 0
BBX 1 1 0 0
BITMAP
00
ENDCHAR
STARTCHAR uni200C
ENCODING 8204
SWIDTH 0 0
DWIDTH 0 0
BBX 2 25 -1 -5
BITMAP
C0
C0
C0
C0
C0
C0
C0
C0
C0
C0
C0
C0
C0
C0
C0
C0
C0
C0
C0
C0
C0
C0
C0
C0
C0
ENDCHAR
STARTCHAR uni200D
ENCODING 8205
SWIDTH 0 0
DWIDTH 0 0
BBX 6 25 -3 -5
BITMAP
84
CC
78
30
78
FC
30
30
30
30
30
30
30
30
30
30
30
30
30
30
30
30
30
30
30
ENDCHAR
STARTCHAR endash
ENCODING 8211
SWIDTH 408 0
DWIDTH 10 0
BBX 8 1 1 7
BITMAP
FF
ENDCHAR
STARTCHAR emdash
ENCODING 8212
SWIDTH 537 0
DWIDTH 13 0
BBX 11 1 1 7
BITMAP
FFE0
ENDCHAR
STARTCHAR quoteleft
ENCODING 8216
SWIDTH 179 0
DWIDTH 4 0
BBX 1 6 2 10
BITMAP
80
80
80
80
80
80
ENDCHAR
STARTCHAR quoteright
ENCODING 8217
SWIDTH 179 0
DWIDTH 4 0
BBX 1 6 2 9
BITMAP
80
80
80
80
80
80
ENDCHAR
STARTCHAR quotesinglbase
ENCODING 8218
SWIDTH 187 0
DWIDTH 4 0
BBX 1 6 2 -2
BITMAP
80
80
80
80
80
80
ENDCHAR
STARTCHAR quotedblleft
ENCODING 8220
SWIDTH 329 0
DWIDTH 8 0
BBX 4 6 2 10
BITMAP
90
90
90
90
90
90
ENDCHAR
STARTCHAR quotedblright
ENCODING 8221
SWIDTH 329 0
DWIDTH 8 0
BBX 4 6 2 9
BITMAP
90
90
90
90
90
90
ENDCHAR
STARTCHAR quotedblbase
ENCODING 8222
SWIDTH 337 0
DWIDTH 8 0
BBX 4 6 2 -2
BITMAP
90
90
90
90
90
90
ENDCHAR
STARTCHAR dagger
ENCODING 8224
SWIDTH 427 0
DWIDTH 10 0
BBX 8 15 1 0
BITMAP
18
08
08
08
FF
08
08
08
08
08
08
08
08
08
08
ENDCHAR
STARTCHAR daggerdbl
ENCODING 8225
SWIDTH 427 0
DWIDTH 10 0
BBX 8 15 1 0
BITMAP
18
08
08
08
FF
08
08
08
08
08
FF
08
08
08
18
ENDCHAR
STARTCHAR bullet
ENCODING 8226
SWIDTH 273 0
DWIDTH 7 0
BBX 2 4 2 6
BITMAP
C0
C0
C0
C0
ENDCHAR
STARTCHAR ellipsis
ENCODING 8230
SWIDTH 591 0
DWIDTH 14 0
BBX 11 3 2 0
BITMAP
8C60
8C60
8C60
ENDCHAR
STARTCHAR perthousand
ENCODING 8240
SWIDTH 1027 0
DWIDTH 25 0
BBX 23 15 1 0
BITMAP
782000
C42000
844000
844000
848000
848000
7C8000
010000
013C3C
024242
024242
044242
044242
084246
083C3C
ENDCHAR
STARTCHAR guilsinglleft
ENCODING 8249
SWIDTH 290 0
DWIDTH 7 0
BBX 3 8 2 2
BITMAP
20
20
40
80
80
40
20
20
ENDCHAR
STARTCHAR guilsinglright
ENCODING 8250
SWIDTH 290 0
DWIDTH 7 0
BBX 3 8 2 2
BITMAP
80
80
40
20
20
40
80
80
ENDCHAR
STARTCHAR fraction
ENCODING 8260
SWIDTH 117 0
DWIDTH 3 0
BBX 12 15 -5 0
BITMAP
0010
0030
0020
0040
0080
0100
0100
0200
0400
0800
1800
1000
2000
4000
C000
ENDCHAR
STARTCHAR Euro
ENCODING 8364
SWIDTH 523 0
DWIDTH 13 0
BBX 10 15 1 0
BITMAP
1F80
30C0
2040
2040
2000
FE00
2000
2000
FE00
2000
2000
2040
2040
3080
1F80
ENDCHAR
STARTCHAR uni20B9
ENCODING 8377
SWIDTH 414 0
DWIDTH 10 0
BBX 8 15 1 0
BITMAP
FF
08
0C
FF
0C
08
08
F0
C0
40
20
30
10
08
0C
ENDCHAR
STARTCHAR trademark
ENCODING 8482
SWIDTH 591 0
DWIDTH 14 0
BBX 11 6 2 9
BITMAP
F460
4660
46A0
45A0
4520
4420
ENDCHAR
STARTCHAR uni2126
ENCODING 8486
SWIDTH 629 0
DWIDTH 15 0
BBX 13 15 1 0
BITMAP
1FC0
2020
6030
6010
6010
6010
6010
6010
6010
6010
6010
6010
6030
2020
FDF8
ENDCHAR
STARTCHAR partialdiff
ENCODING 8706
SWIDTH 481 0
DWIDTH 12 0
BBX 9 16 1 0
BITMAP
3800
0600
0300
0100
0080
0080
3E80
6180
4080
C080
C080
C080
C080
C080
4180
3F00
ENDCHAR
STARTCHAR uni2206
ENCODING 8710
SWIDTH 594 0
DWIDTH 14 0
BBX 13 15 1 0
BITMAP
0600
0600
0D00
0900
0980
1880
1080
10C0
2040
2040
6020
4020
4030
C010
FFF8
ENDCHAR
STARTCHAR minus
ENCODING 8722
SWIDTH 523 0
DWIDTH 13 0
BBX 9 1 2 7
BITMAP
FF80
ENDCHAR
STARTCHAR approxequal
ENCODING 8776
SWIDTH 523 0
DWIDTH 13 0
BBX 9 6 2 5
BITMAP
F080
8F80
0000
0000
F080
8F80
ENDCHAR
STARTCHAR notequal
ENCODING 8800
SWIDTH 523 0
DWIDTH 13 0
BBX 9 11 2 2
BITMAP
0600
0400
0400
FF80
0800
0800
1000
FF80
1000
2000
2000
ENDCHAR
STARTCHAR lessequal
ENCODING 8804
SWIDTH 523 0
DWIDTH 13 0
BBX 9 9 2 3
BITMAP
0180
0E00
F000
C000
7800
0700
0080
0000
FF80
ENDCHAR
STARTCHAR greaterequal
ENCODING 8805
SWIDTH 523 0
DWIDTH 13 0
BBX 9 9 2 3
BITMAP
C000
7800
0700
0180
0E00
F000
8000
0000
FF80
ENDCHAR
STARTCHAR uni25CC
ENCODING 9676
SWIDTH 701 0
DWIDTH 17 0
BBX 13 14 2 1
BITMAP
06C0
36C0
3030
0030
C000
C018
0018
C000
C018
0018
6020
6860
1F80
0100
ENDCHAR
STARTCHAR commaaccent
ENCODING 63171
SWIDTH 0 0
DWIDTH 0 0
BBX 1 5 5 -6
BITMAP
80
80
80
80
80
ENDCHAR
STARTCHAR .notdef
ENCODING -1
SWIDTH 600 0
DWIDTH 14 0
BBX 9 14 3 0
BITMAP
FF80
8180
8180
8180
8180
8180
8180
8180
8180
8180
8180
8180
8180
FF80
ENDCHAR
STARTCHAR .null
ENCODING -1
SWIDTH 0 0
DWIDTH 0 0
BBX 1 1 0 0
BITMAP
00
ENDCHAR
STARTCHAR nonmarkingreturn
ENCODING -1
SWIDTH 333 0
DWIDTH 8 0
BBX 1 1 0 0
BITMAP
00
ENDCHAR
STARTCHAR uni0915094D
ENCODING -1
SWIDTH 519 0
DWIDTH 12 0
BBX 16 15 0 0
BITMAP
FFFF
0080
0080
1CBC
30C2
2083
6080
6080
6080
6080
2080
2180
1F80
0080
0080
ENDCHAR
STARTCHAR uni0916094D
ENCODING -1
SWIDTH 468 0
DWIDTH 11 0
BBX 14 15 0 0
BITMAP
FFFC
0400
0400
0400
0470
04C0
0480
7880
4080
2080
3084
1078
0800
0C00
0600
ENDCHAR
STARTCHAR uni0917094D
ENCODING -1
SWIDTH 264 0
DWIDTH 6 0
BBX 7 10 0 5
BITMAP
FE
10
10
10
10
10
10
10
10
E0
ENDCHAR
STARTCHAR uni0918094D
ENCODING -1
SWIDTH 321 0
DWIDTH 8 0
BBX 11 13 0 2
BITMAP
FFE0
2000
2000
2000
2000
2000
1E00
3000
2000
2000
2000
2060
1FC0
ENDCHAR
STARTCHAR uni0919094D
ENCODING -1
SWIDTH 505 0
DWIDTH 12 0
BBX 12 20 0 -5
BITMAP
FFF0
0080
0080
0080
1F80
2000
2020
2000
1F80
00C0
0040
2040
2040
20C0
1F80
0000
0400
0200
0100
0180
ENDCHAR
STARTCHAR uni091A094D
ENCODING -1
SWIDTH 330 0
DWIDTH 8 0
BBX 11 12 0 3
BITMAP
FFE0
0000
0000
0000
0000
7F00
1800
1000
1000
1000
1060
0FC0
ENDCHAR
STARTCHAR uni091B094D
ENCODING -1
SWIDTH 581 0
DWIDTH 14 0
BBX 14 14 0 1
BITMAP
FFFC
3000
2000
20E0
2030
2010
2010
1C10
3010
2010
2010
2010
2030
1FE0
ENDCHAR
STARTCHAR uni091C094D
ENCODING -1
SWIDTH 309 0
DWIDTH 7 0
BBX 10 13 0 2
BITMAP
FFC0
0000
0000
0000
0000
3FC0
0400
0600
0200
0200
0600
0400
7C00
ENDCHAR
STARTCHAR uni091D094D
ENCODING -1
SWIDTH 432 0
DWIDTH 10 0
BBX 13 16 0 -1
BITMAP
FFF8
0100
0100
1F00
2000
2000
2000
2000
1FF8
0080
2080
2080
2080
3F00
2000
2000
ENDCHAR
STARTCHAR uni091E094D
ENCODING -1
SWIDTH 359 0
DWIDTH 9 0
BBX 11 13 0 2
BITMAP
FFE0
0000
0000
0000
7C00
0600
0200
0200
03E0
0200
0200
0600
7C00
ENDCHAR
STARTCHAR uni091F094D
ENCODING -1
SWIDTH 485 0
DWIDTH 12 0
BBX 12 20 0 -5
BITMAP
FFF0
0080
0080
0080
1F80
3000
2000
2000
2000
2040
2040
2040
2040
1F80
0000
0000
0600
0300
0100
0080
ENDCHAR
STARTCHAR uni0920094D
ENCODING -1
SWIDTH 512 0
DWIDTH 12 0
BBX 13 20 0 -5
BITMAP
FFF8
0080
0080
0080
1F00
30C0
2040
2040
2040
2040
2040
2040
2040
1F80
0000
0000
0600
0300
0100
0080
ENDCHAR
STARTCHAR uni0921094D
ENCODING -1
SWIDTH 475 0
DWIDTH 11 0
BBX 12 20 0 -5
BITMAP
FFF0
0080
0080
0080
1F80
2000
2000
2000
2000
1F80
00C0
0040
2040
20C0
1F80
0000
0600
0200
0100
0180
ENDCHAR
STARTCHAR uni0922094D
ENCODING -1
SWIDTH 485 0
DWIDTH 12 0
BBX 12 20 0 -5
BITMAP
FFF0
0080
0080
0080
1F80
3000
2000
2000
21C0
2240
2240
2040
2040
1FC0
0000
0000
0600
0300
0100
0080
ENDCHAR
STARTCHAR uni0923094D
ENCODING -1
SWIDTH 454 0
DWIDTH 11 0
BBX 11 11 0 4
BITMAP
FFE0
2080
2080
2080
2080
2080
2080
2080
2080
3180
1F00
ENDCHAR
STARTCHAR uni0924094D
ENCODING -1
SWIDTH 263 0
DWIDTH 6 0
BBX 9 15 0 0
BITMAP
FF80
0000
0000
0000
0000
1F80
3000
2000
2000
2000
2000
2000
2000
2000
1C00
ENDCHAR
STARTCHAR uni0925094D
ENCODING -1
SWIDTH 359 0
DWIDTH 9 0
BBX 11 12 1 3
BITMAP
3C00
6600
4200
4200
0200
0600
FC00
C000
C000
4000
4060
3F80
ENDCHAR
STARTCHAR uni0926094D
ENCODING -1
SWIDTH 489 0
DWIDTH 12 0
BBX 12 19 0 -4
BITMAP
FFF0
00C0
00C0
00C0
1FC0
3000
2000
2000
2000
2040
2040
20C0
1FC0
0040
0040
0600
0200
0100
0080
ENDCHAR
STARTCHAR uni0927094D
ENCODING -1
SWIDTH 321 0
DWIDTH 8 0
BBX 11 13 0 2
BITMAP
FDE0
2000
2000
2000
2000
2000
1E00
3000
2000
2000
2000
2060
1FC0
ENDCHAR
STARTCHAR uni0928094D
ENCODING -1
SWIDTH 233 0
DWIDTH 6 0
BBX 8 11 0 4
BITMAP
FF
00
00
00
00
00
3F
40
40
40
40
ENDCHAR
STARTCHAR uni092A094D
ENCODING -1
SWIDTH 269 0
DWIDTH 6 0
BBX 10 11 0 4
BITMAP
FFC0
2000
2000
2000
2000
2000
2000
2000
2000
30C0
1F00
ENDCHAR
STARTCHAR uni092B094D
ENCODING -1
SWIDTH 530 0
DWIDTH 13 0
BBX 16 15 0 0
BITMAP
FFFF
20C0
20C0
20FE
20E3
20C0
20C0
20C0
30C0
1FC0
00C0
00C0
00C0
00C0
00C0
ENDCHAR
STARTCHAR uni092C094D
ENCODING -1
SWIDTH 265 0
DWIDTH 6 0
BBX 9 13 0 2
BITMAP
FF80
0000
0000
1E00
3000
3000
2800
2400
2200
2180
2180
2080
1F00
ENDCHAR
STARTCHAR uni092D094D
ENCODING -1
SWIDTH 261 0
DWIDTH 6 0
BBX 9 11 0 4
BITMAP
C380
6000
2000
2000
2000
2000
2000
3F80
2000
2000
2000
ENDCHAR
STARTCHAR uni092E094D
ENCODING -1
SWIDTH 261 0
DWIDTH 6 0
BBX 9 11 0 4
BITMAP
FF80
2000
2000
2000
2000
2000
2000
3F80
2000
2000
2000
ENDCHAR
STARTCHAR uni092F094D
ENCODING -1
SWIDTH 323 0
DWIDTH 8 0
BBX 11 12 0 3
BITMAP
FFC0
0400
0400
0400
0400
3800
2000
2000
2000
2000
3060
1F80
ENDCHAR
STARTCHAR uni0930094D
ENCODING -1
SWIDTH 337 0
DWIDTH 8 0
BBX 8 20 0 -5
BITMAP
FF
04
04
04
04
04
04
78
40
20
30
10
08
0C
06
00
18
08
04
06
ENDCHAR
STARTCHAR uni0932094D
ENCODING -1
SWIDTH 431 0
DWIDTH 10 0
BBX 14 14 0 1
BITMAP
FFFC
0000
0000
0000
1E70
3388
2180
2100
2100
2100
2000
2000
2000
1E00
ENDCHAR
STARTCHAR uni0933094D
ENCODING -1
SWIDTH 677 0
DWIDTH 16 0
BBX 17 14 0 1
BITMAP
FFFF80
000000
000000
000000
1E7800
318C00
218400
218400
218400
218400
218400
218400
218400
1E7800
ENDCHAR
STARTCHAR uni0935094D
ENCODING -1
SWIDTH 255 0
DWIDTH 6 0
BBX 9 13 0 2
BITMAP
FF80
0000
0000
1E00
3000
2000
2000
2000
2000
2080
2080
2080
1F00
ENDCHAR
STARTCHAR uni0936094D
ENCODING -1
SWIDTH 378 0
DWIDTH 9 0
BBX 7 15 1 0
BITMAP
3C
46
42
42
02
02
06
FC
C0
40
20
30
10
08
0C
ENDCHAR
STARTCHAR uni0937094D
ENCODING -1
SWIDTH 282 0
DWIDTH 7 0
BBX 10 11 0 4
BITMAP
FFC0
2000
3000
2800
2400
2200
2100
2180
20C0
3080
1F00
ENDCHAR
STARTCHAR uni0938094D
ENCODING -1
SWIDTH 338 0
DWIDTH 8 0
BBX 11 15 0 0
BITMAP
FFE0
0C00
0C00
0C00
0C00
0C00
0800
7FE0
4000
2000
3000
1000
1800
0800
0400
ENDCHAR
STARTCHAR uni0939094D
ENCODING -1
SWIDTH 457 0
DWIDTH 11 0
BBX 13 16 0 -1
BITMAP
FFF0
0080
0080
0080
1F80
3000
2000
2000
1FF8
3000
2000
2000
2000
2000
3000
1FC0
ENDCHAR
STARTCHAR uni0915093C094D
ENCODING -1
SWIDTH 519 0
DWIDTH 12 0
BBX 16 16 0 -1
BITMAP
FFFF
0080
0080
1CBC
30C2
2083
6080
6080
6080
6080
2080
2180
1F80
0080
0080
1000
ENDCHAR
STARTCHAR uni0916093C094D
ENCODING -1
SWIDTH 463 0
DWIDTH 11 0
BBX 14 16 0 -1
BITMAP
FFFC
0400
0400
0400
0470
04C0
0480
7880
4080
2080
3084
1078
0800
0C00
0600
2000
ENDCHAR
STARTCHAR uni0917093C094D
ENCODING -1
SWIDTH 264 0
DWIDTH 6 0
BBX 7 15 0 0
BITMAP
FE
10
10
10
10
10
10
10
10
E0
00
00
00
00
30
ENDCHAR
STARTCHAR uni091C093C094D
ENCODING -1
SWIDTH 314 0
DWIDTH 8 0
BBX 10 17 0 -2
BITMAP
FFC0
0000
0000
0000
0000
3FC0
0400
0600
0200
0200
0600
0400
7C00
0000
0000
0000
2000
ENDCHAR
STARTCHAR uni0928093C094D
ENCODING -1
SWIDTH 241 0
DWIDTH 6 0
BBX 8 15 0 0
BITMAP
FF
00
00
00
00
00
3F
60
40
60
00
00
00
00
10
ENDCHAR
STARTCHAR uni092B093C094D
ENCODING -1
SWIDTH 530 0
DWIDTH 13 0
BBX 16 16 0 -1
BITMAP
FFFF
20C0
20C0
20FE
20E3
20C0
20C0
20C0
30C0
1FC0
00C0
00C0
00C0
00C0
00C0
1800
ENDCHAR
STARTCHAR uni092F093C094D
ENCODING -1
SWIDTH 325 0
DWIDTH 8 0
BBX 11 16 0 -1
BITMAP
FFC0
0400
0400
0400
0400
3800
2000
2000
2000
2000
3060
1F80
0000
0000
0000
0800
ENDCHAR
STARTCHAR uni09080902
ENCODING -1
SWIDTH 478 0
DWIDTH 11 0
BBX 12 22 0 -1
BITMAP
01E0
0300
0200
0240
0200
0200
FFF0
0080
0080
0080
1F80
2000
2000
2000
3F80
00C0
0040
2040
2040
20C0
3F80
2000
ENDCHAR
STARTCHAR uni09300941
ENCODING -1
SWIDTH 533 0
DWIDTH 13 0
BBX 13 15 0 0
BITMAP
FFF8
0400
0400
0400
07C0
0420
0420
7820
4020
2020
30C0
1180
0800
0C00
0600
ENDCHAR
STARTCHAR uni09300942
ENCODING -1
SWIDTH 645 0
DWIDTH 15 0
BBX 16 15 0 0
BITMAP
FFFF
0400
0400
0400
0478
048C
0484
7884
4004
200C
3018
1060
0840
0C00
0600
ENDCHAR
STARTCHAR uni09390941
ENCODING -1
SWIDTH 495 0
DWIDTH 12 0
BBX 12 21 0 -6
BITMAP
FFF0
0080
0080
1F80
3000
2000
2000
2000
1F80
3080
2040
2040
2000
2000
3000
1F80
0040
4040
2040
1040
0F80
ENDCHAR
STARTCHAR uni09390942
ENCODING -1
SWIDTH 492 0
DWIDTH 12 0
BBX 12 21 0 -6
BITMAP
FFF0
0080
0080
0080
1F80
3000
2000
2000
2000
1F80
30C0
2040
2040
2000
3000
1F00
3080
2040
2040
3020
1C20
ENDCHAR
STARTCHAR uni09260943
ENCODING -1
SWIDTH 390 0
DWIDTH 9 0
BBX 10 14 0 1
BITMAP
FFC0
0200
0200
1E00
3000
2000
2000
2000
1E00
2000
2000
2000
2000
1F00
ENDCHAR
STARTCHAR uni09390943
ENCODING -1
SWIDTH 519 0
DWIDTH 12 0
BBX 13 18 0 -3
BITMAP
FFF8
0080
0080
0080
1F80
2000
2000
2000
1FE0
3220
2620
2600
2600
2200
23E0
2000
2000
1F80
ENDCHAR
STARTCHAR uni094D0930
ENCODING -1
SWIDTH 0 0
DWIDTH 0 0
BBX 8 5 -10 -4
BITMAP
10
18
24
66
C3
ENDCHAR
STARTCHAR uni0930094D.1
ENCODING -1
SWIDTH 192 0
DWIDTH 5 0
BBX 9 7 -2 8
BITMAP
3E00
0000
0000
0000
0000
C080
7F00
ENDCHAR
STARTCHAR uni0930094D.2
ENCODING -1
SWIDTH 0 0
DWIDTH 0 0
BBX 4 7 -3 14
BITMAP
70
80
80
80
80
80
80
ENDCHAR
STARTCHAR uni0930094D0902
ENCODING -1
SWIDTH 0 0
DWIDTH 0 0
BBX 4 7 -3 14
BITMAP
70
80
80
A0
80
80
80
ENDCHAR
STARTCHAR uni093E0930094D
ENCODING -1
SWIDTH 231 0
DWIDTH 6 0
BBX 6 21 0 0
BITMAP
1C
30
20
20
20
20
FC
20
20
20
20
20
20
20
20
20
20
20
20
20
20
ENDCHAR
STARTCHAR uni093E0930094D0902
ENCODING -1
SWIDTH 231 0
DWIDTH 6 0
BBX 6 21 0 0
BITMAP
1C
30
20
24
20
20
FC
20
20
20
20
20
20
20
20
20
20
20
20
20
20
ENDCHAR
STARTCHAR uni0930094D.aMatraI
ENCODING -1
SWIDTH 0 0
DWIDTH 0 0
BBX 4 5 -1 15
BITMAP
70
C0
80
80
80
ENDCHAR
STARTCHAR uni0902.aMatraI
ENCODING -1
SWIDTH 0 0
DWIDTH 0 0
BBX 1 1 1 18
BITMAP
80
ENDCHAR
STARTCHAR uni0930094D0902.aMatraI
ENCODING -1
SWIDTH 0 0
DWIDTH 0 0
BBX 4 5 -1 15
BITMAP
70
C0
80
A0
80
ENDCHAR
STARTCHAR uni09400930094D
ENCODING -1
SWIDTH 231 0
DWIDTH 6 0
BBX 9 21 -3 0
BITMAP
7B80
8600
8400
8400
0400
0400
1F80
0400
0400
0400
0400
0400
0400
0400
0400
0400
0400
0400
0400
0400
0400
ENDCHAR
STARTCHAR uni09400902
ENCODING -1
SWIDTH 231 0
DWIDTH 6 0
BBX 9 21 -3 0
BITMAP
7800
8400
8480
8400
0400
0400
1F80
0400
0400
0400
0400
0400
0400
0400
0400
0400
0400
0400
0400
0400
0400
ENDCHAR
STARTCHAR uni09400930094D0902
ENCODING -1
SWIDTH 231 0
DWIDTH 6 0
BBX 9 21 -3 0
BITMAP
7B80
8600
8400
8480
0400
0400
1F80
0400
0400
0400
0400
0400
0400
0400
0400
0400
0400
0400
0400
0400
0400
ENDCHAR
STARTCHAR uni0940.aLong
ENCODING -1
SWIDTH 231 0
DWIDTH 6 0
BBX 15 21 -9 0
BITMAP
7FE0
8010
8010
8010
0010
0010
007E
0010
0010
0010
0010
0010
0010
0010
0010
0010
0010
0010
0010
0010
0010
ENDCHAR
STARTCHAR uni09400930094D.aLong
ENCODING -1
SWIDTH 231 0
DWIDTH 6 0
BBX 15 21 -9 0
BITMAP
7FEE
8018
8010
8010
0010
0010
007E
0010
0010
0010
0010
0010
0010
0010
0010
0010
0010
0010
0010
0010
0010
ENDCHAR
STARTCHAR uni09400902.aLong
ENCODING -1
SWIDTH 231 0
DWIDTH 6 0
BBX 15 21 -9 0
BITMAP
7FE0
8010
8012
8010
0010
0010
007E
0010
0010
0010
0010
0010
0010
0010
0010
0010
0010
0010
0010
0010
0010
ENDCHAR
STARTCHAR uni09400930094D0902.aLong
ENCODING -1
SWIDTH 231 0
DWIDTH 6 0
BBX 15 21 -9 0
BITMAP
7FEE
8018
8010
8012
0010
0010
007E
0010
0010
0010
0010
0010
0010
0010
0010
0010
0010
0010
0010
0010
0010
ENDCHAR
STARTCHAR uni09470930094D
ENCODING -1
SWIDTH 0 0
DWIDTH 0 0
BBX 8 7 -7 14
BITMAP
87
C8
48
28
18
18
08
ENDCHAR
STARTCHAR uni09470902
ENCODING -1
SWIDTH 0 0
DWIDTH 0 0
BBX 7 7 -7 14
BITMAP
80
C0
40
26
30
10
08
ENDCHAR
STARTCHAR uni09470901
ENCODING -1
SWIDTH 0 0
DWIDTH 0 0
BBX 12 7 -7 14
BITMAP
8180
C810
4810
2C20
37E0
1000
0800
ENDCHAR
STARTCHAR uni09470930094D0902
ENCODING -1
SWIDTH 0 0
DWIDTH 0 0
BBX 8 7 -7 14
BITMAP
87
C8
68
2A
18
18
08
ENDCHAR
STARTCHAR uni09480930094D
ENCODING -1
SWIDTH 0 0
DWIDTH 0 0
BBX 9 6 -8 15
BITMAP
CB80
4A00
2C00
3C00
1400
0C00
ENDCHAR
STARTCHAR uni09480902
ENCODING -1
SWIDTH 0 0
DWIDTH 0 0
BBX 9 6 -8 15
BITMAP
C400
6400
2580
1400
0C00
0400
ENDCHAR
STARTCHAR uni09480901
ENCODING -1
SWIDTH 0 0
DWIDTH 0 0
BBX 15 6 -8 15
BITMAP
C420
6506
2504
14FC
0C00
0400
ENDCHAR
STARTCHAR uni09480930094D0902
ENCODING -1
SWIDTH 0 0
DWIDTH 0 0
BBX 9 6 -8 15
BITMAP
CB80
4A00
2D00
3C00
1C00
0C00
ENDCHAR
STARTCHAR uni094B0930094D
ENCODING -1
SWIDTH 231 0
DWIDTH 6 0
BBX 8 21 -2 0
BITMAP
C7
4C
28
38
18
08
3F
08
08
08
08
08
08
08
08
08
08
08
08
08
08
ENDCHAR
STARTCHAR uni094B0902
ENCODING -1
SWIDTH 231 0
DWIDTH 6 0
BBX 8 21 -2 0
BITMAP
C0
40
22
30
10
08
3F
08
08
08
08
08
08
08
08
08
08
08
08
08
08
ENDCHAR
STARTCHAR uni094B0930094D0902
ENCODING -1
SWIDTH 231 0
DWIDTH 6 0
BBX 8 21 -2 0
BITMAP
C7
4C
28
39
18
08
3F
08
08
08
08
08
08
08
08
08
08
08
08
08
08
ENDCHAR
STARTCHAR uni094C0930094D
ENCODING -1
SWIDTH 231 0
DWIDTH 6 0
BBX 8 21 -2 0
BITMAP
9B
DC
5C
28
18
18
3F
08
08
08
08
08
08
08
08
08
08
08
08
08
08
ENDCHAR
STARTCHAR uni094C0902
ENCODING -1
SWIDTH 231 0
DWIDTH 6 0
BBX 8 21 -2 0
BITMAP
88
48
69
28
18
08
3F
08
08
08
08
08
08
08
08
08
08
08
08
08
08
ENDCHAR
STARTCHAR uni094C0930094D0902
ENCODING -1
SWIDTH 231 0
DWIDTH 6 0
BBX 8 21 -2 0
BITMAP
9B
DC
5C
29
18
18
3F
08
08
08
08
08
08
08
08
08
08
08
08
08
08
ENDCHAR
STARTCHAR uni0915094D0937
ENCODING -1
SWIDTH 656 0
DWIDTH 16 0
BBX 14 15 2 0
BITMAP
3C3C
6220
4220
4220
4220
4220
7FE0
8020
8020
8220
8220
8220
FE20
0220
0220
ENDCHAR
STARTCHAR uni0915094D0937094D
ENCODING -1
SWIDTH 429 0
DWIDTH 10 0
BBX 11 15 2 0
BITMAP
3C00
6200
4200
4200
4200
4200
7FE0
8000
8000
8200
8200
8200
FE00
0200
0200
ENDCHAR
STARTCHAR uni0915094D0937094D092E
ENCODING -1
SWIDTH 933 0
DWIDTH 22 0
BBX 21 15 2 0
BITMAP
3C7FF8
621040
421040
421040
421040
421040
7FF040
801FC0
801040
821040
821040
820040
FE0040
020040
020040
ENDCHAR
STARTCHAR uni0915094D0937094D092E094D
ENCODING -1
SWIDTH 717 0
DWIDTH 17 0
BBX 18 15 2 0
BITMAP
3C7FC0
621000
421000
421000
421000
421000
7FF000
801FC0
801000
821000
821000
820000
FE0000
020000
020000
ENDCHAR
STARTCHAR uni0915094D0937094D092E094D092F
ENCODING -1
SWIDTH 1283 0
DWIDTH 31 0
BBX 29 15 2 0
BITMAP
3C7FFFF8
62100860
42100C60
42100C60
42100C60
42100860
7FF07860
801FC060
80104060
82104060
82006060
82003FE0
FE000060
02000060
02000020
ENDCHAR
STARTCHAR uni0915094D0937094D092F
ENCODING -1
SWIDTH 989 0
DWIDTH 24 0
BBX 22 15 2 0
BITMAP
3C7FFC
620430
420430
420630
420630
420430
7FFC30
802030
802030
822030
823070
821FF0
FE0030
020030
020020
ENDCHAR
STARTCHAR uni0915094D0937094D0935
ENCODING -1
SWIDTH 936 0
DWIDTH 22 0
BBX 21 15 2 0
BITMAP
3C7FF8
620040
420040
420E40
421040
421040
7FF040
803040
803040
823040
823040
8210C0
FE0FC0
020040
020040
ENDCHAR
STARTCHAR uni091C094D091E
ENCODING -1
SWIDTH 629 0
DWIDTH 15 0
BBX 15 16 0 -1
BITMAP
FFFE
0008
0008
0008
1FF8
2008
2008
2008
3F08
0088
2048
2048
20C8
3F88
2008
2000
ENDCHAR
STARTCHAR uni091C094D091E094D
ENCODING -1
SWIDTH 398 0
DWIDTH 10 0
BBX 12 16 0 -1
BITMAP
FFF0
0000
0000
0000
1FF0
2000
2000
2000
3F00
0080
2040
2040
20C0
3F80
2000
2000
ENDCHAR
STARTCHAR uni091C094D091E094D092F
ENCODING -1
SWIDTH 975 0
DWIDTH 23 0
BBX 24 16 0 -1
BITMAP
FFFFFF
000108
000108
000108
1FF108
201108
201E08
201808
3F1808
009808
204818
2047E8
20C008
3F8008
200008
200000
ENDCHAR
STARTCHAR uni0915094D0928
ENCODING -1
SWIDTH 1003 0
DWIDTH 24 0
BBX 24 15 0 0
BITMAP
FFFFFF
008004
008004
1CBC04
30C204
208304
6081FC
608204
608204
608204
208204
218004
1F8004
008004
008004
ENDCHAR
STARTCHAR uni0916094D0928
ENCODING -1
SWIDTH 958 0
DWIDTH 23 0
BBX 23 15 0 0
BITMAP
FFFFFE
040008
040008
040008
047808
04CC08
0487F8
788408
408408
208408
307C08
100408
080008
0C0008
060008
ENDCHAR
STARTCHAR uni0917094D0928
ENCODING -1
SWIDTH 736 0
DWIDTH 18 0
BBX 18 15 0 0
BITMAP
FFFFC0
100200
100200
100200
100200
100200
10FE00
108200
118200
E18200
008200
000200
000200
000200
000200
ENDCHAR
STARTCHAR uni0918094D0928
ENCODING -1
SWIDTH 814 0
DWIDTH 20 0
BBX 20 15 0 0
BITMAP
FFFFF0
200080
200080
200080
200080
1E0080
303F80
206080
204080
206080
1FA080
000080
000080
000080
000080
ENDCHAR
STARTCHAR uni091A094D0928
ENCODING -1
SWIDTH 829 0
DWIDTH 20 0
BBX 20 15 0 0
BITMAP
FFFFF0
000040
000040
000040
7F0040
180040
101FC0
102040
102040
102040
106040
0FE040
000040
000040
000040
ENDCHAR
STARTCHAR uni091B094D0928
ENCODING -1
SWIDTH 977 0
DWIDTH 23 0
BBX 24 15 0 0
BITMAP
FFFFFF
300008
200008
20E008
203008
201008
2013F8
1C1608
301408
201408
201208
201008
203008
1FE008
000008
ENDCHAR
STARTCHAR uni091C094D0928
ENCODING -1
SWIDTH 831 0
DWIDTH 20 0
BBX 20 15 0 0
BITMAP
FFFFF0
000040
000040
000040
000040
000040
3FFFC0
042040
062040
022040
020040
060040
040040
7C0040
000040
ENDCHAR
STARTCHAR uni091D094D0928
ENCODING -1
SWIDTH 935 0
DWIDTH 22 0
BBX 23 16 0 -1
BITMAP
FFFFFE
010010
010010
1F0010
200010
200010
2007F0
200C10
1FF810
008810
208410
208010
208010
3F0010
200010
200000
ENDCHAR
STARTCHAR uni091F094D0928
ENCODING -1
SWIDTH 494 0
DWIDTH 12 0
BBX 12 21 0 -6
BITMAP
FFF0
0080
0080
0080
0080
1F80
3000
2000
2020
2060
2060
2040
1F80
0080
0080
1F80
2080
2080
2080
2080
0080
ENDCHAR
STARTCHAR uni0920094D0928
ENCODING -1
SWIDTH 516 0
DWIDTH 12 0
BBX 13 21 0 -6
BITMAP
FFF8
00C0
00C0
0080
1F80
30C0
2040
2060
2060
2060
2040
2040
1F80
0080
0080
1F80
2080
2080
2080
2080
0080
ENDCHAR
STARTCHAR uni0921094D0928
ENCODING -1
SWIDTH 481 0
DWIDTH 12 0
BBX 12 21 0 -6
BITMAP
FFF0
0080
0080
0080
1F80
2000
2000
2000
3F80
00C0
2040
2040
3F80
0080
0080
1F80
2080
2080
2080
2080
0080
ENDCHAR
STARTCHAR uni0924094D0928
ENCODING -1
SWIDTH 756 0
DWIDTH 18 0
BBX 18 15 0 0
BITMAP
FFFFC0
000100
000100
000100
000100
1F8100
30FF00
208100
208100
208100
200100
200100
200100
200100
1C0100
ENDCHAR
STARTCHAR uni0925094D0928
ENCODING -1
SWIDTH 855 0
DWIDTH 21 0
BBX 20 15 1 0
BITMAP
3CFFF0
660080
420080
420080
020080
060080
FC3F80
C06080
C04080
404080
406080
3FA080
000080
000080
000080
ENDCHAR
STARTCHAR uni0926094D0928
ENCODING -1
SWIDTH 955 0
DWIDTH 23 0
BBX 23 20 0 -5
BITMAP
FFFFFE
00C008
00C008
00C008
1FC008
300008
2003F8
200408
200408
204408
204008
20C008
1FC008
004008
004008
000000
004000
006000
002000
001000
ENDCHAR
STARTCHAR uni0927094D0928
ENCODING -1
SWIDTH 814 0
DWIDTH 20 0
BBX 20 15 0 0
BITMAP
FC7FF0
200080
200080
200080
200080
1E0080
303F80
206080
204080
204080
206080
1FA080
000080
000080
000080
ENDCHAR
STARTCHAR uni0928094D0928
ENCODING -1
SWIDTH 738 0
DWIDTH 18 0
BBX 18 15 0 0
BITMAP
FFFFC0
000300
000300
000300
000300
000300
3FFF00
608300
418300
408300
200300
000300
000300
000300
000300
ENDCHAR
STARTCHAR uni092A094D0928
ENCODING -1
SWIDTH 782 0
DWIDTH 19 0
BBX 19 15 0 0
BITMAP
FFFFE0
200180
200180
200180
200180
200180
207F80
204180
30C180
1F4180
000180
000180
000180
000180
000180
ENDCHAR
STARTCHAR uni092B094D0928
ENCODING -1
SWIDTH 1013 0
DWIDTH 24 0
BBX 25 15 0 0
BITMAP
FFFFFF80
20C00400
20C00400
20FC0400
20E20400
20C10400
20C1FC00
20C20400
30C20400
1FC30400
00C00400
00C00400
00C00400
00C00400
00C00400
ENDCHAR
STARTCHAR uni092C094D0928
ENCODING -1
SWIDTH 810 0
DWIDTH 19 0
BBX 20 15 0 0
BITMAP
FFFFF0
000080
000080
1E0080
300080
300080
283F80
246080
224080
234080
21A080
208080
1F0080
000080
000080
ENDCHAR
STARTCHAR uni092D094D0928
ENCODING -1
SWIDTH 757 0
DWIDTH 18 0
BBX 19 15 0 0
BITMAP
C3FFE0
600100
200100
200100
200100
200100
207F00
3F8100
208100
208100
200100
000100
000100
000100
000100
ENDCHAR
STARTCHAR uni092E094D0928
ENCODING -1
SWIDTH 757 0
DWIDTH 18 0
BBX 19 15 0 0
BITMAP
FFFFE0
200100
200100
200100
200100
200100
207F00
3F8100
208100
208100
200100
000100
000100
000100
000100
ENDCHAR
STARTCHAR uni092F094D0928
ENCODING -1
SWIDTH 829 0
DWIDTH 20 0
BBX 20 15 0 0
BITMAP
FFFFF0
040040
040040
040040
040040
380040
203FC0
202040
202040
306040
1FA040
000040
000040
000040
000040
ENDCHAR
STARTCHAR uni0935094D0928
ENCODING -1
SWIDTH 798 0
DWIDTH 19 0
BBX 19 15 0 0
BITMAP
FFFFE0
000080
000080
1E0080
300080
200080
203F80
204080
204080
204080
200080
208080
1F0080
000080
000080
ENDCHAR
STARTCHAR uni0936094D0928
ENCODING -1
SWIDTH 845 0
DWIDTH 20 0
BBX 20 15 1 0
BITMAP
3C7FF0
460080
420080
420080
420080
020080
063F80
FC4080
C04080
406080
200080
300080
100080
080080
0C0080
ENDCHAR
STARTCHAR uni0938094D0928
ENCODING -1
SWIDTH 831 0
DWIDTH 20 0
BBX 20 15 0 0
BITMAP
FFFFF0
0C0040
0C0040
0C0040
0C0040
0C0040
083FC0
7FE040
402040
202040
300040
100040
180040
080040
040040
ENDCHAR
STARTCHAR uni0939094D0928
ENCODING -1
SWIDTH 500 0
DWIDTH 12 0
BBX 12 17 0 -2
BITMAP
FFF0
0040
0040
0040
1FC0
3000
2000
2000
1FE0
30E0
21A0
2220
2220
2220
2300
3000
1FC0
ENDCHAR
STARTCHAR uni0915094D0930
ENCODING -1
SWIDTH 725 0
DWIDTH 17 0
BBX 18 16 0 -1
BITMAP
FFFFC0
008000
008000
1CBC00
30C200
208100
608100
608100
608100
608100
208100
218200
1F9E00
068000
0C8000
100000
ENDCHAR
STARTCHAR uni0916094D0930
ENCODING -1
SWIDTH 698 0
DWIDTH 17 0
BBX 17 16 0 -1
BITMAP
FFFF80
040600
040600
040600
047600
04C600
048600
788600
408600
208600
307E00
101600
083600
0C2600
064600
00C000
ENDCHAR
STARTCHAR uni0917094D0930
ENCODING -1
SWIDTH 494 0
DWIDTH 12 0
BBX 12 15 0 0
BITMAP
FFF0
10C0
10C0
10C0
10C0
10C0
10C0
10C0
10C0
E1C0
03C0
06C0
0CC0
18C0
30C0
ENDCHAR
STARTCHAR uni0918094D0930
ENCODING -1
SWIDTH 559 0
DWIDTH 13 0
BBX 14 16 0 -1
BITMAP
FFFC
2020
2020
2020
2020
2020
1E20
3020
2020
2020
2020
2060
1FA0
0120
0620
1800
ENDCHAR
STARTCHAR uni0919094D0930
ENCODING -1
SWIDTH 505 0
DWIDTH 12 0
BBX 12 19 0 -4
BITMAP
FFF0
0080
0080
0080
1F80
2000
2020
2000
1F80
00C0
0040
0040
2040
20C0
3F80
0E00
0900
1180
3080
ENDCHAR
STARTCHAR uni091A094D0930
ENCODING -1
SWIDTH 563 0
DWIDTH 14 0
BBX 14 16 0 -1
BITMAP
FFFC
0020
0020
0020
0020
7F20
1820
1020
1020
1020
1060
0FE0
01A0
0220
0420
0800
ENDCHAR
STARTCHAR uni091B094D0930
ENCODING -1
SWIDTH 581 0
DWIDTH 14 0
BBX 14 18 0 -3
BITMAP
FFFC
3030
2030
2030
20E0
2030
2010
1C10
3010
2010
2010
2010
2030
1FE0
0780
0480
0840
1020
ENDCHAR
STARTCHAR uni091C094D0930
ENCODING -1
SWIDTH 547 0
DWIDTH 13 0
BBX 13 16 0 -1
BITMAP
FFF8
0020
0020
0020
0020
3FE0
0420
0620
0220
0220
0620
0460
7CA0
0120
0220
0400
ENDCHAR
STARTCHAR uni091D094D0930
ENCODING -1
SWIDTH 684 0
DWIDTH 16 0
BBX 17 16 0 -1
BITMAP
FFFF80
010400
010400
1F0400
200400
200400
200400
200400
1FFC00
008400
208400
208C00
209C00
3F3400
206400
20C000
ENDCHAR
STARTCHAR uni091E094D0930
ENCODING -1
SWIDTH 598 0
DWIDTH 14 0
BBX 15 16 0 -1
BITMAP
FFFE
0010
0010
0010
7C10
0610
0210
0210
03F0
0210
0210
0630
7C50
0190
0310
0200
ENDCHAR
STARTCHAR uni091F094D0930
ENCODING -1
SWIDTH 485 0
DWIDTH 12 0
BBX 12 17 0 -2
BITMAP
FFF0
0080
0080
0080
1F80
3000
2000
2000
2000
2040
2040
2040
2040
1F80
0700
0980
10C0
ENDCHAR
STARTCHAR uni0920094D0930
ENCODING -1
SWIDTH 512 0
DWIDTH 12 0
BBX 13 18 0 -3
BITMAP
FFF8
0080
0080
0080
1F00
30C0
2040
2040
2040
2040
2040
2040
2040
1F80
0700
0980
1880
1040
ENDCHAR
STARTCHAR uni0921094D0930
ENCODING -1
SWIDTH 475 0
DWIDTH 11 0
BBX 12 19 0 -4
BITMAP
FFF0
0080
0080
0080
1F80
2000
2000
2000
1F80
00C0
0040
0040
2040
20C0
3F80
0F00
0900
1180
30C0
ENDCHAR
STARTCHAR uni0922094D0930
ENCODING -1
SWIDTH 485 0
DWIDTH 12 0
BBX 12 18 0 -3
BITMAP
FFF0
0080
0080
0080
1F80
3000
2000
2000
21C0
2240
2240
2040
2040
1FC0
0700
0980
1880
1040
ENDCHAR
STARTCHAR uni0923094D0930
ENCODING -1
SWIDTH 681 0
DWIDTH 16 0
BBX 17 15 0 0
BITMAP
FFFF80
208400
208400
208400
208400
208400
208400
208400
208400
318C00
1F1400
002400
004400
00C400
018400
ENDCHAR
STARTCHAR uni0924094D0930
ENCODING -1
SWIDTH 493 0
DWIDTH 12 0
BBX 12 15 0 0
BITMAP
FFF0
00C0
00C0
00C0
00C0
1FC0
20C0
20C0
20C0
20C0
01C0
03C0
04C0
18C0
30C0
ENDCHAR
STARTCHAR uni0925094D0930
ENCODING -1
SWIDTH 593 0
DWIDTH 14 0
BBX 14 16 1 -1
BITMAP
3C3C
6620
4220
4220
0220
0620
FC20
C020
C020
4020
4060
3FA0
0120
0620
0C20
1800
ENDCHAR
STARTCHAR uni0926094D0930
ENCODING -1
SWIDTH 489 0
DWIDTH 12 0
BBX 12 16 0 -1
BITMAP
FFF0
00C0
00C0
00C0
1FC0
3000
2000
2000
2000
2040
2040
20C0
1FC0
0240
0440
0800
ENDCHAR
STARTCHAR uni0927094D0930
ENCODING -1
SWIDTH 560 0
DWIDTH 13 0
BBX 14 16 0 -1
BITMAP
FCFC
2020
2020
2020
2020
2020
1E20
3020
2020
2020
2020
2060
1FE0
0120
0220
0C00
ENDCHAR
STARTCHAR uni0928094D0930
ENCODING -1
SWIDTH 473 0
DWIDTH 11 0
BBX 12 15 0 0
BITMAP
FFF0
0080
0080
0080
0080
0080
3F80
6080
4180
4380
2280
0480
0880
1080
2080
ENDCHAR
STARTCHAR uni092A094D0930
ENCODING -1
SWIDTH 503 0
DWIDTH 12 0
BBX 12 16 0 -1
BITMAP
FFF0
2040
2040
2040
2040
2040
2040
2040
2040
30C0
1F40
0240
0440
0840
1040
2000
ENDCHAR
STARTCHAR uni092B094D0930
ENCODING -1
SWIDTH 741 0
DWIDTH 18 0
BBX 18 16 0 -1
BITMAP
FFFFC0
20C000
20C000
20FE00
20E300
20C100
20C100
20C100
30C100
1FC100
02C100
06C300
0CDE00
18C000
10C000
200000
ENDCHAR
STARTCHAR uni092C094D0930
ENCODING -1
SWIDTH 491 0
DWIDTH 12 0
BBX 12 16 0 -1
BITMAP
FFF0
00C0
00C0
1EC0
30C0
30C0
28C0
24C0
22C0
21C0
20C0
20C0
1FC0
02C0
0CC0
1800
ENDCHAR
STARTCHAR uni092D094D0930
ENCODING -1
SWIDTH 491 0
DWIDTH 12 0
BBX 12 15 0 0
BITMAP
C3F0
60C0
20C0
20C0
20C0
20C0
20C0
3FC0
20C0
21C0
23C0
06C0
0CC0
08C0
30C0
ENDCHAR
STARTCHAR uni092E094D0930
ENCODING -1
SWIDTH 490 0
DWIDTH 12 0
BBX 12 15 0 0
BITMAP
FFF0
20C0
20C0
20C0
20C0
20C0
20C0
3FC0
20C0
21C0
23C0
06C0
0CC0
18C0
30C0
ENDCHAR
STARTCHAR uni092F094D0930
ENCODING -1
SWIDTH 564 0
DWIDTH 14 0
BBX 14 16 0 -1
BITMAP
FFFC
0420
0420
0420
0420
3820
2020
2020
2020
2020
3060
1FE0
01A0
0220
0420
1800
ENDCHAR
STARTCHAR uni0935094D0930
ENCODING -1
SWIDTH 484 0
DWIDTH 12 0
BBX 12 16 0 -1
BITMAP
FFF0
0080
0080
1E80
3080
2080
2080
2080
2080
2080
2080
2080
1F80
0680
0C80
1800
ENDCHAR
STARTCHAR uni0936094D0930
ENCODING -1
SWIDTH 558 0
DWIDTH 13 0
BBX 13 15 1 0
BITMAP
3C78
4640
4240
4240
4240
6440
3C40
3C40
E640
81C0
0340
0C40
3840
1040
0040
ENDCHAR
STARTCHAR uni0938094D0930
ENCODING -1
SWIDTH 604 0
DWIDTH 15 0
BBX 15 15 0 0
BITMAP
FFFE
0C10
0C10
0C10
0C10
0C10
0810
7FF0
4030
2050
3090
1190
1810
0810
0410
ENDCHAR
STARTCHAR uni0939094D0930
ENCODING -1
SWIDTH 505 0
DWIDTH 12 0
BBX 12 17 0 -2
BITMAP
FFF0
0040
0040
0040
1FC0
2000
2000
2000
1FC0
30E0
2160
2360
2660
2460
2000
2000
1F80
ENDCHAR
STARTCHAR uni0915093C094D0930
ENCODING -1
SWIDTH 725 0
DWIDTH 17 0
BBX 18 17 0 -2
BITMAP
FFFFC0
008000
008000
1CBC00
30C200
208100
608100
608100
608100
608100
208100
218200
1F9E00
068000
088000
100000
040000
ENDCHAR
STARTCHAR uni0916093C094D0930
ENCODING -1
SWIDTH 698 0
DWIDTH 17 0
BBX 17 17 0 -2
BITMAP
FFFF80
040600
040600
040600
047600
04C600
048600
788600
408600
208600
307E00
181600
083600
042600
064600
008000
003000
ENDCHAR
STARTCHAR uni0917093C094D0930
ENCODING -1
SWIDTH 494 0
DWIDTH 12 0
BBX 12 17 0 -2
BITMAP
FFF0
10C0
10C0
10C0
10C0
10C0
10C0
10C0
10C0
E1C0
03C0
06C0
0CC0
08C0
30C0
0000
0400
ENDCHAR
STARTCHAR uni091C093C094D0930
ENCODING -1
SWIDTH 547 0
DWIDTH 13 0
BBX 13 16 0 -1
BITMAP
FFF8
0020
0020
0020
0020
3FE0
0420
0620
0220
0220
0620
0460
7CA0
0120
0220
4400
ENDCHAR
STARTCHAR uni0921093C094D0930
ENCODING -1
SWIDTH 475 0
DWIDTH 11 0
BBX 12 19 0 -4
BITMAP
FFF0
0080
0080
0080
1F80
2000
2000
2000
1F80
00C0
0040
0040
2040
20C0
3F80
8F00
0900
1080
30C0
ENDCHAR
STARTCHAR uni0922093C094D0930
ENCODING -1
SWIDTH 485 0
DWIDTH 12 0
BBX 12 18 0 -3
BITMAP
FFF0
0080
0080
0080
1F80
3000
2000
2000
21C0
2240
2240
2040
2040
1FC0
8500
0980
1080
1040
ENDCHAR
STARTCHAR uni0928093C094D0930
ENCODING -1
SWIDTH 473 0
DWIDTH 11 0
BBX 12 17 0 -2
BITMAP
FFF0
0080
0080
0080
0080
0080
3F80
6080
4180
4380
2280
0480
0880
1080
2080
0000
0800
ENDCHAR
STARTCHAR uni092B093C094D0930
ENCODING -1
SWIDTH 741 0
DWIDTH 18 0
BBX 18 17 0 -2
BITMAP
FFFFC0
20C000
20C000
20FE00
20E300
20C100
20C100
20C100
30C100
1FC100
02C100
06C300
0CDE00
18C000
10C000
200000
040000
ENDCHAR
STARTCHAR uni092F093C094D0930
ENCODING -1
SWIDTH 564 0
DWIDTH 14 0
BBX 14 17 0 -2
BITMAP
FFFC
0420
0420
0420
0420
3820
2020
2020
2020
2020
3060
1FE0
01A0
0220
0420
1800
0100
ENDCHAR
STARTCHAR uni0915094D0930094D
ENCODING -1
SWIDTH 518 0
DWIDTH 12 0
BBX 16 16 0 -1
BITMAP
FFFF
0080
0080
1CBC
30C2
2083
6080
6080
6080
6080
2080
2180
1F80
0680
0C80
1000
ENDCHAR
STARTCHAR uni0916094D0930094D
ENCODING -1
SWIDTH 469 0
DWIDTH 11 0
BBX 14 16 0 -1
BITMAP
FFFC
0400
0400
0400
0470
04C0
0480
7880
4084
2084
3078
1010
0830
0C20
0640
00C0
ENDCHAR
STARTCHAR uni0917094D0930094D
ENCODING -1
SWIDTH 264 0
DWIDTH 6 0
BBX 9 15 0 0
BITMAP
FE00
1000
1000
1000
1000
1000
1000
1000
1080
E100
0300
0600
0C00
1800
3000
ENDCHAR
STARTCHAR uni0918094D0930094D
ENCODING -1
SWIDTH 319 0
DWIDTH 8 0
BBX 11 16 0 -1
BITMAP
FFC0
2000
2000
2000
2000
2000
1E00
3000
2000
2000
2000
2060
1F80
0100
0600
1800
ENDCHAR
STARTCHAR uni091A094D0930094D
ENCODING -1
SWIDTH 331 0
DWIDTH 8 0
BBX 11 16 0 -1
BITMAP
FFC0
0000
0000
0000
0000
7F00
1800
1000
1000
1000
1060
0FC0
0180
0300
0400
0800
ENDCHAR
STARTCHAR uni091C094D0930094D
ENCODING -1
SWIDTH 312 0
DWIDTH 7 0
BBX 11 16 0 -1
BITMAP
FFC0
0000
0000
0000
0000
3FC0
0400
0600
0200
0200
0620
0440
7C80
0100
0200
0400
ENDCHAR
STARTCHAR uni091D094D0930094D
ENCODING -1
SWIDTH 441 0
DWIDTH 11 0
BBX 14 16 0 -1
BITMAP
FFF8
0100
0100
1F00
2000
2000
2000
2000
1FFC
008C
208C
2088
2098
3F30
2060
20C0
ENDCHAR
STARTCHAR uni091E094D0930094D
ENCODING -1
SWIDTH 374 0
DWIDTH 9 0
BBX 12 16 0 -1
BITMAP
FFE0
0000
0000
0000
7C00
0600
0200
0200
03F0
0210
0210
0620
7C40
0080
0100
0200
ENDCHAR
STARTCHAR uni091F094D0930094D
ENCODING -1
SWIDTH 485 0
DWIDTH 12 0
BBX 12 22 0 -7
BITMAP
FFF0
0080
0080
0080
1F80
3000
2000
2000
2000
2040
2040
2040
2040
1F80
0700
0980
10C0
0200
0200
0100
0180
0080
ENDCHAR
STARTCHAR uni0920094D0930094D
ENCODING -1
SWIDTH 512 0
DWIDTH 12 0
BBX 13 22 0 -7
BITMAP
FFF8
0080
0080
0080
1F00
30C0
2040
2040
2040
2040
2040
2040
2040
1F80
0700
0980
1880
1040
0200
0100
0180
0080
ENDCHAR
STARTCHAR uni0921094D0930094D
ENCODING -1
SWIDTH 475 0
DWIDTH 11 0
BBX 12 23 0 -8
BITMAP
FFF0
0080
0080
0080
1F80
2000
2000
2000
1F80
00C0
0040
0040
2040
20C0
3F80
0E00
0900
1080
30C0
0600
0300
0100
0080
ENDCHAR
STARTCHAR uni0922094D0930094D
ENCODING -1
SWIDTH 485 0
DWIDTH 12 0
BBX 12 22 0 -7
BITMAP
FFF0
0080
0080
0080
1F80
3000
2000
2000
21C0
2240
2240
2040
2040
1FC0
0500
0980
1880
1040
0200
0100
0180
0080
ENDCHAR
STARTCHAR uni0923094D0930094D
ENCODING -1
SWIDTH 457 0
DWIDTH 11 0
BBX 14 15 0 0
BITMAP
FFE0
2080
2080
2080
2080
2080
2080
2080
2084
3188
1F10
0020
0040
0080
0180
ENDCHAR
STARTCHAR uni0924094D0930094D
ENCODING -1
SWIDTH 268 0
DWIDTH 6 0
BBX 10 15 0 0
BITMAP
FFC0
0000
0000
0000
0000
1F00
2080
2080
2080
2080
0180
0300
0400
1800
3000
ENDCHAR
STARTCHAR uni0925094D0930094D
ENCODING -1
SWIDTH 358 0
DWIDTH 9 0
BBX 10 16 1 -1
BITMAP
3C00
6600
4200
4200
0200
0600
FC00
C000
C000
4000
4040
3F80
0100
0600
0C00
1800
ENDCHAR
STARTCHAR uni0926094D0930094D
ENCODING -1
SWIDTH 489 0
DWIDTH 12 0
BBX 12 20 0 -5
BITMAP
FFF0
00C0
00C0
00C0
1FC0
3000
2000
2000
2000
2040
2040
20C0
1FC0
0240
0440
0800
0100
0080
00C0
0040
ENDCHAR
STARTCHAR uni0927094D0930094D
ENCODING -1
SWIDTH 322 0
DWIDTH 8 0
BBX 11 16 0 -1
BITMAP
FCC0
2000
2000
2000
2000
2000
1E00
3000
2000
2000
2000
2060
1FC0
0100
0200
0C00
ENDCHAR
STARTCHAR uni0928094D0930094D
ENCODING -1
SWIDTH 247 0
DWIDTH 6 0
BBX 9 15 0 0
BITMAP
FF80
0000
0000
0000
0000
0000
3F80
6080
4080
4100
2200
0400
0800
1000
2000
ENDCHAR
STARTCHAR uni092A094D0930094D
ENCODING -1
SWIDTH 270 0
DWIDTH 6 0
BBX 10 16 0 -1
BITMAP
FF00
2000
2000
2000
2000
2000
2000
2000
2000
30C0
1F00
0200
0400
0800
1000
2000
ENDCHAR
STARTCHAR uni092B094D0930094D
ENCODING -1
SWIDTH 523 0
DWIDTH 13 0
BBX 17 16 -1 -1
BITMAP
FFFF80
104000
104000
105E00
106180
106000
104000
104000
104000
0FC000
014000
024000
044000
0C4000
184000
100000
ENDCHAR
STARTCHAR uni092C094D0930094D
ENCODING -1
SWIDTH 267 0
DWIDTH 6 0
BBX 10 16 0 -1
BITMAP
FF80
0000
0000
1E00
3000
3000
2800
2400
2200
2140
2180
2080
1F00
0200
0C00
1800
ENDCHAR
STARTCHAR uni092D094D0930094D
ENCODING -1
SWIDTH 257 0
DWIDTH 6 0
BBX 9 15 0 0
BITMAP
C380
6000
2000
2000
2000
2000
2000
3F80
2080
2100
2200
0600
0C00
1800
3000
ENDCHAR
STARTCHAR uni092E094D0930094D
ENCODING -1
SWIDTH 261 0
DWIDTH 6 0
BBX 9 15 0 0
BITMAP
FF80
2000
2000
2000
2000
2000
2000
3F80
2080
2100
2200
0600
0C00
1800
3000
ENDCHAR
STARTCHAR uni092F094D0930094D
ENCODING -1
SWIDTH 323 0
DWIDTH 8 0
BBX 11 16 0 -1
BITMAP
FF80
0400
0400
0400
0400
3800
2000
2000
2000
2020
3060
1FC0
0180
0300
0400
1800
ENDCHAR
STARTCHAR uni0935094D0930094D
ENCODING -1
SWIDTH 255 0
DWIDTH 6 0
BBX 9 16 0 -1
BITMAP
FF00
0000
0000
1E00
3000
2000
2000
2000
2000
2000
2000
2080
1F00
0600
0C00
1800
ENDCHAR
STARTCHAR uni0938094D0930094D
ENCODING -1
SWIDTH 347 0
DWIDTH 8 0
BBX 11 15 0 0
BITMAP
FFC0
0C00
0C00
0C00
0C00
0C00
0800
7FE0
4020
2040
3080
1100
1B00
0800
0400
ENDCHAR
STARTCHAR uni0915093C094D0930094D
ENCODING -1
SWIDTH 518 0
DWIDTH 12 0
BBX 16 17 0 -2
BITMAP
FFFF
0080
0080
1CBC
30C2
2083
6080
6080
6080
6080
2080
2180
1F80
0680
0C80
1000
0400
ENDCHAR
STARTCHAR uni0916093C094D0930094D
ENCODING -1
SWIDTH 466 0
DWIDTH 11 0
BBX 14 17 0 -2
BITMAP
FFFC
0400
0400
0400
0470
04C0
0480
7880
4084
2084
3078
1010
0830
0C20
0640
00C0
0010
ENDCHAR
STARTCHAR uni0917093C094D0930094D
ENCODING -1
SWIDTH 264 0
DWIDTH 6 0
BBX 9 17 0 -2
BITMAP
FE00
1000
1000
1000
1000
1000
1000
1000
1080
E100
0300
0600
0C00
0800
3000
0000
0400
ENDCHAR
STARTCHAR uni091C093C094D0930094D
ENCODING -1
SWIDTH 320 0
DWIDTH 8 0
BBX 11 17 0 -2
BITMAP
FFC0
0000
0000
0000
0000
3FC0
0400
0600
0200
0200
0620
0440
7C80
0180
0300
0600
4000
ENDCHAR
STARTCHAR uni0928093C094D0930094D
ENCODING -1
SWIDTH 247 0
DWIDTH 6 0
BBX 9 17 0 -2
BITMAP
FF80
0000
0000
0000
0000
0000
3F80
6080
4080
4100
2200
0400
0C00
1800
3000
0000
0C00
ENDCHAR
STARTCHAR uni092B093C094D0930094D
ENCODING -1
SWIDTH 523 0
DWIDTH 13 0
BBX 17 17 -1 -2
BITMAP
FFFF80
104000
104000
105E00
106180
106000
104000
104000
104000
0FC000
014000
024000
044000
0C4000
184000
000000
060000
ENDCHAR
STARTCHAR uni092F093C094D0930094D
ENCODING -1
SWIDTH 323 0
DWIDTH 8 0
BBX 11 17 0 -2
BITMAP
FF80
0400
0400
0400
0400
3800
2000
2000
2000
2020
3060
1FC0
0180
0200
0400
1800
0100
ENDCHAR
STARTCHAR uni0915094D0915
ENCODING -1
SWIDTH 1255 0
DWIDTH 30 0
BBX 30 15 0 0
BITMAP
FFFFFFFC
00800400
00800400
1CBCE5E0
30C30610
20830418
60820418
60820418
60820418
60820418
20820418
21810C10
1F81F4E0
00800400
00800400
ENDCHAR
STARTCHAR uni0915094D0916
ENCODING -1
SWIDTH 1256 0
DWIDTH 30 0
BBX 30 15 0 0
BITMAP
FFFFFFFC
00803010
00803010
1CBC3010
30C63190
20823210
60822410
6083E410
60810410
60818410
20808630
218043D0
1F806010
00802010
00801010
ENDCHAR
STARTCHAR uni0915094D091A
ENCODING -1
SWIDTH 1086 0
DWIDTH 26 0
BBX 26 15 0 0
BITMAP
FFFFFFC0
00800100
00800100
1CB80100
30C40100
2087F100
60808100
60810100
60810100
60810100
20818300
2180FD00
1F800100
00800100
00800100
ENDCHAR
STARTCHAR uni0915094D091C
ENCODING -1
SWIDTH 1071 0
DWIDTH 26 0
BBX 26 15 0 0
BITMAP
FFFFFFC0
00800300
00800300
1C800300
30BDFF00
20C06300
60802300
60802300
60802300
60802300
20802300
21802300
1F87C300
00800300
00800300
ENDCHAR
STARTCHAR uni0915094D091F
ENCODING -1
SWIDTH 984 0
DWIDTH 24 0
BBX 24 15 0 0
BITMAP
FFFFFF
008008
008008
1CBC08
30C3F8
208300
608200
608200
608200
608204
208204
218204
1F8204
0081F8
008000
ENDCHAR
STARTCHAR uni0915094D0923
ENCODING -1
SWIDTH 1183 0
DWIDTH 28 0
BBX 29 15 0 0
BITMAP
FFFFFFF8
00820840
00820840
1C820840
30BE0840
20C20840
60820840
60820840
60820840
60831840
2081F040
21800040
1F800040
00800040
00800040
ENDCHAR
STARTCHAR uni0915094D0924
ENCODING -1
SWIDTH 761 0
DWIDTH 18 0
BBX 19 15 0 0
BITMAP
FFFFE0
004000
004000
004000
004000
7FDE00
186100
104080
104080
104080
104080
104100
0E4F00
004000
004000
ENDCHAR
STARTCHAR uni0915094D0925
ENCODING -1
SWIDTH 1118 0
DWIDTH 27 0
BBX 27 15 0 0
BITMAP
FFF8E1E0
00811180
00811980
1C811180
30801180
20BFE180
60C20180
60820180
60820180
60820180
20810180
2180FF80
1F800180
00800180
00800180
ENDCHAR
STARTCHAR uni0915094D0926
ENCODING -1
SWIDTH 1009 0
DWIDTH 24 0
BBX 25 15 0 0
BITMAP
FFFFFF80
00800400
00800400
1CBC0400
30C3FC00
20830000
60820000
60820000
60820000
60820400
20820400
21830400
1F81FC00
00800400
00800400
ENDCHAR
STARTCHAR uni0915094D092A
ENCODING -1
SWIDTH 1007 0
DWIDTH 24 0
BBX 25 15 0 0
BITMAP
FFFFFF80
00820400
00820400
1C820400
30BE0400
20C20400
60820400
60820400
60820400
60830C00
2081F400
21800400
1F800400
00800400
00800400
ENDCHAR
STARTCHAR uni0915094D092B
ENCODING -1
SWIDTH 1242 0
DWIDTH 30 0
BBX 30 15 0 0
BITMAP
FFFFFFFC
00820400
00820400
1C8207E0
30BE0630
20C20410
60820410
60820C10
60830C10
6081F410
20800410
21800430
1F8005E0
00800400
00800400
ENDCHAR
STARTCHAR uni0915094D092E
ENCODING -1
SWIDTH 994 0
DWIDTH 24 0
BBX 24 15 0 0
BITMAP
FFFFFF
00820C
00820C
1C820C
30BE0C
20C20C
60820C
6083FC
60820C
60820C
20820C
21800C
1F800C
00800C
00800C
ENDCHAR
STARTCHAR uni0915094D092F
ENCODING -1
SWIDTH 1076 0
DWIDTH 26 0
BBX 26 15 0 0
BITMAP
FFFFFFC0
00804300
00806300
1C806300
30804300
20BFC300
60C20300
60820300
60820300
60820300
20830300
2181FF00
1F800300
00800300
00800300
ENDCHAR
STARTCHAR uni0915094D0932
ENCODING -1
SWIDTH 1178 0
DWIDTH 28 0
BBX 29 15 0 0
BITMAP
FFFFFFF8
00800040
00800040
1CBC0040
30C3E740
208338C0
60821840
60821040
60821040
60821040
20820040
21820040
1F830040
0081E040
00800040
ENDCHAR
STARTCHAR uni0915094D0935
ENCODING -1
SWIDTH 1013 0
DWIDTH 24 0
BBX 25 15 0 0
BITMAP
FFFFFF80
00800400
00800400
1CBCE400
30C30400
20830400
60820400
60820400
60820400
60820400
20830400
21810C00
1F80FC00
00800400
00800400
ENDCHAR
STARTCHAR uni0915094D0936
ENCODING -1
SWIDTH 1194 0
DWIDTH 29 0
BBX 29 15 0 0
BITMAP
FFFC7878
00808C40
00808440
1C808440
30BC0440
20C20440
60810C40
6081F840
60810040
60808040
2080C040
21804040
1F802040
00803040
00801840
ENDCHAR
STARTCHAR uni0915094D0938
ENCODING -1
SWIDTH 1143 0
DWIDTH 27 0
BBX 28 15 0 0
BITMAP
FFFFFFF0
00802080
00802080
1CBC2080
30C62080
20822080
60832080
6083FF80
60810080
60818080
20808080
2180C080
1F804080
00802080
00803080
ENDCHAR
STARTCHAR uni0916094D0916
ENCODING -1
SWIDTH 1223 0
DWIDTH 29 0
BBX 30 15 0 0
BITMAP
FFFFFFFC
04002020
04002020
04002020
04702320
04C02420
04806C20
7887C820
40820820
20830C20
30850460
107887E0
0800C020
0C004020
06002020
ENDCHAR
STARTCHAR uni0916094D0924
ENCODING -1
SWIDTH 984 0
DWIDTH 24 0
BBX 24 15 0 0
BITMAP
FFFFFF
040008
040008
040008
047008
04C1F8
048208
788608
408408
208408
308408
107C08
080608
0C0208
060388
ENDCHAR
STARTCHAR uni0916094D092E
ENCODING -1
SWIDTH 965 0
DWIDTH 23 0
BBX 24 15 0 0
BITMAP
FFFFFF
040408
040408
040408
047408
04C408
048408
7887F8
408408
208408
308408
107808
080008
0C0008
060008
ENDCHAR
STARTCHAR uni0916094D092F
ENCODING -1
SWIDTH 1047 0
DWIDTH 25 0
BBX 25 15 0 0
BITMAP
FFFFFF80
0400C200
04004200
04004200
0470C200
04C78200
04840200
78840200
40840200
20860200
30860600
107BFA00
08000200
0C000200
06000200
ENDCHAR
STARTCHAR uni0916094D0935
ENCODING -1
SWIDTH 975 0
DWIDTH 23 0
BBX 24 15 0 0
BITMAP
FFFFFF
040008
040008
0401C8
047208
04C608
048608
788408
408408
208408
308608
107A18
0801F8
0C0008
060008
ENDCHAR
STARTCHAR uni0916094D0936
ENCODING -1
SWIDTH 1123 0
DWIDTH 27 0
BBX 27 15 0 0
BITMAP
FFF1E0E0
04031080
04021080
04021080
04721080
04C01080
04801080
788FE080
40840080
20860080
30860080
107B0080
08018080
0C008080
06004080
ENDCHAR
STARTCHAR uni0917094D0917
ENCODING -1
SWIDTH 744 0
DWIDTH 18 0
BBX 18 15 0 0
BITMAP
FFFFC0
104300
104300
104300
104300
104300
104300
104300
104300
E38300
000300
000300
000300
000300
000300
ENDCHAR
STARTCHAR uni0917094D0918
ENCODING -1
SWIDTH 823 0
DWIDTH 20 0
BBX 20 15 0 0
BITMAP
FFFFF0
10C0C0
1080C0
1080C0
1080C0
10C0C0
1078C0
10C0C0
1080C0
E080C0
0080C0
00C0C0
007FC0
0000C0
0000C0
ENDCHAR
STARTCHAR uni0917094D091C
ENCODING -1
SWIDTH 801 0
DWIDTH 19 0
BBX 20 15 0 0
BITMAP
FFFFF0
100080
100080
100080
100080
10FF80
101080
100880
100880
E00880
000880
001080
01F080
000080
000080
ENDCHAR
STARTCHAR uni0917094D0923
ENCODING -1
SWIDTH 945 0
DWIDTH 23 0
BBX 23 15 0 0
BITMAP
FFFFFE
108210
108210
108210
108210
108210
108210
108210
108210
E04210
007C10
000010
000010
000010
000010
ENDCHAR
STARTCHAR uni0917094D0926
ENCODING -1
SWIDTH 748 0
DWIDTH 18 0
BBX 18 15 0 0
BITMAP
FFFFC0
100100
100100
100100
107F00
10C000
108000
108000
108000
E08100
008100
00C100
007F00
000100
000100
ENDCHAR
STARTCHAR uni0917094D0927
ENCODING -1
SWIDTH 823 0
DWIDTH 20 0
BBX 20 15 0 0
BITMAP
FFF3F0
10C0C0
1080C0
1080C0
1080C0
10C0C0
1038C0
10C0C0
1080C0
E080C0
0080C0
00C0C0
007FC0
0000C0
0000C0
ENDCHAR
STARTCHAR uni0917094D092C
ENCODING -1
SWIDTH 755 0
DWIDTH 18 0
BBX 18 15 0 0
BITMAP
FFFFC0
100100
100100
103900
10C100
10C100
10A100
109100
108900
E08500
008300
00C300
007D00
000100
000100
ENDCHAR
STARTCHAR uni0917094D092D
ENCODING -1
SWIDTH 755 0
DWIDTH 18 0
BBX 18 15 0 0
BITMAP
FF0FC0
108100
108100
108100
108100
108100
108100
10FF00
108100
E08100
008100
000100
000100
000100
000100
ENDCHAR
STARTCHAR uni0917094D092E
ENCODING -1
SWIDTH 754 0
DWIDTH 18 0
BBX 18 15 0 0
BITMAP
FFFFC0
108100
108100
108100
108100
108100
108100
10FF00
108100
E08100
008100
000100
000100
000100
000100
ENDCHAR
STARTCHAR uni0917094D092F
ENCODING -1
SWIDTH 828 0
DWIDTH 20 0
BBX 20 15 0 0
BITMAP
FFFFF0
101040
100840
100840
101840
10F040
108040
108040
1080C0
E080C0
0040C0
007F40
000040
000040
000040
ENDCHAR
STARTCHAR uni0917094D0932
ENCODING -1
SWIDTH 924 0
DWIDTH 22 0
BBX 23 15 0 0
BITMAP
FFFFFE
100010
100010
100010
1079D0
10CE30
108610
108410
108410
E08410
008010
008010
008010
007810
000010
ENDCHAR
STARTCHAR uni0917094D0935
ENCODING -1
SWIDTH 747 0
DWIDTH 18 0
BBX 18 15 0 0
BITMAP
FFFFC0
100100
100100
107900
10C100
108100
108100
108100
108100
E08100
008300
00C300
007D00
000100
000100
ENDCHAR
STARTCHAR uni0917094D0938
ENCODING -1
SWIDTH 839 0
DWIDTH 20 0
BBX 21 15 0 0
BITMAP
FFFFF8
101040
101040
101040
101040
101040
103040
11FFC0
118040
E08040
004040
004040
002040
003040
001040
ENDCHAR
STARTCHAR uni0918094D092E
ENCODING -1
SWIDTH 818 0
DWIDTH 20 0
BBX 20 15 0 0
BITMAP
FFFFF0
202080
202080
202080
202080
202080
1E2080
303F80
202080
202080
202080
206080
1FC080
000080
000080
ENDCHAR
STARTCHAR uni0918094D092F
ENCODING -1
SWIDTH 867 0
DWIDTH 21 0
BBX 21 15 0 0
BITMAP
FFFFF8
200860
200C60
200C60
200860
207860
1E4060
304060
204060
204060
206060
207FE0
1FC060
000060
000060
ENDCHAR
STARTCHAR uni091A094D091A
ENCODING -1
SWIDTH 868 0
DWIDTH 21 0
BBX 21 15 0 0
BITMAP
FFFFF8
000060
000060
000060
000060
7E7E60
183060
102060
102060
102060
107060
0FDFE0
000060
000060
000060
ENDCHAR
STARTCHAR uni091A094D091B
ENCODING -1
SWIDTH 922 0
DWIDTH 22 0
BBX 22 14 0 1
BITMAP
FFFFFC
003010
002010
002010
002010
7F20E0
183010
101C10
103010
102010
102010
0FE010
003010
001FE0
ENDCHAR
STARTCHAR uni091A094D092E
ENCODING -1
SWIDTH 830 0
DWIDTH 20 0
BBX 20 15 0 0
BITMAP
FFFFF0
002040
002040
002040
7F2040
182040
103FC0
102040
102040
102040
106040
0FC040
000040
000040
000040
ENDCHAR
STARTCHAR uni091A094D092F
ENCODING -1
SWIDTH 904 0
DWIDTH 22 0
BBX 22 15 0 0
BITMAP
FFFFFC
000420
000420
000620
000420
7F3C20
182020
102020
102020
102020
107060
0FDFE0
000020
000020
000020
ENDCHAR
STARTCHAR uni091B094D092F
ENCODING -1
SWIDTH 1068 0
DWIDTH 26 0
BBX 26 15 0 0
BITMAP
FFFFFFC0
30000200
20000200
20FFC200
20306200
20102200
20102200
1C102200
3013C200
20130200
20110200
20110600
2030FE00
1FE00200
00000200
ENDCHAR
STARTCHAR uni091B094D0935
ENCODING -1
SWIDTH 581 0
DWIDTH 14 0
BBX 14 17 0 -2
BITMAP
FFFC
3020
2020
2020
20E0
2030
1C10
3010
2010
2010
2030
1FE0
1020
1020
3020
1020
0FC0
ENDCHAR
STARTCHAR uni091C094D0915
ENCODING -1
SWIDTH 1054 0
DWIDTH 25 0
BBX 26 15 0 0
BITMAP
FFFFFFC0
00008000
00008000
001CBC00
0020C200
3FE08300
04608100
06608100
02608100
02608100
06608100
04218200
7C1F9E00
00008000
00008000
ENDCHAR
STARTCHAR uni091C094D091C
ENCODING -1
SWIDTH 903 0
DWIDTH 22 0
BBX 22 15 0 0
BITMAP
FFFFFC
000020
000020
000020
000020
3F9FE0
040620
060220
020220
020220
060220
040220
7C7C20
000020
000020
ENDCHAR
STARTCHAR uni091C094D091D
ENCODING -1
SWIDTH 990 0
DWIDTH 24 0
BBX 24 15 0 0
BITMAP
FFFFFF
00010C
00010C
001F0C
00200C
3FE00C
04200C
06200C
023FFC
02018C
06608C
04608C
7C608C
007F0C
006008
ENDCHAR
STARTCHAR uni091C094D091F
ENCODING -1
SWIDTH 815 0
DWIDTH 20 0
BBX 20 14 0 1
BITMAP
FFFFF0
000080
000080
000080
001F80
3FF000
046000
042000
062000
062040
062040
042040
7C2040
001F80
ENDCHAR
STARTCHAR uni091C094D0921
ENCODING -1
SWIDTH 797 0
DWIDTH 19 0
BBX 19 15 0 0
BITMAP
FFFFE0
000080
000080
000080
001F80
3FE000
046000
042000
063F80
060080
0600C0
0440C0
7C60C0
002080
003F80
ENDCHAR
STARTCHAR uni091C094D0924
ENCODING -1
SWIDTH 830 0
DWIDTH 20 0
BBX 20 15 0 0
BITMAP
FFFFF0
000040
000040
000040
000040
3FDFC0
043040
042040
062040
062040
062040
042040
7C2040
002040
001C40
ENDCHAR
STARTCHAR uni091C094D0926
ENCODING -1
SWIDTH 817 0
DWIDTH 20 0
BBX 20 15 0 0
BITMAP
FFFFF0
000080
000080
000080
001F80
3FF000
042000
066000
026000
026040
062040
0420C0
7C1F40
000040
000040
ENDCHAR
STARTCHAR uni091C094D092C
ENCODING -1
SWIDTH 820 0
DWIDTH 20 0
BBX 20 15 0 0
BITMAP
FFFFF0
000080
000080
001E80
003080
3FF080
047880
066C80
026680
026380
066180
042080
7C1F80
000080
000080
ENDCHAR
STARTCHAR uni091C094D092E
ENCODING -1
SWIDTH 813 0
DWIDTH 20 0
BBX 20 15 0 0
BITMAP
FFFFF0
002080
002080
002080
002080
3FE080
042080
063F80
022080
022080
062080
040080
7C0080
000080
000080
ENDCHAR
STARTCHAR uni091C094D092F
ENCODING -1
SWIDTH 893 0
DWIDTH 21 0
BBX 22 15 0 0
BITMAP
FFFFFC
000420
000420
000420
3FC420
047820
042020
062020
062020
062020
043060
041FA0
780020
000020
000020
ENDCHAR
STARTCHAR uni091C094D0935
ENCODING -1
SWIDTH 813 0
DWIDTH 20 0
BBX 20 15 0 0
BITMAP
FFFFF0
000080
000080
001C80
003080
3FE080
046080
066080
026080
026080
066080
042180
7C1F80
000080
000080
ENDCHAR
STARTCHAR uni091D094D092E
ENCODING -1
SWIDTH 936 0
DWIDTH 22 0
BBX 23 16 0 -1
BITMAP
FFFFFE
010410
010410
1F0410
200410
200410
200410
2007F0
1FFC10
008410
208410
208010
208010
3F0010
200010
200000
ENDCHAR
STARTCHAR uni091D094D092F
ENCODING -1
SWIDTH 1000 0
DWIDTH 24 0
BBX 24 16 0 -1
BITMAP
FFFFFF
010104
010084
1F0084
200184
200F04
200804
200804
1FF804
00880C
208C0C
2087F4
208004
3F0004
200004
200000
ENDCHAR
STARTCHAR uni091E094D091B
ENCODING -1
SWIDTH 913 0
DWIDTH 22 0
BBX 22 14 0 1
BITMAP
FFFFFC
003030
002030
7C2030
0420E0
022030
022010
03FC10
023010
022010
062010
7C2010
002030
001FE0
ENDCHAR
STARTCHAR uni091E094D091C
ENCODING -1
SWIDTH 932 0
DWIDTH 22 0
BBX 23 15 0 0
BITMAP
FFFFFE
000010
000010
000010
000010
7C1FF0
060210
020110
03C110
020110
020110
060310
7C3E10
000010
000010
ENDCHAR
STARTCHAR uni091E094D0936
ENCODING -1
SWIDTH 975 0
DWIDTH 23 0
BBX 24 15 0 0
BITMAP
FF8F0F
001108
003088
003088
7C3088
060188
020108
03FF08
022008
021008
021808
060808
7C0408
000608
000208
ENDCHAR
STARTCHAR uni091F094D091F
ENCODING -1
SWIDTH 494 0
DWIDTH 12 0
BBX 12 22 0 -7
BITMAP
FFF0
0080
0080
1F80
3000
2000
2000
2000
2040
2040
2040
1F80
0080
1F80
3000
2000
2000
2000
2040
2040
2040
1F80
ENDCHAR
STARTCHAR uni091F094D0920
ENCODING -1
SWIDTH 495 0
DWIDTH 12 0
BBX 12 22 0 -7
BITMAP
FFF0
0080
0080
1F80
3000
2000
2000
2000
2040
2040
2040
1F80
0080
1F00
30C0
2040
2040
2040
2040
2040
3040
1F80
ENDCHAR
STARTCHAR uni091F094D092F
ENCODING -1
SWIDTH 990 0
DWIDTH 24 0
BBX 24 15 0 0
BITMAP
FFFFFF
00800C
00800C
00800C
1FFF0C
30008C
20008C
20008C
20008C
20070C
20440C
20440C
20460C
1F83FC
00000C
ENDCHAR
STARTCHAR uni091F094D0935
ENCODING -1
SWIDTH 501 0
DWIDTH 12 0
BBX 12 17 0 -2
BITMAP
FFF0
0080
0080
0080
1F80
3000
2000
2000
2060
2060
2040
1FC0
3040
2040
2040
20C0
1F80
ENDCHAR
STARTCHAR uni0920094D092F
ENCODING -1
SWIDTH 998 0
DWIDTH 24 0
BBX 24 15 0 0
BITMAP
FFFFFF
008004
008004
008004
1F1F04
30E084
206084
2040C4
204084
204784
204404
20440C
20460C
1F83F4
000004
ENDCHAR
STARTCHAR uni0921094D0921
ENCODING -1
SWIDTH 493 0
DWIDTH 12 0
BBX 12 22 0 -7
BITMAP
FFF0
0080
0080
1F80
2000
2000
2000
3F80
00C0
0040
2040
2040
1F80
2000
2000
2000
3F80
00C0
0040
2040
2040
1F80
ENDCHAR
STARTCHAR uni0921094D0922
ENCODING -1
SWIDTH 493 0
DWIDTH 12 0
BBX 12 21 0 -6
BITMAP
FFF0
0080
0080
0080
1F80
2000
2000
2000
3F80
00C0
0040
2040
2040
1F80
3000
21C0
2240
2260
2040
3040
1F80
ENDCHAR
STARTCHAR uni0921094D092F
ENCODING -1
SWIDTH 973 0
DWIDTH 23 0
BBX 24 15 0 0
BITMAP
FFFFFF
008008
008008
008008
1FFF08
200188
200088
200188
1F8F08
00C808
004808
204418
2043E8
20C008
1F8008
ENDCHAR
STARTCHAR uni0921094D0935
ENCODING -1
SWIDTH 493 0
DWIDTH 12 0
BBX 12 18 0 -3
BITMAP
FFF0
0080
0080
1F80
2000
2000
2000
3F80
00C0
0040
2040
2040
3FC0
3040
2040
2040
30C0
1F80
ENDCHAR
STARTCHAR uni0922094D092F
ENCODING -1
SWIDTH 981 0
DWIDTH 24 0
BBX 24 15 0 0
BITMAP
FFFFFF
008008
008008
008008
1FFF08
300188
200088
200088
21C088
224F08
224808
224C08
204418
1FC3E8
000008
ENDCHAR
STARTCHAR uni0923094D091F
ENCODING -1
SWIDTH 908 0
DWIDTH 22 0
BBX 22 14 0 1
BITMAP
FFFFFC
208020
208020
208020
2087E0
208C00
208800
208800
208800
318800
1F0818
000818
000C10
0007E0
ENDCHAR
STARTCHAR uni0923094D0920
ENCODING -1
SWIDTH 936 0
DWIDTH 22 0
BBX 23 14 0 1
BITMAP
FFFFFE
208030
208030
208020
2087E0
208C10
208818
208808
208808
318808
1F0808
000818
000C10
0007E0
ENDCHAR
STARTCHAR uni0923094D0921
ENCODING -1
SWIDTH 892 0
DWIDTH 21 0
BBX 22 15 0 0
BITMAP
FFFFFC
208020
208020
208020
2087E0
208800
208800
208800
208FE0
318030
1F0010
000010
000810
000830
000FE0
ENDCHAR
STARTCHAR uni0923094D0922
ENCODING -1
SWIDTH 908 0
DWIDTH 22 0
BBX 22 14 0 1
BITMAP
FFFFFC
208020
208020
208020
2087E0
208C00
208800
208800
208870
318890
1F0888
000808
000C10
0007F0
ENDCHAR
STARTCHAR uni0923094D0923
ENCODING -1
SWIDTH 1127 0
DWIDTH 27 0
BBX 27 15 0 0
BITMAP
FFFFFFE0
20843080
20843080
20843080
20843080
20843080
20843080
20843080
20843080
31842080
1F03C080
00000080
00000080
00000080
00000080
ENDCHAR
STARTCHAR uni0923094D092E
ENCODING -1
SWIDTH 932 0
DWIDTH 22 0
BBX 23 15 0 0
BITMAP
FFFFFE
208C10
208C10
208C10
208C10
208C10
208C10
208FF0
208C10
318C10
1F0C10
000010
000010
000010
000010
ENDCHAR
STARTCHAR uni0923094D092F
ENCODING -1
SWIDTH 998 0
DWIDTH 24 0
BBX 24 15 0 0
BITMAP
FFFFFF
208104
208084
208084
208184
208F04
208804
208804
208804
31880C
1F040C
0003F4
000004
000004
000004
ENDCHAR
STARTCHAR uni0923094D0935
ENCODING -1
SWIDTH 923 0
DWIDTH 22 0
BBX 22 15 0 0
BITMAP
FFFFFC
208010
208010
208390
208410
208810
208810
208810
208810
318810
1F0810
000C30
0007D0
000010
000010
ENDCHAR
STARTCHAR uni0924094D0915
ENCODING -1
SWIDTH 992 0
DWIDTH 24 0
BBX 24 15 0 0
BITMAP
FFFFFF
000100
000100
0039F8
00418C
1F8104
308104
208104
208104
208104
208304
20C30C
207D78
200100
1C0100
ENDCHAR
STARTCHAR uni0924094D0916
ENCODING -1
SWIDTH 1014 0
DWIDTH 24 0
BBX 25 15 0 0
BITMAP
FFFFFF80
00040400
00040400
00040400
00046400
1F048400
208D8400
20F90400
20410400
20618400
20208C00
2010F400
20180400
20080400
1C040400
ENDCHAR
STARTCHAR uni0924094D0924
ENCODING -1
SWIDTH 542 0
DWIDTH 13 0
BBX 13 15 0 0
BITMAP
FFF8
0020
0020
0020
0020
7FE0
1820
1020
1020
1020
1020
1020
1020
1020
0E20
ENDCHAR
STARTCHAR uni0924094D0925
ENCODING -1
SWIDTH 869 0
DWIDTH 21 0
BBX 21 15 0 0
BITMAP
FE3838
004460
004460
004660
000460
000460
1FF860
308060
208060
208060
20C060
207FE0
200060
200060
1C0060
ENDCHAR
STARTCHAR uni0924094D092A
ENCODING -1
SWIDTH 757 0
DWIDTH 18 0
BBX 19 15 0 0
BITMAP
FFFFE0
008100
008100
008100
008100
1F8100
308100
208100
208100
20C300
207D00
200100
200100
200100
1C0100
ENDCHAR
STARTCHAR uni0924094D092B
ENCODING -1
SWIDTH 992 0
DWIDTH 24 0
BBX 24 15 0 0
BITMAP
FFFFFF
008100
008100
0081F8
00818C
1F8104
308104
208304
20C304
207D04
200104
20010C
200178
200100
1C0100
ENDCHAR
STARTCHAR uni0924094D092E
ENCODING -1
SWIDTH 764 0
DWIDTH 18 0
BBX 19 15 0 0
BITMAP
FFFFE0
00C100
00C100
00C100
00C100
1FC100
30C100
20FF00
20C100
20C100
20C100
200100
200100
200100
1C0100
ENDCHAR
STARTCHAR uni0924094D092F
ENCODING -1
SWIDTH 830 0
DWIDTH 20 0
BBX 20 15 0 0
BITMAP
FFFFF0
001040
000840
000840
000840
001040
1FF040
308040
208040
2080C0
20C0C0
207F40
200040
200040
1C0040
ENDCHAR
STARTCHAR uni0924094D0932
ENCODING -1
SWIDTH 957 0
DWIDTH 23 0
BBX 23 15 0 0
BITMAP
FFFFFE
000008
000008
000008
1F3CE8
30C518
20C218
20C208
20C208
20C208
20C008
204008
204008
203808
1C0008
ENDCHAR
STARTCHAR uni0924094D0935
ENCODING -1
SWIDTH 751 0
DWIDTH 18 0
BBX 18 15 0 0
BITMAP
FFFFC0
000100
000100
003900
004100
1F8100
308100
208100
208100
208100
208100
20C300
207D00
200100
1C0100
ENDCHAR
STARTCHAR uni0924094D0938
ENCODING -1
SWIDTH 876 0
DWIDTH 21 0
BBX 21 15 0 0
BITMAP
FFFFF8
000820
000820
000820
000820
1F0820
209020
20FFE0
20C020
204020
206020
202020
201020
201820
1C0820
ENDCHAR
STARTCHAR uni0925094D092F
ENCODING -1
SWIDTH 931 0
DWIDTH 22 0
BBX 22 15 1 0
BITMAP
3C7FFC
660420
420420
420420
020420
067820
FC6020
C06020
C06020
402020
406060
3F9FA0
000020
000020
000020
ENDCHAR
STARTCHAR uni0925094D0935
ENCODING -1
SWIDTH 862 0
DWIDTH 21 0
BBX 20 15 1 0
BITMAP
3C7FF0
6600C0
4200C0
421EC0
0230C0
0620C0
FC20C0
C020C0
C020C0
4020C0
4060C0
3FA0C0
001FC0
0000C0
0000C0
ENDCHAR
STARTCHAR uni0926094D0917
ENCODING -1
SWIDTH 489 0
DWIDTH 12 0
BBX 12 18 0 -3
BITMAP
FFF0
00C0
00C0
00C0
1FC0
3000
2000
2000
2040
2040
20C0
1FC0
0840
0840
0840
0800
0800
3000
ENDCHAR
STARTCHAR uni0926094D0918
ENCODING -1
SWIDTH 686 0
DWIDTH 16 0
BBX 17 16 0 -1
BITMAP
FFFF80
000400
000400
000400
00FC00
010000
3F0000
630000
430000
630200
3B0200
610600
40FA00
408200
608200
3F0000
ENDCHAR
STARTCHAR uni0926094D0926
ENCODING -1
SWIDTH 506 0
DWIDTH 12 0
BBX 12 16 0 -1
BITMAP
FFF0
0040
0040
0040
1FC0
2000
2000
2000
1E00
2000
2040
2040
2040
1FC0
0040
0040
ENDCHAR
STARTCHAR uni0926094D0927
ENCODING -1
SWIDTH 686 0
DWIDTH 16 0
BBX 17 16 0 -1
BITMAP
FFFF80
000400
000400
000400
00FC00
010000
3B0000
630000
430000
630200
3B0200
610600
40FA00
408200
608200
3F0000
ENDCHAR
STARTCHAR uni0926094D092C
ENCODING -1
SWIDTH 481 0
DWIDTH 12 0
BBX 12 18 0 -3
BITMAP
FFF0
00C0
00C0
00C0
1FC0
3000
2000
2000
2000
2040
2040
20C0
1FC0
3840
2440
2240
21C0
1F80
ENDCHAR
STARTCHAR uni0926094D092D
ENCODING -1
SWIDTH 499 0
DWIDTH 12 0
BBX 12 19 0 -4
BITMAP
FFF0
0040
0040
1FC0
3000
2000
2000
2040
2040
30C0
1F40
6040
3040
1040
1040
1FC0
1040
1040
0040
ENDCHAR
STARTCHAR uni0926094D092E
ENCODING -1
SWIDTH 706 0
DWIDTH 17 0
BBX 17 16 0 -1
BITMAP
FFFF80
008200
008200
1F8200
200200
600200
400200
408200
608200
218200
1F8200
00FE00
008200
008200
000200
000200
ENDCHAR
STARTCHAR uni0926094D092F
ENCODING -1
SWIDTH 583 0
DWIDTH 14 0
BBX 14 15 0 0
BITMAP
FFFC
0210
0210
1E10
3010
2010
2010
2010
1C10
2010
2010
2010
2030
1FD0
0010
ENDCHAR
STARTCHAR uni0926094D0935
ENCODING -1
SWIDTH 483 0
DWIDTH 12 0
BBX 12 18 0 -3
BITMAP
FFF0
00C0
00C0
00C0
1FC0
3000
2000
2000
2000
2040
2040
20C0
1FC0
3040
2040
2040
20C0
1F80
ENDCHAR
STARTCHAR uni0927094D092E
ENCODING -1
SWIDTH 817 0
DWIDTH 20 0
BBX 20 15 0 0
BITMAP
FCFFF0
202080
202080
202080
202080
202080
1E2080
303F80
202080
202080
202080
206080
1FC080
000080
000080
ENDCHAR
STARTCHAR uni0927094D092F
ENCODING -1
SWIDTH 886 0
DWIDTH 21 0
BBX 22 15 0 0
BITMAP
FCFFFC
200C20
200420
200420
200420
207820
1E6020
306020
206020
206020
202060
205FA0
1F8020
000020
000020
ENDCHAR
STARTCHAR uni0927094D0935
ENCODING -1
SWIDTH 810 0
DWIDTH 19 0
BBX 20 15 0 0
BITMAP
FCFFF0
200080
200080
201C80
202080
206080
1E6080
306080
206080
206080
206080
206180
1FDF80
000080
000080
ENDCHAR
STARTCHAR uni0928094D0915
ENCODING -1
SWIDTH 973 0
DWIDTH 23 0
BBX 24 15 0 0
BITMAP
FFFFFF
000200
000200
0072F0
00C308
008204
3F8204
418204
418204
418204
418204
008608
007E78
000200
000200
ENDCHAR
STARTCHAR uni0928094D091A
ENCODING -1
SWIDTH 820 0
DWIDTH 20 0
BBX 20 15 0 0
BITMAP
FFFFF0
000080
000080
000080
01FC80
006080
004080
3F4080
404080
404080
404080
003F80
000080
000080
000080
ENDCHAR
STARTCHAR uni0928094D091B
ENCODING -1
SWIDTH 781 0
DWIDTH 19 0
BBX 19 14 0 1
BITMAP
FFFFE0
010100
010100
010100
010700
010180
3F0080
61E080
418080
410080
610080
010080
010180
00FF00
ENDCHAR
STARTCHAR uni0928094D091F
ENCODING -1
SWIDTH 715 0
DWIDTH 17 0
BBX 18 14 0 1
BITMAP
FFFFC0
000600
000600
000600
007E00
008000
3F0000
410000
410000
410100
010100
010100
008300
00FE00
ENDCHAR
STARTCHAR uni0928094D0921
ENCODING -1
SWIDTH 705 0
DWIDTH 17 0
BBX 17 15 0 0
BITMAP
FFFF80
000200
000200
000200
00FE00
018000
3F0000
418000
40FC00
400200
000200
010200
010200
018200
00FE00
ENDCHAR
STARTCHAR uni0928094D0924
ENCODING -1
SWIDTH 717 0
DWIDTH 17 0
BBX 18 15 0 0
BITMAP
FFFFC0
000200
000200
000200
000200
00FE00
3F8200
410200
410200
410200
010200
010200
010200
018200
00E200
ENDCHAR
STARTCHAR uni0928094D0925
ENCODING -1
SWIDTH 804 0
DWIDTH 19 0
BBX 20 15 0 0
BITMAP
F8F0F0
019880
010880
010880
000880
001880
3FF080
430080
430080
410080
010180
00FE80
000080
000080
000080
ENDCHAR
STARTCHAR uni0928094D0926
ENCODING -1
SWIDTH 724 0
DWIDTH 17 0
BBX 18 15 0 0
BITMAP
FFFFC0
000200
000200
000200
007E00
008000
3F8000
410000
410000
410300
018300
008300
007F00
000300
000300
ENDCHAR
STARTCHAR uni0928094D0927
ENCODING -1
SWIDTH 753 0
DWIDTH 18 0
BBX 18 15 0 0
BITMAP
FFCFC0
010100
030100
030100
030100
010100
3FE100
410100
430100
430100
030100
010300
01FD00
000100
000100
ENDCHAR
STARTCHAR uni0928094D092A
ENCODING -1
SWIDTH 742 0
DWIDTH 18 0
BBX 18 15 0 0
BITMAP
FFFFC0
008300
008300
008300
008300
008300
3F8300
608300
408300
408300
607F00
000300
000300
000300
000300
ENDCHAR
STARTCHAR uni0928094D092B
ENCODING -1
SWIDTH 970 0
DWIDTH 23 0
BBX 24 15 0 0
BITMAP
FFFFFF
008200
008200
0082F0
008308
00820C
3F8204
408204
408604
407E04
00020C
000208
000270
000200
000200
ENDCHAR
STARTCHAR uni0928094D092D
ENCODING -1
SWIDTH 739 0
DWIDTH 18 0
BBX 18 15 0 0
BITMAP
FF0FC0
018300
008300
008300
008300
008300
3F8300
60FF00
408300
408300
608300
000300
000300
000300
000300
ENDCHAR
STARTCHAR uni0928094D092E
ENCODING -1
SWIDTH 735 0
DWIDTH 18 0
BBX 18 15 0 0
BITMAP
FFFFC0
008200
008200
008200
008200
008200
3F8200
60FE00
408200
408200
608200
000200
000200
000200
000200
ENDCHAR
STARTCHAR uni0928094D092F
ENCODING -1
SWIDTH 801 0
DWIDTH 19 0
BBX 20 15 0 0
BITMAP
FFFFF0
003080
001080
001080
001080
3FE080
410080
410080
410080
018080
008180
007E80
000080
000080
000080
ENDCHAR
STARTCHAR uni0928094D0935
ENCODING -1
SWIDTH 732 0
DWIDTH 18 0
BBX 18 15 0 0
BITMAP
FFFFC0
000200
000200
007200
00C200
008200
3F8200
418200
418200
418200
408200
008200
007E00
000200
000200
ENDCHAR
STARTCHAR uni0928094D0938
ENCODING -1
SWIDTH 867 0
DWIDTH 21 0
BBX 21 15 0 0
BITMAP
FFFFF8
001860
001860
001860
001860
001860
3F1060
40FFE0
408060
404060
006060
002060
003060
001060
000860
ENDCHAR
STARTCHAR uni0928094D0939
ENCODING -1
SWIDTH 714 0
DWIDTH 17 0
BBX 17 16 0 -1
BITMAP
FFFF80
000200
000200
000200
007E00
008000
3F8000
608000
407C00
608200
018200
018200
018000
018000
008000
007E00
ENDCHAR
STARTCHAR uni092A094D091F
ENCODING -1
SWIDTH 489 0
DWIDTH 12 0
BBX 12 15 0 0
BITMAP
FFF0
2040
2040
2040
2040
2040
3040
1FC0
3000
2000
2000
2040
2040
2040
1F80
ENDCHAR
STARTCHAR uni092A094D0920
ENCODING -1
SWIDTH 506 0
DWIDTH 12 0
BBX 12 15 0 0
BITMAP
FFF0
2040
2040
2040
2040
2040
30C0
1F80
30C0
2040
2040
2040
2040
2040
1F80
ENDCHAR
STARTCHAR uni092A094D0924
ENCODING -1
SWIDTH 495 0
DWIDTH 12 0
BBX 12 15 0 0
BITMAP
FFF0
2040
2040
2040
2040
2040
3040
1FC0
2040
2040
2040
2040
2040
2040
1C40
ENDCHAR
STARTCHAR uni092A094D092A
ENCODING -1
SWIDTH 770 0
DWIDTH 18 0
BBX 19 15 0 0
BITMAP
FFFFE0
20C100
20C100
20C100
20C100
20C100
20C100
20C100
20C100
30C300
1F3F00
000100
000100
000100
000100
ENDCHAR
STARTCHAR uni092A094D092B
ENCODING -1
SWIDTH 1003 0
DWIDTH 24 0
BBX 24 15 0 0
BITMAP
FFFFFF
208100
208100
208178
20818C
208104
208106
208106
20C106
30C306
1F3D04
000104
000138
000100
000100
ENDCHAR
STARTCHAR uni092A094D092E
ENCODING -1
SWIDTH 774 0
DWIDTH 19 0
BBX 19 15 0 0
BITMAP
FFFFE0
204100
204100
204100
204100
204100
204100
207F00
30C100
1F4100
004100
000100
000100
000100
000100
ENDCHAR
STARTCHAR uni092A094D092F
ENCODING -1
SWIDTH 855 0
DWIDTH 21 0
BBX 21 15 0 0
BITMAP
FFFFF8
200840
200840
200840
200840
207040
204040
204040
204040
30C040
1F60C0
003FC0
000040
000040
000040
ENDCHAR
STARTCHAR uni092A094D0932
ENCODING -1
SWIDTH 960 0
DWIDTH 23 0
BBX 23 15 0 0
BITMAP
FFFFFE
200008
200008
200008
203CE8
206718
204208
204208
204208
30C208
1F4208
004008
004008
003808
000008
ENDCHAR
STARTCHAR uni092A094D0935
ENCODING -1
SWIDTH 780 0
DWIDTH 19 0
BBX 19 15 0 0
BITMAP
FFFFE0
200180
200180
203D80
206180
204180
204180
204180
204180
30C180
1F4180
004180
003F80
000180
000180
ENDCHAR
STARTCHAR uni092A094D0938
ENCODING -1
SWIDTH 880 0
DWIDTH 21 0
BBX 21 15 0 0
BITMAP
FFFFF8
200820
200820
200820
200820
200820
201820
20FFE0
20C020
30C020
1F6020
002020
001020
001820
000820
ENDCHAR
STARTCHAR uni092B094D091C
ENCODING -1
SWIDTH 1100 0
DWIDTH 26 0
BBX 27 15 0 0
BITMAP
FFFFFFE0
20C00100
20C00100
20C00100
20FCFF00
20E02100
20C01100
20C01100
30C01100
1FC01100
00C01100
00C03100
00C3E100
00C00100
00C00100
ENDCHAR
STARTCHAR uni092B094D091F
ENCODING -1
SWIDTH 1006 0
DWIDTH 24 0
BBX 24 15 0 0
BITMAP
FFFFFF
20C00C
20C00C
20FE0C
20E3FC
20C100
20C200
20C200
30C200
1FC202
00C202
00C202
00C104
00C1FC
00C000
ENDCHAR
STARTCHAR uni092B094D0924
ENCODING -1
SWIDTH 1034 0
DWIDTH 25 0
BBX 25 15 0 0
BITMAP
FFFFFF80
20C00600
20C00600
20C00600
20FE0600
20C3FE00
20C10600
20C10600
30C30600
1FC30600
00C30600
00C30600
00C10600
00C10600
00C0E600
ENDCHAR
STARTCHAR uni092B094D092A
ENCODING -1
SWIDTH 1021 0
DWIDTH 25 0
BBX 25 15 0 0
BITMAP
FFFFFF80
20C30400
20C30400
20C30400
20FF0400
20E30400
20C30400
20C30400
20C30400
30C10C00
1FC0FC00
00C00400
00C00400
00C00400
00C00400
ENDCHAR
STARTCHAR uni092B094D092B
ENCODING -1
SWIDTH 1256 0
DWIDTH 30 0
BBX 30 15 0 0
BITMAP
FFFFFFFC
20C30400
20C30400
20C305E0
20FF0610
20E30418
20C30418
20C30418
30C10C18
1FC0F418
00C00418
00C00410
00C004E0
00C00400
00C00400
ENDCHAR
STARTCHAR uni092B094D092F
ENCODING -1
SWIDTH 1120 0
DWIDTH 27 0
BBX 27 15 0 0
BITMAP
FFFFFFE0
20C06100
20C02100
20C02100
20C02100
20FFC100
20E20100
20C20100
30C20100
1FC30100
00C10300
00C0FD00
00C00100
00C00100
00C00100
ENDCHAR
STARTCHAR uni092B094D0932
ENCODING -1
SWIDTH 1202 0
DWIDTH 29 0
BBX 29 15 0 0
BITMAP
FFFFFFF8
20C00060
20C00060
20FE0060
20E3F7E0
20C11460
20C30860
20C20860
30C20860
1FC20860
00C20060
00C30060
00C10060
00C0E060
00C00060
ENDCHAR
STARTCHAR uni092B094D0936
ENCODING -1
SWIDTH 1211 0
DWIDTH 29 0
BBX 29 15 0 0
BITMAP
FFFE7838
20C0C420
20C08420
20C08420
20FC8420
20C60420
20C20420
20C3F820
30C10020
1FC18020
00C08020
00C04020
00C06020
00C02020
00C01020
ENDCHAR
STARTCHAR uni092C094D091C
ENCODING -1
SWIDTH 883 0
DWIDTH 21 0
BBX 22 15 0 0
BITMAP
FFFFFC
000020
000020
000020
1E0020
203FE0
300420
280220
240220
220220
210220
208420
1FFC20
000020
000020
ENDCHAR
STARTCHAR uni092C094D091D
ENCODING -1
SWIDTH 962 0
DWIDTH 23 0
BBX 23 17 0 -2
BITMAP
FFFFFE
000308
000308
1E3F08
304008
304008
284008
244008
227FF8
214108
208108
208108
1F4108
006108
005E08
004000
004000
ENDCHAR
STARTCHAR uni092C094D0924
ENCODING -1
SWIDTH 786 0
DWIDTH 19 0
BBX 19 15 0 0
BITMAP
FFFFE0
000180
000180
1E0180
300180
303F80
286180
244180
224180
214180
21C180
20C180
1F4180
004180
003980
ENDCHAR
STARTCHAR uni092C094D0926
ENCODING -1
SWIDTH 775 0
DWIDTH 19 0
BBX 19 15 0 0
BITMAP
FFFFE0
000100
000100
1E0100
303F00
306000
284000
2C4000
264000
234080
21C080
20C180
1F3E80
000080
000080
ENDCHAR
STARTCHAR uni092C094D0927
ENCODING -1
SWIDTH 844 0
DWIDTH 20 0
BBX 21 15 0 0
BITMAP
FFF3F8
004040
004040
1E4040
304040
304040
283840
244040
264040
234040
21C040
20C0C0
1F7F40
000040
000040
ENDCHAR
STARTCHAR uni092C094D092C
ENCODING -1
SWIDTH 783 0
DWIDTH 19 0
BBX 19 15 0 0
BITMAP
FFFFE0
000180
000180
1E3D80
306180
306180
285180
244980
224580
214380
21C180
20C180
1F3F80
000180
000180
ENDCHAR
STARTCHAR uni092C094D092D
ENCODING -1
SWIDTH 764 0
DWIDTH 18 0
BBX 19 15 0 0
BITMAP
FF87E0
008100
00C100
1EC100
30C100
30C100
28C100
24FF00
26C100
23C100
21C100
208100
1F0100
000100
000100
ENDCHAR
STARTCHAR uni092C094D092F
ENCODING -1
SWIDTH 852 0
DWIDTH 20 0
BBX 21 15 0 0
BITMAP
FFFFF8
000840
000840
1E0840
300840
307040
284040
244040
224040
21C040
20E0C0
20BF40
1F0040
000040
000040
ENDCHAR
STARTCHAR uni092C094D0932
ENCODING -1
SWIDTH 961 0
DWIDTH 23 0
BBX 23 15 0 0
BITMAP
FFFFFE
000008
000008
1E0008
303CE8
306718
284208
244208
224208
214208
20C008
20C008
1F4008
003808
000008
ENDCHAR
STARTCHAR uni092C094D0935
ENCODING -1
SWIDTH 776 0
DWIDTH 19 0
BBX 19 15 0 0
BITMAP
FFFFE0
000100
000100
1E3D00
306100
304100
284100
244100
224100
214100
21C100
20C100
1F3F00
000100
000100
ENDCHAR
STARTCHAR uni092C094D0936
ENCODING -1
SWIDTH 926 0
DWIDTH 22 0
BBX 23 15 0 0
BITMAP
FE3C1E
006210
004310
1E4310
300310
300310
280210
247C10
224010
21E010
20B010
209010
1F1810
000810
000410
ENDCHAR
STARTCHAR uni092C094D0938
ENCODING -1
SWIDTH 897 0
DWIDTH 22 0
BBX 22 15 0 0
BITMAP
FFFFFC
000820
000820
1E0820
300820
300820
280820
247FE0
224020
216020
20A020
209020
1F1820
000820
000C20
ENDCHAR
STARTCHAR uni092D094D092F
ENCODING -1
SWIDTH 827 0
DWIDTH 20 0
BBX 20 15 0 0
BITMAP
C3FFF0
601040
200840
200840
201840
20F040
208040
3F8040
2080C0
2080C0
20C0C0
007F40
000040
000040
000040
ENDCHAR
STARTCHAR uni092D094D0932
ENCODING -1
SWIDTH 941 0
DWIDTH 23 0
BBX 23 15 0 0
BITMAP
C3FFFE
600010
200010
200010
2039F0
204730
208610
3F8210
208210
208210
208010
008010
00C010
007810
000010
ENDCHAR
STARTCHAR uni092D094D0935
ENCODING -1
SWIDTH 755 0
DWIDTH 18 0
BBX 18 15 0 0
BITMAP
C3FFC0
600100
200100
203900
204100
208100
208100
3F8100
208100
208100
208100
00C300
007D00
000100
000100
ENDCHAR
STARTCHAR uni092E094D0924
ENCODING -1
SWIDTH 765 0
DWIDTH 18 0
BBX 19 15 0 0
BITMAP
FFFFE0
200100
200100
200100
200100
207F00
20C100
3F8100
208100
208100
208100
008100
008100
00C100
007100
ENDCHAR
STARTCHAR uni092E094D0926
ENCODING -1
SWIDTH 766 0
DWIDTH 18 0
BBX 19 15 0 0
BITMAP
FFFFE0
200100
200100
200100
203F00
204000
20C000
3F8000
208000
208180
20C180
004180
003F80
000180
000180
ENDCHAR
STARTCHAR uni092E094D092A
ENCODING -1
SWIDTH 762 0
DWIDTH 18 0
BBX 19 15 0 0
BITMAP
FFFFE0
208100
208100
208100
208100
208100
208100
3F8100
208100
204300
207D00
000100
000100
000100
000100
ENDCHAR
STARTCHAR uni092E094D092C
ENCODING -1
SWIDTH 768 0
DWIDTH 18 0
BBX 19 15 0 0
BITMAP
FFFFE0
200100
200100
203900
204100
20E100
20B100
3F9900
208900
208500
208300
004300
007F00
000100
000100
ENDCHAR
STARTCHAR uni092E094D092D
ENCODING -1
SWIDTH 768 0
DWIDTH 18 0
BBX 19 15 0 0
BITMAP
FF87E0
208100
204100
204100
204100
204100
204100
3FFF00
204100
204100
204100
000100
000100
000100
000100
ENDCHAR
STARTCHAR uni092E094D092E
ENCODING -1
SWIDTH 759 0
DWIDTH 18 0
BBX 19 15 0 0
BITMAP
FFFFE0
20C100
20C100
20C100
20C100
20C100
20C100
3FFF00
20C100
20C100
20C100
000100
000100
000100
000100
ENDCHAR
STARTCHAR uni092E094D092F
ENCODING -1
SWIDTH 834 0
DWIDTH 20 0
BBX 20 15 0 0
BITMAP
FFFFF0
201040
200840
200840
201840
20F040
208040
3F8040
208040
2080C0
2040C0
003F40
000040
000040
000040
ENDCHAR
STARTCHAR uni092E094D0932
ENCODING -1
SWIDTH 945 0
DWIDTH 23 0
BBX 23 15 0 0
BITMAP
FFFFFE
200018
200018
200018
2039F8
204738
208218
3F8218
208218
208218
208018
008018
00C018
007818
000018
ENDCHAR
STARTCHAR uni092E094D0935
ENCODING -1
SWIDTH 761 0
DWIDTH 18 0
BBX 19 15 0 0
BITMAP
FFFFE0
200100
200100
203900
204100
20C100
208100
3F8100
208100
208100
208100
004300
007D00
000100
000100
ENDCHAR
STARTCHAR uni092E094D0936
ENCODING -1
SWIDTH 884 0
DWIDTH 21 0
BBX 22 15 0 0
BITMAP
FC783C
20C420
208420
208620
200620
200420
200420
3FF820
208020
204020
204020
002020
003020
001020
000820
ENDCHAR
STARTCHAR uni092E094D0938
ENCODING -1
SWIDTH 816 0
DWIDTH 20 0
BBX 20 15 0 0
BITMAP
FFFFF0
202080
202080
202080
202080
202080
202080
3FFF80
210080
218080
208080
004080
006080
002080
003080
ENDCHAR
STARTCHAR uni092E094D0939
ENCODING -1
SWIDTH 758 0
DWIDTH 18 0
BBX 19 16 0 -1
BITMAP
FFFFE0
200100
200100
200100
203F00
204000
204000
3FC000
207E00
204100
204100
00C100
00C000
004000
004000
003F00
ENDCHAR
STARTCHAR uni092F094D092F
ENCODING -1
SWIDTH 897 0
DWIDTH 22 0
BBX 22 15 0 0
BITMAP
FFFFFC
040420
040420
040420
040420
383820
202020
202020
202020
202020
307060
1F9FA0
000020
000020
000020
ENDCHAR
STARTCHAR uni0930094D092F
ENCODING -1
SWIDTH 713 0
DWIDTH 17 0
BBX 17 15 0 0
BITMAP
FFFF80
008200
004200
004200
004200
C0C200
7F8200
040200
040200
040200
020600
01FA00
000200
000200
000200
ENDCHAR
STARTCHAR uni0930094D0939
ENCODING -1
SWIDTH 619 0
DWIDTH 15 0
BBX 15 16 0 -1
BITMAP
FFFE
0008
0008
0008
03F8
C600
7C00
0600
03F0
0218
0408
0408
0400
0400
0200
03F8
ENDCHAR
STARTCHAR uni0932094D0915
ENCODING -1
SWIDTH 1182 0
DWIDTH 28 0
BBX 29 15 0 0
BITMAP
FFFFFFF8
00001000
00001000
00039780
1E761840
338C1020
218C1020
210C1020
210C1020
210C1020
20041020
20043040
2003F3C0
1E001000
00001000
ENDCHAR
STARTCHAR uni0932094D0916
ENCODING -1
SWIDTH 1195 0
DWIDTH 29 0
BBX 29 15 0 0
BITMAP
FFFFFFF8
00004040
00004040
00004040
1E704740
33884C40
21844840
21078840
21040840
21020840
21030840
200107C0
20008040
1E00C040
00006040
ENDCHAR
STARTCHAR uni0932094D0917
ENCODING -1
SWIDTH 950 0
DWIDTH 23 0
BBX 23 15 0 0
BITMAP
FFFFFE
000218
000218
000218
1E7218
338218
218218
210218
210218
211C18
200018
200018
200018
1E0018
000018
ENDCHAR
STARTCHAR uni0932094D091C
ENCODING -1
SWIDTH 1035 0
DWIDTH 25 0
BBX 25 15 0 0
BITMAP
FFFFFF80
00000600
00000600
00000600
1E73FE00
3380C600
21804600
21004600
21004600
21004600
20004600
20004600
200F8600
1E000600
00000600
ENDCHAR
STARTCHAR uni0932094D091F
ENCODING -1
SWIDTH 929 0
DWIDTH 22 0
BBX 23 14 0 1
BITMAP
FFFFFE
000010
000010
000010
1E73F0
338C00
218C00
210800
210800
210808
200808
200C08
200418
1E03F0
ENDCHAR
STARTCHAR uni0932094D0920
ENCODING -1
SWIDTH 953 0
DWIDTH 23 0
BBX 23 14 0 1
BITMAP
FFFFFE
000010
000010
000010
1E73E0
338C10
218C08
210808
210808
210808
200808
200808
200418
1E07F0
ENDCHAR
STARTCHAR uni0932094D0921
ENCODING -1
SWIDTH 916 0
DWIDTH 22 0
BBX 22 15 0 0
BITMAP
FFFFFC
000010
000010
000010
1E77F0
338C00
218C00
210C00
2107E0
210010
200010
200810
200810
1E0C10
0007F0
ENDCHAR
STARTCHAR uni0932094D0922
ENCODING -1
SWIDTH 924 0
DWIDTH 22 0
BBX 23 14 0 1
BITMAP
FFFFFE
000010
000010
000010
1E73F0
338C00
218C00
210800
210870
2108C8
200888
200808
200408
1E07F0
ENDCHAR
STARTCHAR uni0932094D0924
ENCODING -1
SWIDTH 929 0
DWIDTH 22 0
BBX 23 15 0 0
BITMAP
FFFFFE
000010
000010
000010
1E7010
338FF0
218C10
210810
210810
210810
200810
200810
200810
1E0C10
000710
ENDCHAR
STARTCHAR uni0932094D0925
ENCODING -1
SWIDTH 1061 0
DWIDTH 25 0
BBX 26 15 0 0
BITMAP
FFF3C3C0
00062200
00042200
00042200
1E702200
33882200
21886200
2107C200
21040200
21040200
20040600
2003FE00
20000200
1E000200
00000200
ENDCHAR
STARTCHAR uni0932094D0926
ENCODING -1
SWIDTH 939 0
DWIDTH 23 0
BBX 23 15 0 0
BITMAP
FFFFFE
000010
000010
000010
1E73F0
338E00
218C00
210C00
210C00
210C08
200408
200418
2003E8
1E0008
000008
ENDCHAR
STARTCHAR uni0932094D092A
ENCODING -1
SWIDTH 939 0
DWIDTH 23 0
BBX 23 15 0 0
BITMAP
FFFFFE
000C10
000C10
000C10
1E7C10
338C10
218C10
210C10
210410
210430
2103F0
200010
200010
1E0010
000010
ENDCHAR
STARTCHAR uni0932094D092B
ENCODING -1
SWIDTH 1176 0
DWIDTH 28 0
BBX 29 15 0 0
BITMAP
FFFFFFF8
000C1000
000C1000
000C1780
1E7C1840
338C1060
218C1020
21041020
21043020
2103D020
20001060
20001040
20001380
1E001000
00001000
ENDCHAR
STARTCHAR uni0932094D092C
ENCODING -1
SWIDTH 949 0
DWIDTH 23 0
BBX 23 15 0 0
BITMAP
FFFFFE
000018
000018
0003D8
1E7618
338E18
218518
210498
210458
210438
200418
200418
2003F8
1E0018
000018
ENDCHAR
STARTCHAR uni0932094D092D
ENCODING -1
SWIDTH 931 0
DWIDTH 22 0
BBX 23 15 0 0
BITMAP
FFF87E
000810
000C10
000C10
1E7C10
338C10
218C10
210FF0
210C10
210C10
200C10
200010
200010
1E0010
000010
ENDCHAR
STARTCHAR uni0932094D092E
ENCODING -1
SWIDTH 931 0
DWIDTH 22 0
BBX 23 15 0 0
BITMAP
FFFFFE
000C10
000C10
000C10
1E7C10
338C10
218C10
210FF0
210C10
210C10
200C10
200010
200010
1E0010
000010
ENDCHAR
STARTCHAR uni0932094D092F
ENCODING -1
SWIDTH 1033 0
DWIDTH 25 0
BBX 25 15 0 0
BITMAP
FFFFFF80
00008600
0000C600
0000C600
1E78C600
338C8600
21078600
21040600
21040600
20040600
20060600
2003FE00
1E000600
00000600
00000600
ENDCHAR
STARTCHAR uni0932094D0932
ENCODING -1
SWIDTH 1112 0
DWIDTH 27 0
BBX 27 15 0 0
BITMAP
FFFFFFE0
00000180
00000180
00000180
1E739F80
338C7180
21882180
21082180
21082180
21082180
20080180
20080180
20040180
1E078180
00000180
ENDCHAR
STARTCHAR uni0932094D0935
ENCODING -1
SWIDTH 940 0
DWIDTH 23 0
BBX 23 15 0 0
BITMAP
FFFFFE
000010
000010
000390
1E7610
338C10
218C10
210C10
210C10
210C10
200410
200410
2003F0
1E0010
000010
ENDCHAR
STARTCHAR uni0932094D0938
ENCODING -1
SWIDTH 1068 0
DWIDTH 26 0
BBX 26 15 0 0
BITMAP
FFFFFFC0
00008200
00008200
00008200
1E708200
33888200
218C8200
2107FE00
21040200
21020200
20020200
20010200
20018200
1E008200
0000C200
ENDCHAR
STARTCHAR uni0932094D0939
ENCODING -1
SWIDTH 922 0
DWIDTH 22 0
BBX 22 16 0 -1
BITMAP
FFFFFC
000010
000010
000010
1E77F0
338C00
218C00
210400
2103E0
210410
200C10
200C10
200C00
1E0C00
000400
0003F0
ENDCHAR
STARTCHAR uni0933094D092F
ENCODING -1
SWIDTH 1050 0
DWIDTH 25 0
BBX 26 15 0 0
BITMAP
FFFFFFC0
0000C200
00004200
1E784200
318C4200
21878200
21840200
21840200
21840200
21860200
21860600
2185FA00
1E780200
00000200
00000200
ENDCHAR
STARTCHAR uni0935094D092F
ENCODING -1
SWIDTH 852 0
DWIDTH 20 0
BBX 21 15 0 0
BITMAP
FFFFF8
000840
000840
1E0840
300840
207040
204040
204040
204040
204040
20E0C0
20BF40
1F0040
000040
000040
ENDCHAR
STARTCHAR uni0935094D0932
ENCODING -1
SWIDTH 961 0
DWIDTH 23 0
BBX 23 15 0 0
BITMAP
FFFFFE
000008
000008
1E0008
303CE8
206718
204208
204208
204208
204208
20C008
20C008
1F4008
003808
000008
ENDCHAR
STARTCHAR uni0935094D0935
ENCODING -1
SWIDTH 776 0
DWIDTH 19 0
BBX 19 15 0 0
BITMAP
FFFFE0
000100
000100
1E3D00
306100
204100
204100
204100
204100
204100
20C100
20C100
1F3F00
000100
000100
ENDCHAR
STARTCHAR uni0935094D0939
ENCODING -1
SWIDTH 754 0
DWIDTH 18 0
BBX 18 16 0 -1
BITMAP
FFFFC0
000100
000100
1E0100
307F00
204000
20C000
204000
203E00
204300
20C100
208100
1F8100
00C000
004000
003F00
ENDCHAR
STARTCHAR uni0936094D0915
ENCODING -1
SWIDTH 1093 0
DWIDTH 26 0
BBX 26 15 1 0
BITMAP
3C7FFFC0
46008000
42008000
421CBC00
0220C200
02608300
06408100
FC408100
C0408100
40408100
20608300
30218200
101E9C00
08008000
0C008000
ENDCHAR
STARTCHAR uni0936094D091A
ENCODING -1
SWIDTH 950 0
DWIDTH 23 0
BBX 22 15 1 0
BITMAP
3C7FFC
460030
420030
420030
420030
027F30
061830
FC1030
C01030
401030
201830
300FF0
100030
080030
0C0030
ENDCHAR
STARTCHAR uni0936094D091B
ENCODING -1
SWIDTH 968 0
DWIDTH 23 0
BBX 23 15 1 0
BITMAP
3C7FFE
461010
422010
422010
0220F0
022010
061010
FC1E18
C03018
402018
202018
302010
103010
081FE0
0C0000
ENDCHAR
STARTCHAR uni0936094D091F
ENCODING -1
SWIDTH 854 0
DWIDTH 21 0
BBX 20 15 1 0
BITMAP
3C7FF0
460080
420080
420080
021F80
023000
062000
FC6000
C06000
406040
206040
302040
1020C0
081F80
0C0000
ENDCHAR
STARTCHAR uni0936094D0924
ENCODING -1
SWIDTH 864 0
DWIDTH 21 0
BBX 20 15 1 0
BITMAP
3C7FF0
4600C0
4200C0
4200C0
4200C0
021FC0
0620C0
FC60C0
C060C0
4060C0
2060C0
3060C0
1060C0
0820C0
0C1CC0
ENDCHAR
STARTCHAR uni0936094D092E
ENCODING -1
SWIDTH 885 0
DWIDTH 21 0
BBX 21 15 1 0
BITMAP
3C7FF8
463040
423040
423040
423040
023040
063040
FC3FC0
C03040
403040
202040
300040
100040
080040
0C0040
ENDCHAR
STARTCHAR uni0936094D092F
ENCODING -1
SWIDTH 940 0
DWIDTH 23 0
BBX 22 15 1 0
BITMAP
3C7FFC
460420
420420
420420
020420
023C20
062020
FC2020
C02020
402020
203060
301FE0
100020
080020
0C0020
ENDCHAR
STARTCHAR uni0936094D0932
ENCODING -1
SWIDTH 1039 0
DWIDTH 25 0
BBX 24 15 1 0
BITMAP
3C7FFF
460004
420004
420004
021EF4
02228C
06610C
FC6104
C06104
406104
206004
306004
102004
081C04
0C0004
ENDCHAR
STARTCHAR uni0936094D0935
ENCODING -1
SWIDTH 850 0
DWIDTH 20 0
BBX 20 15 1 0
BITMAP
3C7FF0
460080
420080
421C80
022080
026080
066080
FC6080
C06080
406080
206080
302180
101F80
080080
0C0080
ENDCHAR
STARTCHAR uni0936094D0936
ENCODING -1
SWIDTH 1009 0
DWIDTH 24 0
BBX 24 15 1 0
BITMAP
3C1E0F
463108
422108
422188
020188
020108
060108
FC3E08
C02008
403008
201008
300808
100C08
080408
0C0208
ENDCHAR
STARTCHAR uni0937094D0915
ENCODING -1
SWIDTH 1039 0
DWIDTH 25 0
BBX 25 15 0 0
BITMAP
FFFFFF80
20008000
30008000
281CBC00
2420C600
22408200
21408200
21C08200
20C08200
30C08200
1F408200
00618200
003E9C00
00008000
00008000
ENDCHAR
STARTCHAR uni0937094D091F
ENCODING -1
SWIDTH 493 0
DWIDTH 12 0
BBX 12 15 0 0
BITMAP
FFF0
3040
2840
2440
2240
2140
30C0
1FC0
3000
2000
2000
2060
2060
2040
1F80
ENDCHAR
STARTCHAR uni0937094D0920
ENCODING -1
SWIDTH 511 0
DWIDTH 12 0
BBX 13 15 0 0
BITMAP
FFF8
3FC0
3FC0
3FC0
3FC0
3FC0
3F40
1F80
2040
2060
2060
2060
2060
2040
1F80
ENDCHAR
STARTCHAR uni0937094D0923
ENCODING -1
SWIDTH 980 0
DWIDTH 24 0
BBX 24 15 0 0
BITMAP
FFFFFF
204108
304108
284108
244108
224108
214108
21C108
20C108
30A308
1F3E08
000008
000008
000008
000008
ENDCHAR
STARTCHAR uni0937094D092A
ENCODING -1
SWIDTH 980 0
DWIDTH 24 0
BBX 24 15 0 0
BITMAP
FFFFFF
204108
304108
284108
244108
224108
214108
21C108
20C108
30A308
1F3E08
000008
000008
000008
000008
ENDCHAR
STARTCHAR uni0937094D092B
ENCODING -1
SWIDTH 1036 0
DWIDTH 25 0
BBX 25 15 0 0
BITMAP
FFFFFF80
30408000
30408000
2840FC00
2440C600
22408200
21408200
20C18200
20E18200
30BE8200
1F008200
00008200
0000BC00
00008000
00008000
ENDCHAR
STARTCHAR uni0937094D092E
ENCODING -1
SWIDTH 791 0
DWIDTH 19 0
BBX 19 15 0 0
BITMAP
FFFFE0
204080
304080
284080
244080
224080
214080
21FF80
20C080
30C080
1F4080
000080
000080
000080
000080
ENDCHAR
STARTCHAR uni0937094D092F
ENCODING -1
SWIDTH 877 0
DWIDTH 21 0
BBX 21 15 0 0
BITMAP
FFFFF8
300820
300420
280420
240C20
227820
214020
20C020
20C020
30C020
1F2060
003FA0
000020
000020
000020
ENDCHAR
STARTCHAR uni0937094D0935
ENCODING -1
SWIDTH 802 0
DWIDTH 19 0
BBX 20 15 0 0
BITMAP
FFFFF0
200080
300080
281C80
242080
226080
214080
20C080
20C080
30C080
1F4080
002180
003E80
000080
000080
ENDCHAR
STARTCHAR uni0937094D0937
ENCODING -1
SWIDTH 804 0
DWIDTH 19 0
BBX 20 15 0 0
BITMAP
FFFFF0
206080
306080
285080
244880
224480
214280
21C180
20C180
30A180
1F3F80
000080
000080
000080
000080
ENDCHAR
STARTCHAR uni0938094D0915
ENCODING -1
SWIDTH 1089 0
DWIDTH 26 0
BBX 27 15 0 0
BITMAP
FFFFFFE0
0C004000
0C004000
0C0E5E00
0C106100
0C304180
08204080
7FE04080
40204080
20204180
30204180
1010C100
180F4E00
08004000
04004000
ENDCHAR
STARTCHAR uni0938094D0916
ENCODING -1
SWIDTH 990 0
DWIDTH 24 0
BBX 24 15 0 0
BITMAP
FFFFFF
0C080C
0C080C
0C080C
0C08EC
0C098C
08090C
7FF10C
40C10C
20410C
30210C
1030FC
18100C
08080C
040C0C
ENDCHAR
STARTCHAR uni0938094D091C
ENCODING -1
SWIDTH 970 0
DWIDTH 23 0
BBX 24 15 0 0
BITMAP
FFFFFF
0C0008
0C0008
0C0008
0C0008
0C0FF8
080108
7FE088
400088
200088
300088
100188
181F08
080008
040008
ENDCHAR
STARTCHAR uni0938094D091F
ENCODING -1
SWIDTH 844 0
DWIDTH 20 0
BBX 21 15 0 0
BITMAP
FFFFF8
0C0040
0C0040
0C0040
0C0FC0
0C1000
083000
7FE000
402000
202020
302020
103020
181060
080FC0
040000
ENDCHAR
STARTCHAR uni0938094D0924
ENCODING -1
SWIDTH 852 0
DWIDTH 20 0
BBX 21 15 0 0
BITMAP
FFFFF8
0C0040
0C0040
0C0040
0C0040
0C1FC0
083040
7FE040
402040
202040
302040
102040
182040
083040
041C40
ENDCHAR
STARTCHAR uni0938094D0925
ENCODING -1
SWIDTH 960 0
DWIDTH 23 0
BBX 23 15 0 0
BITMAP
FF8F0E
0C1108
0C1088
0C1088
0C1088
0C0188
080108
7FFF08
402008
202008
301018
100FE8
180008
080008
040008
ENDCHAR
STARTCHAR uni0938094D0926
ENCODING -1
SWIDTH 851 0
DWIDTH 20 0
BBX 21 15 0 0
BITMAP
FFFFF8
0C0040
0C0040
0C0040
0C0FC0
0C1000
083000
7FE000
402000
202020
303060
101060
180FA0
080020
040020
ENDCHAR
STARTCHAR uni0938094D092A
ENCODING -1
SWIDTH 857 0
DWIDTH 21 0
BBX 21 15 0 0
BITMAP
FFFFF8
0C3040
0C3040
0C3040
0C3040
0C3040
083040
7FF040
401040
201040
300FC0
100040
180040
080040
040040
ENDCHAR
STARTCHAR uni0938094D092B
ENCODING -1
SWIDTH 1092 0
DWIDTH 26 0
BBX 27 15 0 0
BITMAP
FFFFFFE0
0C304000
0C304000
0C305E00
0C306100
0C304180
08304080
7FF04080
4010C080
200F4080
30004180
10004100
18004E00
08004000
04004000
ENDCHAR
STARTCHAR uni0938094D092C
ENCODING -1
SWIDTH 857 0
DWIDTH 21 0
BBX 21 15 0 0
BITMAP
FFFFF8
0C0040
0C0040
0C0E40
0C1040
0C3840
082440
7FE240
402340
2021C0
3030C0
1010C0
180FC0
080040
040040
ENDCHAR
STARTCHAR uni0938094D092E
ENCODING -1
SWIDTH 850 0
DWIDTH 20 0
BBX 21 15 0 0
BITMAP
FFFFF8
0C1040
0C1040
0C1040
0C1040
0C1040
081040
7FFFC0
401040
201040
301040
100040
180040
080040
040040
ENDCHAR
STARTCHAR uni0938094D092F
ENCODING -1
SWIDTH 920 0
DWIDTH 22 0
BBX 22 15 0 0
BITMAP
FFFFFC
0C0410
0C0210
0C0210
0C0610
0C3C10
082010
7FE010
402010
203010
301030
100FD0
180010
080010
040010
ENDCHAR
STARTCHAR uni0938094D0932
ENCODING -1
SWIDTH 1027 0
DWIDTH 25 0
BBX 25 15 0 0
BITMAP
FFFFFF80
0C000400
0C000400
0C000400
0C0E7C00
0C11CC00
08208400
7FE08400
40208400
20208400
30200400
10200400
18300400
081E0400
04000400
ENDCHAR
STARTCHAR uni0938094D0935
ENCODING -1
SWIDTH 842 0
DWIDTH 20 0
BBX 21 15 0 0
BITMAP
FFFFF8
0C0040
0C0040
0C0E40
0C1040
0C2040
082040
7FE040
402040
202040
302040
1010C0
181F40
080040
040040
ENDCHAR
STARTCHAR uni0938094D0938
ENCODING -1
SWIDTH 871 0
DWIDTH 21 0
BBX 21 15 0 0
BITMAP
FFFFF8
0C0820
0C0820
0C0820
0C0820
0C0820
081020
7FFFE0
40C020
204020
306020
102020
181020
081020
040820
ENDCHAR
STARTCHAR uni0939094D0923
ENCODING -1
SWIDTH 1136 0
DWIDTH 27 0
BBX 28 21 0 -6
BITMAP
FFFFFFF0
00841080
00841080
00841080
1F841080
30041080
20041080
20041080
1F841080
30862080
2043E080
20400080
20400080
20000080
30000080
1FC00000
00000000
02000000
01000000
01800000
00800000
ENDCHAR
STARTCHAR uni0939094D092E
ENCODING -1
SWIDTH 746 0
DWIDTH 18 0
BBX 18 17 0 -2
BITMAP
FFFFC0
008100
008100
008100
1F8100
200100
200100
200100
1F8100
30C100
20C100
20FF00
20C100
20C100
208100
200100
1F8000
ENDCHAR
STARTCHAR uni0939094D092F
ENCODING -1
SWIDTH 785 0
DWIDTH 19 0
BBX 19 18 0 -3
BITMAP
FFFFE0
008180
008180
008180
1F8180
200180
200180
200180
1FE180
301180
201180
201180
20F180
208180
208180
20C380
1F7F80
000180
ENDCHAR
STARTCHAR uni0939094D0932
ENCODING -1
SWIDTH 1110 0
DWIDTH 27 0
BBX 27 22 0 -7
BITMAP
FFFFFFE0
00800100
00800100
00800100
1F839F00
30047300
20082100
20082100
1F882100
30882100
20480100
20480100
200C0100
20078100
30000100
1FC00000
00000000
00000000
02000000
01000000
01800000
00800000
ENDCHAR
STARTCHAR uni0939094D0935
ENCODING -1
SWIDTH 920 0
DWIDTH 22 0
BBX 22 21 0 -6
BITMAP
FFFFFC
008010
008010
008390
1F8410
300810
200810
200810
1F8810
308810
204810
204C30
2047D0
200010
300010
1FC000
000000
020000
030000
010000
008000
ENDCHAR
STARTCHAR uni0915093C094D0915093C
ENCODING -1
SWIDTH 1275 0
DWIDTH 31 0
BBX 31 16 0 -1
BITMAP
FFFFFFFE
00800400
00800400
1CBCF5F0
30C38618
20810608
60810408
60810408
60810408
60810408
20810408
21818418
1F80FCF0
00800400
00800400
1000C000
ENDCHAR
STARTCHAR uni0915093C094D0924
ENCODING -1
SWIDTH 1016 0
DWIDTH 24 0
BBX 25 16 0 -1
BITMAP
FFFFFF80
00800400
00800400
1CBC0400
30C20400
2083FC00
60830400
60820400
60820400
60820400
20820400
21820400
1F820400
00830400
0081C400
10000000
ENDCHAR
STARTCHAR uni0915093C094D092B
ENCODING -1
SWIDTH 1246 0
DWIDTH 30 0
BBX 30 16 0 -1
BITMAP
FFFFFFFC
00820400
00820400
1C8207E0
30BE0630
20C20410
60820410
60820410
60830C10
6081F410
20800410
21800410
1F8004E0
00800400
00800400
10000000
ENDCHAR
STARTCHAR uni0915093C094D092B093C
ENCODING -1
SWIDTH 1247 0
DWIDTH 30 0
BBX 30 16 0 -1
BITMAP
FFFFFFFC
00820400
00820400
1C8205E0
30BE0630
20C20410
60820410
60820410
60830C10
6081F410
20800410
21800410
1F8004E0
00800400
00800400
10008000
ENDCHAR
STARTCHAR uni0915093C094D092C
ENCODING -1
SWIDTH 1043 0
DWIDTH 25 0
BBX 25 16 0 -1
BITMAP
FFFFFF80
00800200
00800200
1CBCF200
30C38200
20818200
60814200
60812200
60811200
60810A00
20810600
21818600
1F80FA00
00800200
00800200
10000000
ENDCHAR
STARTCHAR uni0915093C094D092E
ENCODING -1
SWIDTH 998 0
DWIDTH 24 0
BBX 24 16 0 -1
BITMAP
FFFFFF
008204
008204
1C8204
30BE04
20C204
608204
6083FC
608204
608204
208204
218004
1F8004
008004
008004
100000
ENDCHAR
STARTCHAR uni0916093C094D0924
ENCODING -1
SWIDTH 984 0
DWIDTH 24 0
BBX 24 16 0 -1
BITMAP
FFFFFF
040008
040008
040008
047008
04C1F8
048208
788608
408408
208408
308408
107C08
080608
0C0208
060388
003000
ENDCHAR
STARTCHAR uni0916093C094D092E
ENCODING -1
SWIDTH 965 0
DWIDTH 23 0
BBX 24 16 0 -1
BITMAP
FFFFFF
040408
040408
040408
047408
04C408
048408
7887F8
408408
208408
308408
107808
080008
0C0008
060008
001000
ENDCHAR
STARTCHAR uni0916093C094D092F
ENCODING -1
SWIDTH 1045 0
DWIDTH 25 0
BBX 25 16 0 -1
BITMAP
FFFFFF80
04008200
04004200
04004200
0470C200
04C78200
04840200
78840200
40840200
20860200
30860600
107BFA00
08000200
0C000200
06000200
00300000
ENDCHAR
STARTCHAR uni0916093C094D0935
ENCODING -1
SWIDTH 972 0
DWIDTH 23 0
BBX 24 16 0 -1
BITMAP
FFFFFF
040008
040008
0401C8
047208
04C608
048408
788408
408408
208408
308608
107A18
0803F8
0C0008
060008
003000
ENDCHAR
STARTCHAR uni0916093C094D0936
ENCODING -1
SWIDTH 1123 0
DWIDTH 27 0
BBX 27 16 0 -1
BITMAP
FFF1E0E0
04031080
04021080
04021080
04721080
04C01080
04801080
788FE080
40840080
20860080
30860080
107B0080
08018080
0C008080
0600C080
00300000
ENDCHAR
STARTCHAR uni0916093C094D0938
ENCODING -1
SWIDTH 1066 0
DWIDTH 26 0
BBX 26 16 0 -1
BITMAP
FFFFFFC0
04008200
04008200
04008200
04708200
04C08200
04808200
7887FE00
40840200
20860200
30860200
107B0200
08010200
0C008200
0600C200
00300000
ENDCHAR
STARTCHAR uni091C093C094D091C093C
ENCODING -1
SWIDTH 934 0
DWIDTH 22 0
BBX 22 16 0 -1
BITMAP
FFFFFC
000020
000020
000020
000020
3F9FE0
040620
060220
020220
020220
060220
040220
7C7C20
000020
000020
201800
ENDCHAR
STARTCHAR uni091C093C094D092F
ENCODING -1
SWIDTH 893 0
DWIDTH 21 0
BBX 22 16 0 -1
BITMAP
FFFFFC
000420
000420
000420
3FC420
047820
042020
062020
062020
062020
043060
041FA0
780020
000020
000020
200000
ENDCHAR
STARTCHAR uni092B093C094D091C093C
ENCODING -1
SWIDTH 1100 0
DWIDTH 26 0
BBX 27 16 0 -1
BITMAP
FFFFFFE0
20C00100
20C00100
20C00100
20FCFF00
20E02100
20C01100
20C01100
30C01100
1FC01100
00C01100
00C03100
00C3E100
00C00100
00C00100
10008000
ENDCHAR
STARTCHAR uni092B093C094D0924
ENCODING -1
SWIDTH 1036 0
DWIDTH 25 0
BBX 25 16 0 -1
BITMAP
FFFFFF80
20C00600
20C00600
20C00600
20FE0600
20C3FE00
20C18600
20C10600
30C10600
1FC10600
00C10600
00C10600
00C10600
00C10600
00C0E600
10000000
ENDCHAR
STARTCHAR uni092B093C094D092B093C
ENCODING -1
SWIDTH 1256 0
DWIDTH 30 0
BBX 30 16 0 -1
BITMAP
FFFFFFFC
20C30400
20C30400
20C305E0
20FF0610
20E30418
20C30408
20C30408
30C10C08
1FC0F408
00C00418
00C00410
00C004E0
00C00400
00C00400
10008000
ENDCHAR
STARTCHAR uni092B093C094D0938
ENCODING -1
SWIDTH 1141 0
DWIDTH 27 0
BBX 28 16 0 -1
BITMAP
FFFFFFF0
20C02080
20C02080
20C02080
20FC2080
20E22080
20C22080
20C3FF80
30C10080
1FC18080
00C08080
00C0C080
00C04080
00C06080
00C02080
10001000
ENDCHAR
STARTCHAR uni092C094D091C093C
ENCODING -1
SWIDTH 883 0
DWIDTH 21 0
BBX 22 16 0 -1
BITMAP
FFFFFC
000020
000020
000020
1E0020
203FE0
300420
280220
240220
220220
210220
208420
1FFC20
000020
000020
002000
ENDCHAR
STARTCHAR uni0932094D091C093C
ENCODING -1
SWIDTH 1062 0
DWIDTH 25 0
BBX 25 16 0 -1
BITMAP
FFFFFF80
00000600
00000600
00000600
1E73FE00
3380C600
21804600
21004600
21004600
21004600
20004600
20004600
200F8600
1E000600
00000600
00020000
ENDCHAR
STARTCHAR uni0936094D0915093C
ENCODING -1
SWIDTH 1093 0
DWIDTH 26 0
BBX 26 16 1 -1
BITMAP
3C7FFFC0
46008000
42008000
421CBC00
0220C200
02608300
06408100
FC408100
C0408100
40408100
20608300
30218200
101E9C00
18008000
0C008000
00100000
ENDCHAR
STARTCHAR uni0924094D0924094D
ENCODING -1
SWIDTH 309 0
DWIDTH 7 0
BBX 10 15 0 0
BITMAP
FFC0
0000
0000
0000
0000
7FC0
1800
1000
1000
1000
1000
1000
1000
1000
0E00
ENDCHAR
STARTCHAR uni0928094D092D094D
ENCODING -1
SWIDTH 505 0
DWIDTH 12 0
BBX 15 11 0 4
BITMAP
FF0E
0180
0080
0080
0080
0080
3F80
40FE
4080
4080
4080
ENDCHAR
STARTCHAR uni0928094D0938094D
ENCODING -1
SWIDTH 635 0
DWIDTH 15 0
BBX 18 15 0 0
BITMAP
FFFFC0
000800
000800
000800
000800
000800
3F1000
40FFC0
40C000
604000
006000
002000
001000
001000
000800
ENDCHAR
STARTCHAR uni092E094D092D094D
ENCODING -1
SWIDTH 533 0
DWIDTH 13 0
BBX 15 11 0 4
BITMAP
FF0E
2080
20C0
20C0
20C0
20C0
20C0
3FFE
20C0
20C0
20C0
ENDCHAR
STARTCHAR uni0932094D092D094D
ENCODING -1
SWIDTH 694 0
DWIDTH 17 0
BBX 19 14 0 1
BITMAP
FFF860
000800
000C00
000C00
1E7C00
338C00
218C00
210FE0
210C00
210C00
200C00
200000
200000
1E0000
ENDCHAR
STARTCHAR uni0938094D0924094D0930094D
ENCODING -1
SWIDTH 575 0
DWIDTH 14 0
BBX 17 15 0 0
BITMAP
FFFE00
0C0000
0C0000
0C0000
0C0000
0C3E00
086180
7FC080
400080
200080
300300
100600
180C00
081000
046000
ENDCHAR
STARTCHAR uni0915094D0924094D092F
ENCODING -1
SWIDTH 1356 0
DWIDTH 33 0
BBX 33 15 0 0
BITMAP
FFFFFFFF80
0080008400
0080008400
1CBC008400
30C2008400
2081FF0400
6081040400
6082040400
6082040400
6082040400
2082060C00
218203FC00
1E82000400
0081000400
0081C00400
ENDCHAR
STARTCHAR uni0915094D0924094D0930
ENCODING -1
SWIDTH 997 0
DWIDTH 24 0
BBX 24 15 0 0
BITMAP
FFFFFF
008004
008004
1CBC04
30C604
2083F4
60830C
60820C
608204
608204
20800C
218034
1F8064
008184
008304
ENDCHAR
STARTCHAR uni0915094D0924094D0935
ENCODING -1
SWIDTH 1242 0
DWIDTH 30 0
BBX 30 15 0 0
BITMAP
FFFFFFFC
00800030
00800030
1CBC03B0
30C20430
2083F830
60820830
60860830
60860830
60860830
20860830
21860C30
1F8607F0
00820030
00818030
ENDCHAR
STARTCHAR uni0915094D092A094D0930
ENCODING -1
SWIDTH 1007 0
DWIDTH 24 0
BBX 25 16 0 -1
BITMAP
FFFFFF80
00820400
00820400
1C820400
30BE0400
20C20400
60820400
60820400
60820400
60830C00
2081F400
21802400
1F804400
00808400
00818400
00020000
ENDCHAR
STARTCHAR uni0915094D0935094D092F
ENCODING -1
SWIDTH 1384 0
DWIDTH 33 0
BBX 34 15 0 0
BITMAP
FFFFFFFFC0
008000C200
0080004200
1CBCE04200
30C3004200
2083078200
6082040200
6082040200
6082040200
6082060200
2083060600
218105FA00
1E80F80200
0080000200
0080000200
ENDCHAR
STARTCHAR uni0915094D0938094D091F
ENCODING -1
SWIDTH 1376 0
DWIDTH 33 0
BBX 33 15 0 0
BITMAP
FFFFFFFF80
0080200600
0080200600
1CBC200600
30C2207E00
2083208000
6081210000
6081FF0000
6081010000
6080810100
2080810100
2180410100
1F80618200
008020FE00
0080300000
ENDCHAR
STARTCHAR uni0915094D0938094D0921
ENCODING -1
SWIDTH 1388 0
DWIDTH 33 0
BBX 34 15 0 0
BITMAP
FFFFFFFFC0
0080200200
0080200200
1CBC200200
30C2207E00
2083208000
6081208000
6081FF8000
608100FE00
6080800300
2080800100
2180400100
1F80608100
0080208300
008030FE00
ENDCHAR
STARTCHAR uni0915094D0938094D0924
ENCODING -1
SWIDTH 1423 0
DWIDTH 34 0
BBX 34 15 0 0
BITMAP
FFFFFFFFC0
0080200100
0080200100
1CBC200100
30C2200100
2083207F00
608120C100
6081FF8100
6081008100
6080808100
2080808100
2180408100
1F80608100
008020C100
0080307100
ENDCHAR
STARTCHAR uni0915094D0938094D092A094D0930
ENCODING -1
SWIDTH 1437 0
DWIDTH 34 0
BBX 35 16 0 -1
BITMAP
FFFFFFFFE0
008020C100
008020C100
1CBC20C100
30C220C100
208320C100
608120C100
6081FFC100
6081004100
6080804300
2080803F00
2180400500
1F80600900
0080203100
0080306100
0000004000
ENDCHAR
STARTCHAR uni0915094D0938094D092A094D0932
ENCODING -1
SWIDTH 1866 0
DWIDTH 45 0
BBX 45 15 0 0
BITMAP
FFFFFFFFFFF8
008020C00060
008020C00060
1CBC20C00060
30C220C0E7E0
208320C11460
608120C30860
6081FFC20860
608100420860
608080420860
2080803E0860
218040020060
1F8060010060
00802001E060
008030000060
ENDCHAR
STARTCHAR uni0917094D0927094D092F
ENCODING -1
SWIDTH 1156 0
DWIDTH 28 0
BBX 28 15 0 0
BITMAP
FFF3FFF0
10C010C0
108018C0
108018C0
108010C0
1040F0C0
107880C0
10C080C0
108080C0
E08080C0
0080C1C0
00C0FFC0
007F00C0
000000C0
000000C0
ENDCHAR
STARTCHAR uni0917094D0927094D0935
ENCODING -1
SWIDTH 1084 0
DWIDTH 26 0
BBX 26 15 0 0
BITMAP
FFF3FFC0
10400100
10800100
10803900
10804100
10C08100
10388100
10C08100
10808100
E0808100
00808100
00C0C300
007F7D00
00000100
00000100
ENDCHAR
STARTCHAR uni0917094D0928094D092F
ENCODING -1
SWIDTH 1069 0
DWIDTH 26 0
BBX 26 15 0 0
BITMAP
FFFFFFC0
10004200
10004200
10004200
10004200
10FFC200
11820200
11020200
11020200
E0820200
00030600
0001FE00
00000200
00000200
00000200
ENDCHAR
STARTCHAR uni0917094D092D094D092F
ENCODING -1
SWIDTH 1102 0
DWIDTH 26 0
BBX 27 15 0 0
BITMAP
FF87FFE0
10802100
10402100
10402100
10402100
1041C100
10410100
107F0100
10410100
E0410100
00418300
0000FD00
00000100
00000100
00000100
ENDCHAR
STARTCHAR uni0917094D0930094D092F
ENCODING -1
SWIDTH 817 0
DWIDTH 20 0
BBX 20 16 0 -1
BITMAP
FFFFF0
101080
101080
101080
101080
10F080
108080
108080
108080
E08080
00C180
007F80
000680
000C80
001080
002000
ENDCHAR
STARTCHAR uni091A094D091B094D0935
ENCODING -1
SWIDTH 913 0
DWIDTH 22 0
BBX 22 17 0 -2
BITMAP
FFFFFC
003030
002030
002030
0020E0
7F3010
101C10
103010
102010
102010
102010
0FDFF0
001030
001030
001020
001020
000FC0
ENDCHAR
STARTCHAR uni091C094D091C094D091E
ENCODING -1
SWIDTH 945 0
DWIDTH 23 0
BBX 23 16 0 -1
BITMAP
FFFFFE
000018
000018
000018
003FF8
3FE018
046018
062018
023F18
020098
066098
046098
7C6098
007F98
006010
006000
ENDCHAR
STARTCHAR uni091C094D091C094D092F
ENCODING -1
SWIDTH 1252 0
DWIDTH 30 0
BBX 30 15 0 0
BITMAP
FFFFFFFC
00000410
00000210
00000210
00000210
3F9FE610
04063C10
06022010
02022010
02022010
06021030
04060FD0
7C7C0010
00000010
00000010
ENDCHAR
STARTCHAR uni091C094D091C094D0935
ENCODING -1
SWIDTH 1243 0
DWIDTH 30 0
BBX 29 15 0 0
BITMAP
FFFFFFF8
00000040
00000040
00000E40
00001040
3F9FE040
04062040
06022040
02022040
02022040
06022040
040610C0
7C7C1F40
00000040
00000040
ENDCHAR
STARTCHAR uni0924094D0915094D092F
ENCODING -1
SWIDTH 1346 0
DWIDTH 32 0
BBX 33 15 0 0
BITMAP
FFFFFFFF80
0001008400
0001008400
0039008400
0041008400
1F81FF0400
30818C0400
20810C0400
20810C0400
2081040400
2083040C00
20C303F400
207D000400
2001000400
1C01000400
ENDCHAR
STARTCHAR uni0924094D0915094D0930
ENCODING -1
SWIDTH 995 0
DWIDTH 24 0
BBX 24 16 0 -1
BITMAP
FFFFFF
000100
000100
003978
00418C
1F8104
308104
208104
208104
208104
208304
20C304
207D38
200900
1C1100
006000
ENDCHAR
STARTCHAR uni0924094D0915094D0935
ENCODING -1
SWIDTH 1282 0
DWIDTH 31 0
BBX 31 15 0 0
BITMAP
FFFFFFFE
00010018
00010018
0039FBD8
00418E18
1F810418
30810418
20810418
20810418
20810418
20830418
20C30618
207D03F8
20010018
1C010018
ENDCHAR
STARTCHAR uni0924094D0915094D0937
ENCODING -1
SWIDTH 943 0
DWIDTH 23 0
BBX 23 15 0 0
BITMAP
FF9E1E
002110
002110
002110
002110
1FBFF0
30C010
204010
204010
204110
204110
204110
207F10
200110
1C0110
ENDCHAR
STARTCHAR uni0924094D0916094D0930
ENCODING -1
SWIDTH 1008 0
DWIDTH 24 0
BBX 25 16 0 -1
BITMAP
FFFFFF80
000C0400
000C0400
000C0400
000C6400
1F0C8400
20890400
20F90400
20410400
20618C00
2020FC00
20101400
20182400
20084400
1C04C400
00018000
ENDCHAR
STARTCHAR uni0924094D0924094D092F
ENCODING -1
SWIDTH 888 0
DWIDTH 21 0
BBX 22 15 0 0
BITMAP
FFFFFC
000C20
000420
000420
000420
7FC420
107820
106020
106020
106020
102060
101FA0
100020
100020
0E0020
ENDCHAR
STARTCHAR uni0924094D0924094D0935
ENCODING -1
SWIDTH 788 0
DWIDTH 19 0
BBX 19 15 0 0
BITMAP
FFFFE0
000080
000080
001C80
002080
7FC080
184080
104080
104080
104080
104180
106180
103E80
100080
0E0080
ENDCHAR
STARTCHAR uni0924094D0928094D092F
ENCODING -1
SWIDTH 1098 0
DWIDTH 26 0
BBX 27 15 0 0
BITMAP
FFFFFFE0
00006100
00002100
00002100
00002100
1F802100
20FFC100
20830100
20830100
20C10100
20010300
2000FD00
20000100
20000100
1C000100
ENDCHAR
STARTCHAR uni0924094D092A094D0930
ENCODING -1
SWIDTH 763 0
DWIDTH 18 0
BBX 19 16 0 -1
BITMAP
FFFFE0
008100
008100
008100
008100
1F8100
308100
208100
208100
204300
207F00
200D00
201900
203100
1C6100
004000
ENDCHAR
STARTCHAR uni0924094D092A094D0932
ENCODING -1
SWIDTH 1219 0
DWIDTH 29 0
BBX 30 15 0 0
BITMAP
FFFFFFFC
00800020
00800020
00800020
0080F3A0
1F819C60
30810C20
20810820
20810820
20430820
207F0820
20010020
20010020
2000F020
1C000020
ENDCHAR
STARTCHAR uni0924094D092E094D092F
ENCODING -1
SWIDTH 1096 0
DWIDTH 26 0
BBX 27 15 0 0
BITMAP
FFFFFFE0
00802100
00802100
00802100
00802100
1F83C100
30830100
20FF0100
20830100
20830100
20810300
2000FD00
20000100
20000100
1C000100
ENDCHAR
STARTCHAR uni0924094D0930094D092F
ENCODING -1
SWIDTH 848 0
DWIDTH 20 0
BBX 21 15 0 0
BITMAP
FFFFF8
000840
000840
000840
1F0840
208840
20F040
20C040
20C040
00C040
0140C0
023F40
0C0040
180040
300040
ENDCHAR
STARTCHAR uni0924094D0938094D092F
ENCODING -1
SWIDTH 1234 0
DWIDTH 30 0
BBX 30 15 0 0
BITMAP
FFFFFFFC
00080420
00080420
00080420
00080420
1F883C20
20C82020
207FE020
20402020
20202020
20203060
20101FE0
20180020
20080020
1C0C0020
ENDCHAR
STARTCHAR uni0924094D0938094D0935
ENCODING -1
SWIDTH 1155 0
DWIDTH 28 0
BBX 28 15 0 0
BITMAP
FFFFFFF0
000800C0
000800C0
00081EC0
000830C0
1F8820C0
20C820C0
207FE0C0
204020C0
202020C0
202020C0
201020C0
20181FC0
200800C0
1C0C00C0
ENDCHAR
STARTCHAR uni0926094D0917094D0930
ENCODING -1
SWIDTH 493 0
DWIDTH 12 0
BBX 12 20 0 -5
BITMAP
FFF0
00C0
00C0
00C0
1FC0
3000
2000
2000
2040
2040
2040
1FC0
0840
0840
0840
08C0
09C0
3340
0640
0C00
ENDCHAR
STARTCHAR uni0926094D092C094D0930
ENCODING -1
SWIDTH 483 0
DWIDTH 12 0
BBX 12 21 0 -6
BITMAP
FFF0
00C0
00C0
00C0
1FC0
3000
2000
2000
2000
2040
2040
20C0
1FC0
3840
2440
2240
21C0
1F80
0300
0200
0C00
ENDCHAR
STARTCHAR uni0926094D092F094D092D
ENCODING -1
SWIDTH 607 0
DWIDTH 15 0
BBX 15 19 0 -4
BITMAP
FFFE
0110
0110
1F10
3010
2010
3010
1E10
3010
2010
2010
3010
1FF0
00D0
3190
4A10
0410
0210
0110
ENDCHAR
STARTCHAR uni0926094D092F094D0930
ENCODING -1
SWIDTH 595 0
DWIDTH 14 0
BBX 15 17 0 -2
BITMAP
FFFE
0210
0210
1E10
3010
2010
2010
2010
1E10
2010
2010
2010
2030
1FF0
0090
0100
0200
ENDCHAR
STARTCHAR uni0927094D0928094D092F
ENCODING -1
SWIDTH 1138 0
DWIDTH 27 0
BBX 28 15 0 0
BITMAP
FCFFFFF0
20003080
20001080
20001080
20001080
1E001080
303FE080
20418080
20418080
20418080
1FA08180
00007E80
00000080
00000080
00000080
ENDCHAR
STARTCHAR uni0928094D0915094D0938
ENCODING -1
SWIDTH 1384 0
DWIDTH 33 0
BBX 34 15 0 0
BITMAP
FFFFFFFFC0
0002008200
0002008200
0072F08200
00C3188200
0082088200
3F82098200
41820FFE00
41820C0200
4182040200
0082020200
0086030200
007E010200
0002018200
0002008200
ENDCHAR
STARTCHAR uni0928094D0924094D092F
ENCODING -1
SWIDTH 1073 0
DWIDTH 26 0
BBX 26 15 0 0
BITMAP
FFFFFFC0
00004300
00006300
00006300
00004300
007FC300
3F820300
41820300
41820300
41820300
01830300
0181FF00
01800300
00800300
00600300
ENDCHAR
STARTCHAR uni0928094D0924094D0930
ENCODING -1
SWIDTH 732 0
DWIDTH 18 0
BBX 18 15 0 0
BITMAP
FFFFC0
000200
000200
000200
000200
00FE00
3F8600
418200
410200
410200
000600
000A00
003200
006200
008200
ENDCHAR
STARTCHAR uni0928094D0924094D0938
ENCODING -1
SWIDTH 1134 0
DWIDTH 27 0
BBX 28 15 0 0
BITMAP
FFFFFFF0
00002080
00002080
00002080
007C2080
00822080
3F826080
4183FF80
41830080
41810080
01808080
0180C080
01804080
00806080
00602080
ENDCHAR
STARTCHAR uni0928094D0925094D092F
ENCODING -1
SWIDTH 1168 0
DWIDTH 28 0
BBX 28 15 0 0
BITMAP
FC78FFF0
008C1040
00840840
00840840
00041840
000CF040
3FF88040
41808040
41808040
418080C0
0080C0C0
007F3F40
00000040
00000040
00000040
ENDCHAR
STARTCHAR uni0928094D0925094D0935
ENCODING -1
SWIDTH 1089 0
DWIDTH 26 0
BBX 26 15 0 0
BITMAP
FC78FFC0
008C0100
00840100
00843900
00044100
000C8100
3FF88100
41808100
41808100
41808100
00808100
007F4300
00003D00
00000100
00000100
ENDCHAR
STARTCHAR uni0928094D0926094D0930
ENCODING -1
SWIDTH 734 0
DWIDTH 18 0
BBX 18 16 0 -1
BITMAP
FFFFC0
000200
000200
000200
007E00
00C000
3F8000
408000
408000
408100
008100
008300
007D00
000900
001100
002000
ENDCHAR
STARTCHAR uni0928094D0926094D0935
ENCODING -1
SWIDTH 732 0
DWIDTH 18 0
BBX 18 18 0 -3
BITMAP
FFFFC0
000200
000200
000200
007E00
00C000
3F8000
418000
418000
418100
008100
008300
007D00
00C100
008100
008100
008200
007E00
ENDCHAR
STARTCHAR uni0928094D0927094D092F
ENCODING -1
SWIDTH 1097 0
DWIDTH 26 0
BBX 27 15 0 0
BITMAP
FFE7FFE0
01802100
01002100
01002100
01002100
0183C100
3FF30100
41830100
41030100
61010100
01010300
0183FD00
00FE0100
00000100
00000100
ENDCHAR
STARTCHAR uni0928094D0927094D0930
ENCODING -1
SWIDTH 783 0
DWIDTH 19 0
BBX 19 16 0 -1
BITMAP
FFE7E0
018180
010180
010180
010180
018180
3FF180
618180
410180
410180
210180
018180
00FF80
000D80
001980
006000
ENDCHAR
STARTCHAR uni0928094D0927094D0935
ENCODING -1
SWIDTH 1036 0
DWIDTH 25 0
BBX 25 15 0 0
BITMAP
FFE7FF80
01800200
01000200
0100F200
01018200
01810200
3FF10200
61810200
41010200
41010200
21010600
01818600
00FEFA00
00000200
00000200
ENDCHAR
STARTCHAR uni0928094D0928094D092F
ENCODING -1
SWIDTH 1071 0
DWIDTH 26 0
BBX 26 15 0 0
BITMAP
FFFFFFC0
00004300
00004300
00006300
00004300
00004300
3FFFC300
41820300
41020300
40820300
00030700
0001FF00
00000300
00000300
00000300
ENDCHAR
STARTCHAR uni0928094D092A094D0930
ENCODING -1
SWIDTH 737 0
DWIDTH 18 0
BBX 18 16 0 -1
BITMAP
FFFFC0
008300
008300
008300
008300
008300
3F8300
408300
408300
408300
407F00
000B00
001300
002300
004300
008000
ENDCHAR
STARTCHAR uni0928094D092B094D0930
ENCODING -1
SWIDTH 975 0
DWIDTH 23 0
BBX 24 16 0 -1
BITMAP
FFFFFF
008200
008200
0082F0
008308
008204
3F8204
408204
408604
407E04
000A04
001208
002278
006200
00C200
008000
ENDCHAR
STARTCHAR uni0928094D092D094D092F
ENCODING -1
SWIDTH 1071 0
DWIDTH 26 0
BBX 26 15 0 0
BITMAP
FF0FFFC0
01804300
00804300
00806300
00804300
0083C300
3F820300
40FE0300
40820300
40820300
00830700
0001FF00
00000300
00000300
00000300
ENDCHAR
STARTCHAR uni0928094D092D094D0935
ENCODING -1
SWIDTH 995 0
DWIDTH 24 0
BBX 24 15 0 0
BITMAP
FF0FFF
018004
008004
0081E4
008304
008204
3F8204
40FE04
408204
408204
40820C
00030C
0001F4
000004
000004
ENDCHAR
STARTCHAR uni0928094D092E094D092F
ENCODING -1
SWIDTH 1071 0
DWIDTH 26 0
BBX 26 15 0 0
BITMAP
FFFFFFC0
00804300
00804300
00806300
00804300
0083C300
3F820300
40FE0300
40820300
40820300
00830700
0001FF00
00000300
00000300
00000300
ENDCHAR
STARTCHAR uni0928094D0938094D091F
ENCODING -1
SWIDTH 1113 0
DWIDTH 27 0
BBX 27 15 0 0
BITMAP
FFFFFFE0
00100100
00100100
00100100
00103F00
00106000
3F104000
61FFC000
40804000
60C04080
004040C0
00604080
00206080
00103F00
00180000
ENDCHAR
STARTCHAR uni0928094D0938094D092E094D092F
ENCODING -1
SWIDTH 1453 0
DWIDTH 35 0
BBX 35 15 0 0
BITMAP
FFFFFFFFE0
0010402080
0010401080
0010401080
0010403080
001041E080
3F30410080
41FFFF0080
4180410180
4080410180
0040418180
006000FE80
0020000080
0030000080
0010000080
ENDCHAR
STARTCHAR uni0928094D0938094D092F
ENCODING -1
SWIDTH 1194 0
DWIDTH 29 0
BBX 29 15 0 0
BITMAP
FFFFFFF8
00100840
00100840
00100840
00100840
00107040
3F304040
41FFC040
40804040
40804040
004060C0
00603FC0
00200040
00300040
00100040
ENDCHAR
STARTCHAR uni092A094D0924094D092F
ENCODING -1
SWIDTH 1119 0
DWIDTH 27 0
BBX 27 15 0 0
BITMAP
FFFFFFE0
20002180
20003180
20001180
20003180
20002180
203FE180
20410180
20410180
30C10180
1FC18180
00C0FF80
00C00180
00400180
00380180
ENDCHAR
STARTCHAR uni092C094D091C094D092F
ENCODING -1
SWIDTH 1235 0
DWIDTH 30 0
BBX 30 15 0 0
BITMAP
FFFFFFFC
00000420
00000420
00000420
1E3FC420
30043C20
28062020
2C022020
24022020
22022020
21023060
20841FE0
1FFC0020
00000020
00000020
ENDCHAR
STARTCHAR uni092C094D0927094D0935
ENCODING -1
SWIDTH 1097 0
DWIDTH 26 0
BBX 27 15 0 0
BITMAP
FFF9FFE0
00400100
00400100
1E403900
30404100
3040C100
283C8100
24608100
26408100
23408100
21C0C100
20C0C300
1F3FBF00
00000100
00000100
ENDCHAR
STARTCHAR uni092C094D092D094D0930
ENCODING -1
SWIDTH 764 0
DWIDTH 18 0
BBX 19 15 0 0
BITMAP
FF87E0
008100
00C100
1EC100
30C100
30C100
28C100
24FF00
22C100
23C300
21C500
208900
1F1100
003100
006100
ENDCHAR
STARTCHAR uni092C094D0932094D092F
ENCODING -1
SWIDTH 480 0
DWIDTH 12 0
BBX 32 15 0 0
BITMAP
FFFFFFFF
00000108
00000108
1E000108
303CF108
30471908
28420F08
24420808
22420808
21400808
20C00C18
20C007F8
1F380008
00000008
00000008
ENDCHAR
STARTCHAR uni092D094D0930094D092F
ENCODING -1
SWIDTH 830 0
DWIDTH 20 0
BBX 20 15 0 0
BITMAP
C3FFF0
601040
200840
200840
201840
20F040
208040
3F8040
208040
2180C0
02C0C0
067F40
0C0040
080040
300040
ENDCHAR
STARTCHAR uni092E094D092A094D0930
ENCODING -1
SWIDTH 765 0
DWIDTH 18 0
BBX 19 16 0 -1
BITMAP
FFFFE0
208100
208100
208100
208100
208100
208100
3F8100
208100
204300
203F00
000D00
001900
003100
006100
004000
ENDCHAR
STARTCHAR uni092E094D092C094D092F
ENCODING -1
SWIDTH 1124 0
DWIDTH 27 0
BBX 27 15 0 0
BITMAP
FFFFFFE0
20002080
20001080
20381080
20403080
20A1E080
20910080
3F890080
20850080
20870180
20838180
00C27E80
007E0080
00000080
00000080
ENDCHAR
STARTCHAR uni092E094D092C094D0930
ENCODING -1
SWIDTH 768 0
DWIDTH 18 0
BBX 19 16 0 -1
BITMAP
FFFFE0
200100
200100
203900
204100
20E100
20B100
3F9900
208900
208500
208300
004300
007F00
000D00
001100
002000
ENDCHAR
STARTCHAR uni092E094D092D094D092F
ENCODING -1
SWIDTH 1101 0
DWIDTH 26 0
BBX 27 15 0 0
BITMAP
FF87FFE0
20802100
20C02100
20C02100
20C02100
20C1C100
20C10100
3FFF0100
20C10100
20C10100
20418300
0000FD00
00000100
00000100
00000100
ENDCHAR
STARTCHAR uni092E094D092D094D0930
ENCODING -1
SWIDTH 759 0
DWIDTH 18 0
BBX 19 15 0 0
BITMAP
FF0FE0
208100
208100
20C100
20C100
20C100
20C100
3FFF00
20C100
20C300
20C500
000900
001100
002100
004100
ENDCHAR
STARTCHAR uni092E094D092D094D0935
ENCODING -1
SWIDTH 1028 0
DWIDTH 25 0
BBX 25 15 0 0
BITMAP
FF87FF80
20800400
20C00400
20C0F400
20C18400
20C10400
20C10400
3FFF0400
20C10400
20C10400
20C10400
00010400
0000FC00
00000400
00000400
ENDCHAR
STARTCHAR uni0932094D0915094D092F
ENCODING -1
SWIDTH 1534 0
DWIDTH 37 0
BBX 37 15 0 0
BITMAP
FFFFFFFFF8
0000100860
0000100C60
0003900C60
1E76100860
338C17F860
218C184060
210C104060
210C104060
210C104060
2004106060
2004303FE0
2003F00060
1E00100060
0000100060
ENDCHAR
STARTCHAR uni0932094D0925094D092F
ENCODING -1
SWIDTH 1397 0
DWIDTH 34 0
BBX 34 15 0 0
BITMAP
FFF3C7FFC0
0006204200
0004204200
0004204200
1E70204200
3188238200
2188620200
2107C20200
2104020200
2104020200
2004070600
2003F9FE00
2000000200
1E00000200
0000000200
ENDCHAR
STARTCHAR uni0932094D0926094D0930
ENCODING -1
SWIDTH 933 0
DWIDTH 22 0
BBX 23 16 0 -1
BITMAP
FFFFFE
000010
000010
000010
1E73F0
338C00
218C00
210800
210800
210808
200C18
200418
2003E8
1E0048
000088
000100
ENDCHAR
STARTCHAR uni0932094D0932094D092F
ENCODING -1
SWIDTH 1476 0
DWIDTH 35 0
BBX 36 15 0 0
BITMAP
FFFFFFFFF0
0000001080
0000001080
0000001080
1E73DE1080
338C711080
218C21E080
210C208080
210C208080
200C008080
200C008180
2004007E80
1E03800080
0000000080
0000000080
ENDCHAR
STARTCHAR uni0932094D0935094D0921
ENCODING -1
SWIDTH 1247 0
DWIDTH 30 0
BBX 30 15 0 0
BITMAP
FFFFFFFC
00000010
00000010
0003C010
1E7407F0
338C0C00
218C0800
210C0C00
210C07E0
210C1010
20041010
20041010
2003F010
1E001810
00000FF0
ENDCHAR
STARTCHAR uni0937094D0915094D0930
ENCODING -1
SWIDTH 1042 0
DWIDTH 25 0
BBX 25 16 0 -1
BITMAP
FFFFFF80
20008000
30008000
281CBC00
2420C600
22408200
21408300
21C08300
20C08300
30C08300
1F408200
00618200
003E9C00
00048000
00088000
00300000
ENDCHAR
STARTCHAR uni0937094D091F094D092F
ENCODING -1
SWIDTH 997 0
DWIDTH 24 0
BBX 24 15 0 0
BITMAP
FFFFFF
304004
284004
247F04
224084
214084
30C0C4
1FC084
300704
200404
20040C
20660C
2063F4
204004
1F8004
ENDCHAR
STARTCHAR uni0937094D091F094D0930
ENCODING -1
SWIDTH 493 0
DWIDTH 12 0
BBX 12 19 0 -4
BITMAP
FFF0
3040
2840
2440
2240
2140
30C0
1FC0
3000
2000
2000
2060
2060
2040
1F80
0700
0900
1880
30C0
ENDCHAR
STARTCHAR uni0937094D091F094D0935
ENCODING -1
SWIDTH 493 0
DWIDTH 12 0
BBX 12 19 0 -4
BITMAP
FFF0
3040
2840
2440
2240
2140
30C0
1FC0
3000
2000
2060
2060
2040
1FC0
3040
2040
2040
2080
1F80
ENDCHAR
STARTCHAR uni0937094D0920094D092F
ENCODING -1
SWIDTH 1006 0
DWIDTH 24 0
BBX 25 15 0 0
BITMAP
FFFFFF80
3FC00400
3FC00400
3FFF8400
3FC08400
3FC04400
1FC04400
1FC08400
20478400
20640400
20640400
20660C00
2063F400
20400400
1F800400
ENDCHAR
STARTCHAR uni0937094D0920094D0930
ENCODING -1
SWIDTH 512 0
DWIDTH 12 0
BBX 13 19 0 -4
BITMAP
FFF8
3FC0
3FC0
3FC0
3FC0
3FC0
3F40
1FC0
2040
2060
2060
2060
2060
2040
1F80
0F00
0980
1080
2040
ENDCHAR
STARTCHAR uni0937094D0923094D092F
ENCODING -1
SWIDTH 1273 0
DWIDTH 31 0
BBX 31 15 0 0
BITMAP
FFFFFFFE
30410210
30410210
28410210
24410210
22411E10
21411010
20C11010
20C11010
30E31010
1F3E1830
00000FF0
00000010
00000010
00000010
ENDCHAR
STARTCHAR uni0937094D092A094D0930
ENCODING -1
SWIDTH 798 0
DWIDTH 19 0
BBX 20 16 0 -1
BITMAP
FFFFF0
204080
304080
284080
244080
224080
214080
21C080
20C080
30E180
1F3E80
000480
000880
001080
003080
004000
ENDCHAR
STARTCHAR uni0937094D092E094D092F
ENCODING -1
SWIDTH 1121 0
DWIDTH 27 0
BBX 27 15 0 0
BITMAP
FFFFFFE0
20402080
30401080
28401080
24403080
2241E080
21410080
21FF0080
20C10080
30C10180
1F418180
0000FE80
00000080
00000080
00000080
ENDCHAR
STARTCHAR uni0938094D0915094D0930
ENCODING -1
SWIDTH 1084 0
DWIDTH 26 0
BBX 26 16 0 -1
BITMAP
FFFFFFC0
0C004000
0C004000
0C0E5E00
0C106300
0C204100
08204180
7FE04180
40204180
20204180
30204100
1010C100
181F4E00
08024000
0C044000
00180000
ENDCHAR
STARTCHAR uni0938094D0915094D0935
ENCODING -1
SWIDTH 1369 0
DWIDTH 33 0
BBX 33 15 0 0
BITMAP
FFFFFFFF80
0C00400200
0C00400200
0C0E5EF200
0C10638200
0C20410200
0820410200
7FE0410200
4020410200
2020410200
3020410600
1010C18600
181F40FA00
0800400200
0400400200
ENDCHAR
STARTCHAR uni0938094D0924094D092F
ENCODING -1
SWIDTH 1185 0
DWIDTH 28 0
BBX 29 15 0 0
BITMAP
FFFFFFF8
0C000840
0C000840
0C000840
0C000840
0C000840
081FF040
7FF04040
40204040
20204040
302040C0
10203F40
18200040
08300040
041C0040
ENDCHAR
STARTCHAR uni0938094D0924094D0930
ENCODING -1
SWIDTH 818 0
DWIDTH 20 0
BBX 20 15 0 0
BITMAP
FFFFF0
0C0080
0C0080
0C0080
0C0080
0C1F80
082180
7FE080
400080
200080
300180
100680
180C80
081880
042080
ENDCHAR
STARTCHAR uni0938094D0924094D0935
ENCODING -1
SWIDTH 1126 0
DWIDTH 27 0
BBX 27 15 0 0
BITMAP
FFFFFFE0
0C000080
0C000080
0C001C80
0C002080
0C1FC080
08304080
7FE04080
40204080
20204080
30204080
10206180
18203E80
08300080
041C0080
ENDCHAR
STARTCHAR uni0938094D0925094D092F
ENCODING -1
SWIDTH 1303 0
DWIDTH 31 0
BBX 32 15 0 0
BITMAP
FF8F1FFF
0C118308
0C108108
0C108108
0C008108
0C019E08
083F1808
7FF01808
40301808
20301808
30101818
100FE7E8
18000008
08000008
04000008
ENDCHAR
STARTCHAR uni0938094D092A094D0930
ENCODING -1
SWIDTH 850 0
DWIDTH 20 0
BBX 21 16 0 -1
BITMAP
FFFFF8
0C2040
0C2040
0C2040
0C2040
0C2040
082040
7FE040
402040
2010C0
300FC0
100340
180640
080C40
041840
001000
ENDCHAR
STARTCHAR uni0938094D092E094D092F
ENCODING -1
SWIDTH 1189 0
DWIDTH 29 0
BBX 29 15 0 0
BITMAP
FFFFFFF8
0C300840
0C300840
0C300840
0C300840
0C307040
08304040
7FFFC040
40304040
20304040
303060C0
10003FC0
18000040
08000040
04000040
ENDCHAR
STARTCHAR uni093F.a01
ENCODING -1
SWIDTH 231 0
DWIDTH 6 0
BBX 12 21 0 0
BITMAP
1FC0
3020
2010
2010
2000
2000
FC00
2000
2000
2000
2000
2000
2000
2000
2000
2000
2000
2000
2000
2000
2000
ENDCHAR
STARTCHAR uni093F.a04
ENCODING -1
SWIDTH 231 0
DWIDTH 6 0
BBX 15 21 0 0
BITMAP
1FFC
3006
2002
2002
2000
2000
FC00
2000
2000
2000
2000
2000
2000
2000
2000
2000
2000
2000
2000
2000
2000
ENDCHAR
STARTCHAR uni093F.a05
ENCODING -1
SWIDTH 231 0
DWIDTH 6 0
BBX 16 21 0 0
BITMAP
1FFE
3003
2001
2001
2000
2000
FC00
2000
2000
2000
2000
2000
2000
2000
2000
2000
2000
2000
2000
2000
2000
ENDCHAR
STARTCHAR uni093F.a06
ENCODING -1
SWIDTH 231 0
DWIDTH 6 0
BBX 17 21 0 0
BITMAP
1FFF00
300080
200080
200080
200000
200000
FC0000
200000
200000
200000
200000
200000
200000
200000
200000
200000
200000
200000
200000
200000
200000
ENDCHAR
STARTCHAR uni093F.a07
ENCODING -1
SWIDTH 231 0
DWIDTH 6 0
BBX 19 21 0 0
BITMAP
1FFF80
300040
200040
200060
200000
200000
FC0000
200000
200000
200000
200000
200000
200000
200000
200000
200000
200000
200000
200000
200000
200000
ENDCHAR
STARTCHAR uni093F.a08
ENCODING -1
SWIDTH 231 0
DWIDTH 6 0
BBX 20 21 0 0
BITMAP
1FFFC0
300020
200030
200030
200000
200000
FC0000
200000
200000
200000
200000
200000
200000
200000
200000
200000
200000
200000
200000
200000
200000
ENDCHAR
STARTCHAR uni093F.a09
ENCODING -1
SWIDTH 231 0
DWIDTH 6 0
BBX 21 21 0 0
BITMAP
1FFFF0
300010
200008
200008
200000
200000
FC0000
200000
200000
200000
200000
200000
200000
200000
200000
200000
200000
200000
200000
200000
200000
ENDCHAR
STARTCHAR uni093F.a10
ENCODING -1
SWIDTH 231 0
DWIDTH 6 0
BBX 22 21 0 0
BITMAP
1FFFF8
30000C
200004
200004
200000
200000
FC0000
200000
200000
200000
200000
200000
200000
200000
200000
200000
200000
200000
200000
200000
200000
ENDCHAR
STARTCHAR uni093F.a11
ENCODING -1
SWIDTH 231 0
DWIDTH 6 0
BBX 23 21 0 0
BITMAP
1FFFFC
300006
200002
200002
200000
200000
FC0000
200000
200000
200000
200000
200000
200000
200000
200000
200000
200000
200000
200000
200000
200000
ENDCHAR
STARTCHAR uni093F.a12
ENCODING -1
SWIDTH 231 0
DWIDTH 6 0
BBX 24 21 0 0
BITMAP
1FFFFE
300003
200001
200001
200000
200000
FC0000
200000
200000
200000
200000
200000
200000
200000
200000
200000
200000
200000
200000
200000
200000
ENDCHAR
STARTCHAR uni093F.a13
ENCODING -1
SWIDTH 231 0
DWIDTH 6 0
BBX 25 21 0 0
BITMAP
1FFFFF00
30000080
20000080
20000080
20000000
20000000
FC000000
20000000
20000000
20000000
20000000
20000000
20000000
20000000
20000000
20000000
20000000
20000000
20000000
20000000
20000000
ENDCHAR
STARTCHAR uni093F.a14
ENCODING -1
SWIDTH 231 0
DWIDTH 6 0
BBX 26 21 0 0
BITMAP
1FFFFF80
30000040
20000040
20000040
20000000
20000000
FC000000
20000000
20000000
20000000
20000000
20000000
20000000
20000000
20000000
20000000
20000000
20000000
20000000
20000000
20000000
ENDCHAR
STARTCHAR uni093F.a15
ENCODING -1
SWIDTH 231 0
DWIDTH 6 0
BBX 28 21 0 0
BITMAP
1FFFFFC0
30000020
20000020
20000030
20000000
20000000
FC000000
20000000
20000000
20000000
20000000
20000000
20000000
20000000
20000000
20000000
20000000
20000000
20000000
20000000
20000000
ENDCHAR
STARTCHAR uni093F.a16
ENCODING -1
SWIDTH 231 0
DWIDTH 6 0
BBX 29 21 0 0
BITMAP
1FFFFFE0
30000010
20000018
20000018
20000000
20000000
FC000000
20000000
20000000
20000000
20000000
20000000
20000000
20000000
20000000
20000000
20000000
20000000
20000000
20000000
20000000
ENDCHAR
STARTCHAR uni093F.a17
ENCODING -1
SWIDTH 231 0
DWIDTH 6 0
BBX 30 21 0 0
BITMAP
1FFFFFF8
30000008
20000004
20000004
20000000
20000000
FC000000
20000000
20000000
20000000
20000000
20000000
20000000
20000000
20000000
20000000
20000000
20000000
20000000
20000000
20000000
ENDCHAR
STARTCHAR uni093F.a18
ENCODING -1
SWIDTH 231 0
DWIDTH 6 0
BBX 31 21 0 0
BITMAP
1FFFFFFC
30000006
20000002
20000002
20000000
20000000
FC000000
20000000
20000000
20000000
20000000
20000000
20000000
20000000
20000000
20000000
20000000
20000000
20000000
20000000
20000000
ENDCHAR
STARTCHAR uni093F.a19
ENCODING -1
SWIDTH 231 0
DWIDTH 6 0
BBX 32 21 0 0
BITMAP
1FFFFFFE
30000003
20000001
20000001
20000000
20000000
FC000000
20000000
20000000
20000000
20000000
20000000
20000000
20000000
20000000
20000000
20000000
20000000
20000000
20000000
20000000
ENDCHAR
STARTCHAR uni093F.a20
ENCODING -1
SWIDTH 231 0
DWIDTH 6 0
BBX 33 21 0 0
BITMAP
1FFFFFFF00
3000000180
2000000080
2000000080
2000000000
2000000000
FC00000000
2000000000
2000000000
2000000000
2000000000
2000000000
2000000000
2000000000
2000000000
2000000000
2000000000
2000000000
2000000000
2000000000
2000000000
ENDCHAR
STARTCHAR uni093F.a21
ENCODING -1
SWIDTH 231 0
DWIDTH 6 0
BBX 34 21 0 0
BITMAP
1FFFFFFF80
3000000040
2000000040
2000000040
2000000000
2000000000
FC00000000
2000000000
2000000000
2000000000
2000000000
2000000000
2000000000
2000000000
2000000000
2000000000
2000000000
2000000000
2000000000
2000000000
2000000000
ENDCHAR
STARTCHAR uni093F.a22
ENCODING -1
SWIDTH 231 0
DWIDTH 6 0
BBX 35 21 0 0
BITMAP
1FFFFFFFC0
3000000020
2000000020
2000000020
2000000000
2000000000
FC00000000
2000000000
2000000000
2000000000
2000000000
2000000000
2000000000
2000000000
2000000000
2000000000
2000000000
2000000000
2000000000
2000000000
2000000000
ENDCHAR
STARTCHAR uni093F.a23
ENCODING -1
SWIDTH 231 0
DWIDTH 6 0
BBX 37 21 0 0
BITMAP
1FFFFFFFE0
3000000010
2000000010
2000000018
2000000000
2000000000
FC00000000
2000000000
2000000000
2000000000
2000000000
2000000000
2000000000
2000000000
2000000000
2000000000
2000000000
2000000000
2000000000
2000000000
2000000000
ENDCHAR
STARTCHAR uni093F.a24
ENCODING -1
SWIDTH 231 0
DWIDTH 6 0
BBX 38 21 0 0
BITMAP
1FFFFFFFF0
3000000008
200000000C
2000000004
2000000000
2000000000
FC00000000
2000000000
2000000000
2000000000
2000000000
2000000000
2000000000
2000000000
2000000000
2000000000
2000000000
2000000000
2000000000
2000000000
2000000000
ENDCHAR
STARTCHAR uni093F.a25
ENCODING -1
SWIDTH 231 0
DWIDTH 6 0
BBX 39 21 0 0
BITMAP
1FFFFFFFFC
3000000004
2000000002
2000000002
2000000000
2000000000
FC00000000
2000000000
2000000000
2000000000
2000000000
2000000000
2000000000
2000000000
2000000000
2000000000
2000000000
2000000000
2000000000
2000000000
2000000000
ENDCHAR
STARTCHAR uni093F.a26
ENCODING -1
SWIDTH 231 0
DWIDTH 6 0
BBX 40 21 0 0
BITMAP
1FFFFFFFFE
3000000003
2000000001
2000000001
2000000000
2000000000
FC00000000
2000000000
2000000000
2000000000
2000000000
2000000000
2000000000
2000000000
2000000000
2000000000
2000000000
2000000000
2000000000
2000000000
2000000000
ENDCHAR
STARTCHAR uni093F.a32
ENCODING -1
SWIDTH 231 0
DWIDTH 6 0
BBX 48 21 0 0
BITMAP
1FFFFFFFFFFE
300000000001
200000000001
200000000001
200000000000
200000000000
FC0000000000
200000000000
200000000000
200000000000
200000000000
200000000000
200000000000
200000000000
200000000000
200000000000
200000000000
200000000000
200000000000
200000000000
200000000000
ENDCHAR
STARTCHAR uni093E0901
ENCODING -1
SWIDTH 231 0
DWIDTH 6 0
BBX 8 21 -1 0
BITMAP
10
83
82
7E
00
00
7E
10
10
10
10
10
10
10
10
10
10
10
10
10
10
ENDCHAR
STARTCHAR dvNG_GA
ENCODING -1
SWIDTH 562 0
DWIDTH 13 0
BBX 14 22 0 -7
BITMAP
FFFC
0040
0040
1FC0
3000
2000
2018
2000
1FC0
0020
0020
2020
2020
3FC0
08C0
08C0
08C0
18C0
70C0
00C0
00C0
0080
ENDCHAR
STARTCHAR dvNG_MA
ENCODING -1
SWIDTH 728 0
DWIDTH 17 0
BBX 18 21 0 -6
BITMAP
FFFFC0
008200
008200
1F8200
200200
201200
200200
3F8200
00C200
004200
204200
204200
3F8200
010200
010200
01FE00
010200
010200
010200
000200
000200
ENDCHAR
STARTCHAR dvNY_CA
ENCODING -1
SWIDTH 963 0
DWIDTH 23 0
BBX 23 15 0 0
BITMAP
FFFFFE
000008
000008
000008
7C0008
063F88
020408
020808
03C808
020808
020C18
0607E8
7C0008
000008
000008
ENDCHAR
STARTCHAR dvTT_GA
ENCODING -1
SWIDTH 510 0
DWIDTH 12 0
BBX 13 21 0 -6
BITMAP
FFF8
0040
0040
0040
0040
1FC0
3000
2000
2000
2020
2020
2060
1FC0
08C0
08C0
08C0
08C0
18C0
70C0
00C0
00C0
ENDCHAR
STARTCHAR dvTTH_TTHA
ENCODING -1
SWIDTH 511 0
DWIDTH 12 0
BBX 13 22 0 -7
BITMAP
FFF8
0080
0080
0080
1F00
30C0
2040
2040
2040
2040
2040
1F80
0080
0080
1F80
30C0
2040
2040
2040
2040
2040
1F80
ENDCHAR
STARTCHAR dvDD_GA
ENCODING -1
SWIDTH 541 0
DWIDTH 13 0
BBX 13 22 0 -7
BITMAP
FFF8
0040
0040
1FC0
3000
2000
2000
2000
1FC0
0020
0020
2020
2020
3FC0
08C0
08C0
08C0
18C0
70C0
00C0
00C0
0080
ENDCHAR
STARTCHAR dvDDH_DDHA
ENCODING -1
SWIDTH 487 0
DWIDTH 12 0
BBX 12 20 0 -5
BITMAP
FFF0
0080
0080
1F80
3000
2000
21C0
2240
2240
2040
2040
1FC0
3000
2000
21C0
2240
2260
2060
3040
1FC0
ENDCHAR
STARTCHAR dvSHA_MatraVocalicR
ENCODING -1
SWIDTH 558 0
DWIDTH 13 0
BBX 13 20 1 -5
BITMAP
3C78
4640
4240
4240
4240
6440
3C40
3C40
C740
81C0
0040
0040
0040
0040
01C0
0300
0200
0200
0218
01F0
ENDCHAR
STARTCHAR dvT_KH_NA
ENCODING -1
SWIDTH 1341 0
DWIDTH 32 0
BBX 33 15 0 0
BITMAP
FFFFFFFF80
000C000400
000C000400
000C000400
000C780400
1F0C8C0400
208905FC00
20F9060400
2041060400
2061060400
20218A0400
2010F80400
2018000400
2008000400
1C04000400
ENDCHAR
STARTCHAR dvT_S_NA
ENCODING -1
SWIDTH 1169 0
DWIDTH 28 0
BBX 28 15 0 0
BITMAP
FFFFFFF0
00080040
00080040
00080040
00080040
1F880040
20C81FC0
207FE040
20402040
20202040
20200040
20100040
20180040
20080040
1C0C0040
ENDCHAR
ENDFONT
